{
.appVersion = "1192";
DisplayStrings = (
"/hhaa-ethiopic",
"/_part.leg",
"/laa-ethiopic",
"/hhwa-ethiopic",
"/mu-ethiopic",
"/maa-ethiopic",
"/mo-ethiopic",
"/szu-ethiopic",
"/szaa-ethiopic",
"/szwa-ethiopic",
"/saa-ethiopic",
"/swa-ethiopic",
"/sha-ethiopic",
"/shu-ethiopic",
"/su-ethiopic",
"/shi-ethiopic",
"/shaa-ethiopic",
"/_part.hat",
"/sho-ethiopic",
"/qu-ethiopic",
"/wa-ethiopic",
"/wi-ethiopic",
"/wee-ethiopic",
"/ha-ethiopic",
"/hu-ethiopic",
"/wu-ethiopic",
"/we-ethiopic",
"/wo-ethiopic",
"/aPharyngeal-ethiopic",
"/qi-ethiopic",
"/qa-ethiopic",
"/qaa-ethiopic",
"/qee-ethiopic",
"/qe-ethiopic",
"/qo-ethiopic",
"/ba-ethiopic",
"/baa-ethiopic",
"/bo-ethiopic",
"/bwa-ethiopic",
"/tu-ethiopic",
"/ti-ethiopic",
"/to-ethiopic",
"/ta-ethiopic",
"/taa-ethiopic",
"/te-ethiopic",
"/twa-ethiopic",
"/ca-ethiopic",
"/cu-ethiopic",
"/ci-ethiopic",
"/caa-ethiopic",
"/cee-ethiopic",
"/ce-ethiopic",
"/co-ethiopic",
"/cwa-ethiopic",
"/xu-ethiopic",
"/xi-ethiopic",
"/nyi-ethiopic",
"/uGlottal-ethiopic",
"/iGlottal-ethiopic",
"/aaGlottal-ethiopic",
"/waGlottal-ethiopic",
"/ku-ethiopic",
"/ki-ethiopic",
"/kaa-ethiopic",
"/ko-ethiopic",
"/koa-ethiopic",
"/kwaa-ethiopic",
"/kxa-ethiopic",
"/ka-ethiopic",
"/ke-ethiopic",
"/kxwi-ethiopic",
"/kwe-ethiopic",
"/kwi-ethiopic",
"/iPharyngeal-ethiopic",
"/aaPharyngeal-ethiopic",
"/eePharyngeal-ethiopic",
"/zu-ethiopic",
"/zaa-ethiopic",
"/zhu-ethiopic",
"/zhi-ethiopic",
"/zhaa-ethiopic",
"/yoa-ethiopic",
"/du-ethiopic",
"/di-ethiopic",
"/daa-ethiopic",
"/dee-ethiopic",
"/de-ethiopic",
"/do-ethiopic",
"/ge-ethiopic",
"/ggo-ethiopic",
"/thu-ethiopic",
"/thi-ethiopic",
"/thee-ethiopic",
"/cha-ethiopic",
"/chu-ethiopic",
"/chi-ethiopic",
"/chee-ethiopic",
"/che-ethiopic",
"/_part.leg/cho-ethiopic",
"/cho-ethiopic",
"/pha-ethiopic",
"/tsu-ethiopic",
"/tsaa-ethiopic",
"/tsee-ethiopic",
"/tso-ethiopic",
"/phu-ethiopic",
"/phi-ethiopic",
"/phaa-ethiopic",
"/phee-ethiopic",
"/phe-ethiopic",
"/pho-ethiopic",
"/phwa-ethiopic",
"/tzoa-ethiopic",

glyphs = (
{
glyphname = A;
lastChange = "2019-03-13 21:31:40 +0000";
layers = (
{
layerId = "994FE389-9D54-4FAA-B055-C46A67020E78";
paths = (
{
closed = 1;
nodes = (
"155 0 LINE",
"229 203 LINE",
"499 203 LINE",
"568 0 LINE",
"670 0 LINE",
"421 682 LINE",
"317 682 LINE",
"60 0 LINE"
);
},
{
closed = 1;
nodes = (
"367 579 LINE",
"469 278 LINE",
"255 278 LINE"
);
}
);
width = 730;
},
{
layerId = "CBA2E3C4-6E62-469B-BD2C-D62FAD87CF88";
paths = (
{
closed = 1;
nodes = (
"82 0 LINE",
"119 235 LINE",
"260 235 LINE",
"298 0 LINE",
"350 0 LINE",
"220 790 LINE",
"166 790 LINE",
"31 0 LINE"
);
},
{
closed = 1;
nodes = (
"192 671 LINE",
"245 322 LINE",
"132 322 LINE"
);
}
);
width = 381;
}
);
note = A;
unicode = 0041;
},
{
glyphname = B;
lastChange = "2019-03-13 21:31:40 +0000";
layers = (
{
layerId = "994FE389-9D54-4FAA-B055-C46A67020E78";
paths = (
{
closed = 1;
nodes = (
"358 0 LINE SMOOTH",
"448 0 OFFCURVE",
"513 24 OFFCURVE",
"553 77 CURVE SMOOTH",
"581 115 OFFCURVE",
"596 153 OFFCURVE",
"596 198 CURVE SMOOTH",
"596 250 OFFCURVE",
"580 291 OFFCURVE",
"549 321 CURVE SMOOTH",
"532 337 OFFCURVE",
"507 352 OFFCURVE",
"472 366 CURVE",
"495 378 OFFCURVE",
"513 392 OFFCURVE",
"526 406 CURVE SMOOTH",
"551 433 OFFCURVE",
"563 468 OFFCURVE",
"563 511 CURVE SMOOTH",
"563 547 OFFCURVE",
"555 580 OFFCURVE",
"532 608 CURVE SMOOTH",
"496 653 OFFCURVE",
"442 679 OFFCURVE",
"363 679 CURVE SMOOTH",
"70 679 LINE",
"70 0 LINE"
);
},
{
closed = 1;
nodes = (
"161 318 LINE",
"343 318 LINE SMOOTH",
"382 318 OFFCURVE",
"414 313 OFFCURVE",
"437 304 CURVE SMOOTH",
"481 286 OFFCURVE",
"503 252 OFFCURVE",
"503 202 CURVE SMOOTH",
"503 173 OFFCURVE",
"496 147 OFFCURVE",
"479 127 CURVE SMOOTH",
"450 92 OFFCURVE",
"412 77 OFFCURVE",
"358 77 CURVE SMOOTH",
"161 77 LINE"
);
},
{
closed = 1;
nodes = (
"161 603 LINE",
"327 603 LINE SMOOTH",
"365 603 OFFCURVE",
"396 598 OFFCURVE",
"417 590 CURVE SMOOTH",
"453 576 OFFCURVE",
"471 545 OFFCURVE",
"471 500 CURVE SMOOTH",
"471 456 OFFCURVE",
"452 425 OFFCURVE",
"419 408 CURVE SMOOTH",
"398 397 OFFCURVE",
"367 392 OFFCURVE",
"329 392 CURVE SMOOTH",
"161 392 LINE"
);
}
);
width = 656;
},
{
layerId = "CBA2E3C4-6E62-469B-BD2C-D62FAD87CF88";
paths = (
{
closed = 1;
nodes = (
"188 0 LINE SMOOTH",
"233 0 OFFCURVE",
"268 24 OFFCURVE",
"290 85 CURVE SMOOTH",
"304 124 OFFCURVE",
"312 168 OFFCURVE",
"312 218 CURVE SMOOTH",
"312 272 OFFCURVE",
"304 320 OFFCURVE",
"289 351 CURVE SMOOTH",
"278 374 OFFCURVE",
"260 392 OFFCURVE",
"247 403 CURVE",
"259 416 OFFCURVE",
"270 433 OFFCURVE",
"277 449 CURVE SMOOTH",
"289 476 OFFCURVE",
"295 519 OFFCURVE",
"295 562 CURVE SMOOTH",
"295 607 OFFCURVE",
"289 642 OFFCURVE",
"280 666 CURVE SMOOTH",
"255 731 OFFCURVE",
"223 747 OFFCURVE",
"190 747 CURVE SMOOTH",
"37 747 LINE",
"37 0 LINE"
);
},
{
closed = 1;
nodes = (
"85 663 LINE",
"172 663 LINE SMOOTH",
"190 663 OFFCURVE",
"208 658 OFFCURVE",
"219 649 CURVE SMOOTH",
"236 635 OFFCURVE",
"247 602 OFFCURVE",
"247 550 CURVE SMOOTH",
"247 500 OFFCURVE",
"237 468 OFFCURVE",
"219 448 CURVE SMOOTH",
"207 435 OFFCURVE",
"188 431 OFFCURVE",
"172 431 CURVE SMOOTH",
"85 431 LINE"
);
},
{
closed = 1;
nodes = (
"85 350 LINE",
"180 350 LINE SMOOTH",
"200 350 OFFCURVE",
"218 344 OFFCURVE",
"230 334 CURVE SMOOTH",
"250 317 OFFCURVE",
"264 280 OFFCURVE",
"264 222 CURVE SMOOTH",
"264 192 OFFCURVE",
"260 162 OFFCURVE",
"252 141 CURVE SMOOTH",
"236 101 OFFCURVE",
"216 85 OFFCURVE",
"188 85 CURVE SMOOTH",
"85 85 LINE"
);
}
);
width = 343;
}
);
note = B;
unicode = 0042;
},
{
glyphname = C;
lastChange = "2019-03-13 21:31:40 +0000";
layers = (
{
layerId = "994FE389-9D54-4FAA-B055-C46A67020E78";
paths = (
{
closed = 1;
nodes = (
"435 -7 OFFCURVE",
"506 22 OFFCURVE",
"559 77 CURVE SMOOTH",
"603 124 OFFCURVE",
"628 183 OFFCURVE",
"635 253 CURVE",
"549 253 LINE",
"540 209 OFFCURVE",
"526 174 OFFCURVE",
"507 147 CURVE SMOOTH",
"471 97 OFFCURVE",
"423 71 OFFCURVE",
"357 71 CURVE SMOOTH",
"286 71 OFFCURVE",
"233 96 OFFCURVE",
"196 144 CURVE SMOOTH",
"160 191 OFFCURVE",
"141 254 OFFCURVE",
"141 332 CURVE SMOOTH",
"141 426 OFFCURVE",
"162 496 OFFCURVE",
"202 542 CURVE SMOOTH",
"242 587 OFFCURVE",
"294 609 OFFCURVE",
"358 609 CURVE SMOOTH",
"413 609 OFFCURVE",
"453 597 OFFCURVE",
"483 573 CURVE SMOOTH",
"512 549 OFFCURVE",
"533 514 OFFCURVE",
"543 471 CURVE",
"630 471 LINE",
"624 527 OFFCURVE",
"600 577 OFFCURVE",
"553 622 CURVE SMOOTH",
"505 667 OFFCURVE",
"438 687 OFFCURVE",
"357 687 CURVE SMOOTH",
"263 687 OFFCURVE",
"188 658 OFFCURVE",
"127 586 CURVE SMOOTH",
"71 520 OFFCURVE",
"50 439 OFFCURVE",
"50 347 CURVE SMOOTH",
"50 218 OFFCURVE",
"85 124 OFFCURVE",
"153 63 CURVE SMOOTH",
"205 16 OFFCURVE",
"270 -7 OFFCURVE",
"346 -7 CURVE SMOOTH"
);
}
);
width = 685;
},
{
layerId = "CBA2E3C4-6E62-469B-BD2C-D62FAD87CF88";
paths = (
{
closed = 1;
nodes = (
"229 -8 OFFCURVE",
"264 24 OFFCURVE",
"292 85 CURVE SMOOTH",
"314 132 OFFCURVE",
"328 195 OFFCURVE",
"333 278 CURVE",
"287 278 LINE",
"283 232 OFFCURVE",
"275 191 OFFCURVE",
"265 161 CURVE SMOOTH",
"247 107 OFFCURVE",
"220 78 OFFCURVE",
"187 78 CURVE SMOOTH",
"152 78 OFFCURVE",
"122 104 OFFCURVE",
"102 159 CURVE SMOOTH",
"83 211 OFFCURVE",
"74 285 OFFCURVE",
"74 365 CURVE SMOOTH",
"74 466 OFFCURVE",
"84 546 OFFCURVE",
"107 600 CURVE SMOOTH",
"126 646 OFFCURVE",
"157 670 OFFCURVE",
"188 670 CURVE SMOOTH",
"215 670 OFFCURVE",
"237 657 OFFCURVE",
"252 631 CURVE SMOOTH",
"269 602 OFFCURVE",
"279 566 OFFCURVE",
"284 518 CURVE",
"330 518 LINE",
"326 584 OFFCURVE",
"314 634 OFFCURVE",
"289 684 CURVE SMOOTH",
"263 736 OFFCURVE",
"228 756 OFFCURVE",
"187 756 CURVE SMOOTH",
"135 756 OFFCURVE",
"99 724 OFFCURVE",
"66 643 CURVE SMOOTH",
"39 576 OFFCURVE",
"26 493 OFFCURVE",
"26 382 CURVE SMOOTH",
"26 247 OFFCURVE",
"42 141 OFFCURVE",
"80 69 CURVE SMOOTH",
"105 22 OFFCURVE",
"137 -8 OFFCURVE",
"181 -8 CURVE SMOOTH"
);
}
);
width = 359;
}
);
note = C;
unicode = 0043;
},
{
glyphname = D;
lastChange = "2019-03-13 21:31:40 +0000";
layers = (
{
layerId = "994FE389-9D54-4FAA-B055-C46A67020E78";
paths = (
{
closed = 1;
nodes = (
"346 1 LINE SMOOTH",
"461 1 OFFCURVE",
"543 53 OFFCURVE",
"592 156 CURVE SMOOTH",
"620 213 OFFCURVE",
"633 279 OFFCURVE",
"633 351 CURVE SMOOTH",
"633 449 OFFCURVE",
"609 523 OFFCURVE",
"562 581 CURVE SMOOTH",
"501 657 OFFCURVE",
"427 681 OFFCURVE",
"347 681 CURVE SMOOTH",
"70 681 LINE",
"70 1 LINE"
);
},
{
closed = 1;
nodes = (
"163 603 LINE",
"327 603 LINE SMOOTH",
"400 603 OFFCURVE",
"457 579 OFFCURVE",
"489 533 CURVE SMOOTH",
"521 486 OFFCURVE",
"539 420 OFFCURVE",
"539 336 CURVE SMOOTH",
"539 314 OFFCURVE",
"537 290 OFFCURVE",
"532 265 CURVE SMOOTH",
"524 220 OFFCURVE",
"510 186 OFFCURVE",
"492 159 CURVE SMOOTH",
"469 124 OFFCURVE",
"440 101 OFFCURVE",
"404 89 CURVE SMOOTH",
"385 83 OFFCURVE",
"357 78 OFFCURVE",
"328 78 CURVE SMOOTH",
"163 78 LINE"
);
}
);
width = 683;
},
{
layerId = "CBA2E3C4-6E62-469B-BD2C-D62FAD87CF88";
paths = (
{
closed = 1;
nodes = (
"181 1 LINE SMOOTH",
"244 1 OFFCURVE",
"285 62 OFFCURVE",
"310 170 CURVE SMOOTH",
"325 234 OFFCURVE",
"332 309 OFFCURVE",
"332 386 CURVE SMOOTH",
"332 493 OFFCURVE",
"319 575 OFFCURVE",
"296 636 CURVE SMOOTH",
"260 733 OFFCURVE",
"217 749 OFFCURVE",
"182 749 CURVE SMOOTH",
"37 749 LINE",
"37 1 LINE"
);
},
{
closed = 1;
nodes = (
"86 663 LINE",
"172 663 LINE SMOOTH",
"208 663 OFFCURVE",
"240 637 OFFCURVE",
"256 588 CURVE SMOOTH",
"273 537 OFFCURVE",
"282 460 OFFCURVE",
"282 370 CURVE SMOOTH",
"282 331 OFFCURVE",
"282 334 OFFCURVE",
"278 288 CURVE SMOOTH",
"275 255 OFFCURVE",
"272 220 OFFCURVE",
"257 172 CURVE SMOOTH",
"245 134 OFFCURVE",
"228 109 OFFCURVE",
"212 98 CURVE SMOOTH",
"198 89 OFFCURVE",
"183 86 OFFCURVE",
"173 86 CURVE SMOOTH",
"86 86 LINE"
);
}
);
width = 358;
}
);
note = D;
unicode = 0044;
},
{
glyphname = E;
lastChange = "2019-03-13 21:31:40 +0000";
layers = (
{
layerId = "994FE389-9D54-4FAA-B055-C46A67020E78";
paths = (
{
closed = 1;
nodes = (
"575 0 LINE",
"575 80 LINE",
"160 80 LINE",
"160 313 LINE",
"536 313 LINE",
"536 391 LINE",
"160 391 LINE",
"160 598 LINE",
"568 598 LINE",
"568 682 LINE",
"70 682 LINE",
"70 0 LINE"
);
}
);
width = 625;
},
{
layerId = "CBA2E3C4-6E62-469B-BD2C-D62FAD87CF88";
paths = (
{
closed = 1;
nodes = (
"302 0 LINE",
"302 88 LINE",
"84 88 LINE",
"84 344 LINE",
"281 344 LINE",
"281 430 LINE",
"84 430 LINE",
"84 658 LINE",
"298 658 LINE",
"298 750 LINE",
"37 750 LINE",
"37 0 LINE"
);
}
);
width = 328;
}
);
note = E;
unicode = 0045;
},
{
glyphname = F;
lastChange = "2019-03-13 21:31:40 +0000";
layers = (
{
layerId = "994FE389-9D54-4FAA-B055-C46A67020E78";
paths = (
{
closed = 1;
nodes = (
"162 0 LINE",
"162 309 LINE",
"496 309 LINE",
"496 391 LINE",
"162 391 LINE",
"162 597 LINE",
"542 597 LINE",
"542 681 LINE",
"70 681 LINE",
"70 0 LINE"
);
}
);
width = 592;
},
{
layerId = "CBA2E3C4-6E62-469B-BD2C-D62FAD87CF88";
paths = (
{
closed = 1;
nodes = (
"85 0 LINE",
"85 340 LINE",
"260 340 LINE",
"260 430 LINE",
"85 430 LINE",
"85 657 LINE",
"283 657 LINE",
"283 749 LINE",
"37 749 LINE",
"37 0 LINE"
);
}
);
width = 309;
}
);
note = F;
unicode = 0046;
},
{
glyphname = G;
lastChange = "2019-03-13 21:31:40 +0000";
layers = (
{
layerId = "994FE389-9D54-4FAA-B055-C46A67020E78";
paths = (
{
closed = 1;
nodes = (
"409 -11 OFFCURVE",
"458 -2 OFFCURVE",
"500 23 CURVE SMOOTH",
"521 36 OFFCURVE",
"549 59 OFFCURVE",
"580 92 CURVE",
"602 6 LINE",
"660 6 LINE",
"660 364 LINE",
"366 364 LINE",
"366 288 LINE",
"575 288 LINE",
"574 210 OFFCURVE",
"554 155 OFFCURVE",
"515 118 CURVE SMOOTH",
"476 82 OFFCURVE",
"425 66 OFFCURVE",
"365 66 CURVE SMOOTH",
"286 66 OFFCURVE",
"229 93 OFFCURVE",
"195 142 CURVE SMOOTH",
"160 192 OFFCURVE",
"142 256 OFFCURVE",
"142 336 CURVE SMOOTH",
"142 430 OFFCURVE",
"164 499 OFFCURVE",
"206 543 CURVE SMOOTH",
"249 588 OFFCURVE",
"304 613 OFFCURVE",
"362 613 CURVE SMOOTH",
"414 613 OFFCURVE",
"457 601 OFFCURVE",
"491 579 CURVE SMOOTH",
"526 557 OFFCURVE",
"548 521 OFFCURVE",
"560 472 CURVE",
"649 472 LINE",
"634 560 OFFCURVE",
"594 621 OFFCURVE",
"528 655 CURVE SMOOTH",
"481 679 OFFCURVE",
"430 692 OFFCURVE",
"365 692 CURVE SMOOTH",
"272 692 OFFCURVE",
"198 661 OFFCURVE",
"141 597 CURVE SMOOTH",
"81 530 OFFCURVE",
"50 443 OFFCURVE",
"50 331 CURVE SMOOTH",
"50 217 OFFCURVE",
"81 130 OFFCURVE",
"143 66 CURVE",
"200 15 OFFCURVE",
"268 -11 OFFCURVE",
"348 -11 CURVE SMOOTH"
);
}
);
width = 710;
},
{
layerId = "CBA2E3C4-6E62-469B-BD2C-D62FAD87CF88";
paths = (
{
closed = 1;
nodes = (
"215 -12 OFFCURVE",
"240 -2 OFFCURVE",
"262 26 CURVE SMOOTH",
"274 41 OFFCURVE",
"290 71 OFFCURVE",
"303 101 CURVE",
"314 7 LINE",
"345 7 LINE",
"345 400 LINE",
"191 400 LINE",
"191 317 LINE",
"302 317 LINE",
"300 235 OFFCURVE",
"292 175 OFFCURVE",
"270 132 CURVE SMOOTH",
"249 90 OFFCURVE",
"225 73 OFFCURVE",
"192 73 CURVE SMOOTH",
"147 73 OFFCURVE",
"119 104 OFFCURVE",
"101 159 CURVE SMOOTH",
"84 211 OFFCURVE",
"74 280 OFFCURVE",
"74 370 CURVE SMOOTH",
"74 471 OFFCURVE",
"86 549 OFFCURVE",
"107 597 CURVE SMOOTH",
"127 642 OFFCURVE",
"159 674 OFFCURVE",
"189 674 CURVE SMOOTH",
"216 674 OFFCURVE",
"239 661 OFFCURVE",
"258 636 CURVE SMOOTH",
"275 613 OFFCURVE",
"288 568 OFFCURVE",
"293 519 CURVE",
"339 519 LINE",
"332 612 OFFCURVE",
"311 683 OFFCURVE",
"278 719 CURVE SMOOTH",
"252 747 OFFCURVE",
"224 761 OFFCURVE",
"192 761 CURVE SMOOTH",
"140 761 OFFCURVE",
"104 727 OFFCURVE",
"73 655 CURVE SMOOTH",
"44 587 OFFCURVE",
"26 493 OFFCURVE",
"26 364 CURVE SMOOTH",
"26 234 OFFCURVE",
"43 143 OFFCURVE",
"75 73 CURVE",
"105 16 OFFCURVE",
"141 -12 OFFCURVE",
"183 -12 CURVE SMOOTH"
);
}
);
width = 371;
}
);
note = G;
unicode = 0047;
},
{
glyphname = H;
lastChange = "2019-03-13 21:31:40 +0000";
layers = (
{
layerId = "994FE389-9D54-4FAA-B055-C46A67020E78";
paths = (
{
closed = 1;
nodes = (
"163 0 LINE",
"163 317 LINE",
"516 317 LINE",
"516 0 LINE",
"610 0 LINE",
"610 680 LINE",
"516 680 LINE",
"516 399 LINE",
"163 399 LINE",
"163 680 LINE",
"70 680 LINE",
"70 0 LINE"
);
}
);
width = 680;
},
{
layerId = "CBA2E3C4-6E62-469B-BD2C-D62FAD87CF88";
paths = (
{
closed = 1;
nodes = (
"86 0 LINE",
"86 349 LINE",
"270 349 LINE",
"270 0 LINE",
"320 0 LINE",
"320 748 LINE",
"270 748 LINE",
"270 439 LINE",
"86 439 LINE",
"86 748 LINE",
"37 748 LINE",
"37 0 LINE"
);
}
);
width = 357;
}
);
note = H;
unicode = 0048;
},
{
glyphname = I;
lastChange = "2019-03-13 21:31:40 +0000";
layers = (
{
layerId = "994FE389-9D54-4FAA-B055-C46A67020E78";
paths = (
{
closed = 1;
nodes = (
"133 0 LINE",
"133 683 LINE",
"40 683 LINE",
"40 0 LINE"
);
}
);
width = 173;
},
{
layerId = "CBA2E3C4-6E62-469B-BD2C-D62FAD87CF88";
paths = (
{
closed = 1;
nodes = (
"70 0 LINE",
"70 751 LINE",
"21 751 LINE",
"21 0 LINE"
);
}
);
width = 91;
}
);
note = I;
unicode = 0049;
},
{
glyphname = J;
lastChange = "2019-03-13 21:31:40 +0000";
layers = (
{
layerId = "994FE389-9D54-4FAA-B055-C46A67020E78";
paths = (
{
closed = 1;
nodes = (
"315 -8 OFFCURVE",
"375 16 OFFCURVE",
"410 77 CURVE SMOOTH",
"430 112 OFFCURVE",
"436 156 OFFCURVE",
"436 210 CURVE SMOOTH",
"436 682 LINE",
"346 682 LINE",
"346 234 LINE SMOOTH",
"346 177 OFFCURVE",
"340 137 OFFCURVE",
"332 118 CURVE SMOOTH",
"318 84 OFFCURVE",
"285 67 OFFCURVE",
"237 67 CURVE SMOOTH",
"202 67 OFFCURVE",
"177 77 OFFCURVE",
"160 96 CURVE SMOOTH",
"143 115 OFFCURVE",
"136 142 OFFCURVE",
"136 179 CURVE SMOOTH",
"136 227 LINE",
"50 227 LINE",
"50 179 LINE SMOOTH",
"50 109 OFFCURVE",
"69 61 OFFCURVE",
"104 33 CURVE SMOOTH",
"140 5 OFFCURVE",
"182 -8 OFFCURVE",
"232 -8 CURVE SMOOTH"
);
}
);
width = 506;
},
{
layerId = "CBA2E3C4-6E62-469B-BD2C-D62FAD87CF88";
paths = (
{
closed = 1;
nodes = (
"168 -9 OFFCURVE",
"197 22 OFFCURVE",
"214 83 CURVE SMOOTH",
"225 123 OFFCURVE",
"228 174 OFFCURVE",
"228 231 CURVE SMOOTH",
"228 750 LINE",
"181 750 LINE",
"181 257 LINE SMOOTH",
"181 194 OFFCURVE",
"178 151 OFFCURVE",
"173 127 CURVE",
"167 92 OFFCURVE",
"147 74 OFFCURVE",
"124 74 CURVE SMOOTH",
"105 74 OFFCURVE",
"93 84 OFFCURVE",
"83 107 CURVE SMOOTH",
"73 129 OFFCURVE",
"71 166 OFFCURVE",
"71 197 CURVE SMOOTH",
"71 250 LINE",
"26 250 LINE",
"26 197 LINE SMOOTH",
"26 117 OFFCURVE",
"37 65 OFFCURVE",
"54 37 CURVE SMOOTH",
"74 4 OFFCURVE",
"96 -9 OFFCURVE",
"121 -9 CURVE SMOOTH"
);
}
);
width = 265;
}
);
note = J;
unicode = 004A;
},
{
glyphname = K;
lastChange = "2019-03-13 21:31:40 +0000";
layers = (
{
layerId = "994FE389-9D54-4FAA-B055-C46A67020E78";
paths = (
{
closed = 1;
nodes = (
"160 0 LINE",
"160 237 LINE",
"268 342 LINE",
"508 0 LINE",
"628 0 LINE",
"337 406 LINE",
"620 681 LINE",
"493 681 LINE",
"160 349 LINE",
"160 681 LINE",
"70 681 LINE",
"70 0 LINE"
);
}
);
width = 693;
},
{
layerId = "CBA2E3C4-6E62-469B-BD2C-D62FAD87CF88";
paths = (
{
closed = 1;
nodes = (
"84 0 LINE",
"84 261 LINE",
"141 376 LINE",
"267 0 LINE",
"330 0 LINE",
"177 447 LINE",
"325 749 LINE",
"258 749 LINE",
"84 384 LINE",
"84 749 LINE",
"37 749 LINE",
"37 0 LINE"
);
}
);
width = 363;
}
);
note = K;
unicode = 004B;
},
{
glyphname = L;
lastChange = "2019-03-13 21:31:40 +0000";
layers = (
{
layerId = "994FE389-9D54-4FAA-B055-C46A67020E78";
paths = (
{
closed = 1;
nodes = (
"506 0 LINE",
"506 82 LINE",
"162 82 LINE",
"162 679 LINE",
"70 679 LINE",
"70 0 LINE"
);
}
);
width = 556;
},
{
layerId = "CBA2E3C4-6E62-469B-BD2C-D62FAD87CF88";
paths = (
{
closed = 1;
nodes = (
"265 0 LINE",
"265 90 LINE",
"85 90 LINE",
"85 747 LINE",
"37 747 LINE",
"37 0 LINE"
);
}
);
width = 291;
}
);
note = L;
unicode = 004C;
},
{
glyphname = M;
lastChange = "2019-03-13 21:31:40 +0000";
layers = (
{
layerId = "994FE389-9D54-4FAA-B055-C46A67020E78";
paths = (
{
closed = 1;
nodes = (
"158 1 LINE",
"158 402 LINE SMOOTH",
"158 418 OFFCURVE",
"158 444 OFFCURVE",
"157 478 CURVE SMOOTH",
"156 512 OFFCURVE",
"155 537 OFFCURVE",
"155 554 CURVE SMOOTH",
"155 576 LINE",
"352 1 LINE",
"443 1 LINE",
"638 576 LINE",
"638 472 LINE SMOOTH",
"638 439 OFFCURVE",
"637 416 OFFCURVE",
"637 402 CURVE SMOOTH",
"637 1 LINE",
"723 1 LINE",
"723 681 LINE",
"593 681 LINE",
"398 106 LINE",
"202 681 LINE",
"70 681 LINE",
"70 1 LINE"
);
}
);
width = 793;
},
{
layerId = "CBA2E3C4-6E62-469B-BD2C-D62FAD87CF88";
paths = (
{
closed = 1;
nodes = (
"84 1 LINE",
"84 442 LINE SMOOTH",
"84 453 OFFCURVE",
"84 490 OFFCURVE",
"83 523 CURVE SMOOTH",
"82 560 OFFCURVE",
"82 584 OFFCURVE",
"82 609 CURVE SMOOTH",
"82 634 LINE",
"184 1 LINE",
"232 1 LINE",
"335 634 LINE",
"335 519 LINE SMOOTH",
"335 483 OFFCURVE",
"334 458 OFFCURVE",
"334 442 CURVE SMOOTH",
"334 1 LINE",
"379 1 LINE",
"379 749 LINE",
"311 749 LINE",
"209 117 LINE",
"105 749 LINE",
"37 749 LINE",
"37 1 LINE"
);
}
);
width = 416;
}
);
note = M;
unicode = 004D;
},
{
glyphname = N;
lastChange = "2019-03-13 21:31:40 +0000";
layers = (
{
layerId = "994FE389-9D54-4FAA-B055-C46A67020E78";
paths = (
{
closed = 1;
nodes = (
"159 -2 LINE",
"159 551 LINE",
"509 -2 LINE",
"612 -2 LINE",
"612 682 LINE",
"525 682 LINE",
"525 128 LINE",
"180 682 LINE",
"70 682 LINE",
"70 -2 LINE"
);
}
);
width = 682;
},
{
layerId = "CBA2E3C4-6E62-469B-BD2C-D62FAD87CF88";
paths = (
{
closed = 1;
nodes = (
"83 -2 LINE",
"83 606 LINE",
"266 -2 LINE",
"320 -2 LINE",
"320 750 LINE",
"276 750 LINE",
"276 141 LINE",
"95 750 LINE",
"37 750 LINE",
"37 -2 LINE"
);
}
);
width = 357;
}
);
note = N;
unicode = 004E;
},
{
glyphname = O;
lastChange = "2019-03-13 21:31:40 +0000";
layers = (
{
layerId = "994FE389-9D54-4FAA-B055-C46A67020E78";
paths = (
{
closed = 1;
nodes = (
"472 -10 OFFCURVE",
"556 29 OFFCURVE",
"614 104 CURVE SMOOTH",
"666 171 OFFCURVE",
"689 252 OFFCURVE",
"690 349 CURVE SMOOTH",
"691 423 OFFCURVE",
"668 515 OFFCURVE",
"625 572 CURVE SMOOTH",
"568 646 OFFCURVE",
"483 685 OFFCURVE",
"367 685 CURVE SMOOTH",
"259 685 OFFCURVE",
"173 644 OFFCURVE",
"115 562 CURVE SMOOTH",
"71 499 OFFCURVE",
"50 423 OFFCURVE",
"50 335 CURVE SMOOTH",
"50 236 OFFCURVE",
"75 156 OFFCURVE",
"127 90 CURVE",
"185 24 OFFCURVE",
"265 -10 OFFCURVE",
"365 -10 CURVE SMOOTH"
);
},
{
closed = 1;
nodes = (
"294 70 OFFCURVE",
"235 95 OFFCURVE",
"197 144 CURVE SMOOTH",
"159 194 OFFCURVE",
"142 254 OFFCURVE",
"142 328 CURVE SMOOTH",
"142 415 OFFCURVE",
"162 488 OFFCURVE",
"206 536 CURVE SMOOTH",
"249 583 OFFCURVE",
"308 606 OFFCURVE",
"373 606 CURVE SMOOTH",
"443 606 OFFCURVE",
"497 581 OFFCURVE",
"538 535 CURVE SMOOTH",
"579 488 OFFCURVE",
"598 426 OFFCURVE",
"598 348 CURVE SMOOTH",
"598 275 OFFCURVE",
"581 211 OFFCURVE",
"546 155 CURVE SMOOTH",
"511 97 OFFCURVE",
"454 70 OFFCURVE",
"376 70 CURVE SMOOTH"
);
}
);
width = 740;
},
{
layerId = "CBA2E3C4-6E62-469B-BD2C-D62FAD87CF88";
paths = (
{
closed = 1;
nodes = (
"247 -11 OFFCURVE",
"291 32 OFFCURVE",
"320 112 CURVE SMOOTH",
"348 188 OFFCURVE",
"361 270 OFFCURVE",
"361 384 CURVE SMOOTH",
"361 483 OFFCURVE",
"344 583 OFFCURVE",
"328 627 CURVE SMOOTH",
"298 711 OFFCURVE",
"251 754 OFFCURVE",
"192 754 CURVE SMOOTH",
"136 754 OFFCURVE",
"89 706 OFFCURVE",
"61 621 CURVE SMOOTH",
"39 554 OFFCURVE",
"26 477 OFFCURVE",
"26 369 CURVE SMOOTH",
"26 261 OFFCURVE",
"39 172 OFFCURVE",
"66 99 CURVE",
"98 23 OFFCURVE",
"142 -11 OFFCURVE",
"192 -11 CURVE SMOOTH"
);
},
{
closed = 1;
nodes = (
"155 77 OFFCURVE",
"124 102 OFFCURVE",
"103 159 CURVE SMOOTH",
"83 213 OFFCURVE",
"74 278 OFFCURVE",
"74 361 CURVE SMOOTH",
"74 464 OFFCURVE",
"85 537 OFFCURVE",
"109 592 CURVE SMOOTH",
"130 641 OFFCURVE",
"161 667 OFFCURVE",
"195 667 CURVE SMOOTH",
"230 667 OFFCURVE",
"260 639 OFFCURVE",
"280 592 CURVE SMOOTH",
"301 541 OFFCURVE",
"314 478 OFFCURVE",
"314 383 CURVE SMOOTH",
"314 312 OFFCURVE",
"305 235 OFFCURVE",
"286 170 CURVE SMOOTH",
"268 107 OFFCURVE",
"235 77 OFFCURVE",
"196 77 CURVE SMOOTH"
);
}
);
width = 387;
}
);
note = O;
unicode = 004F;
},
{
glyphname = P;
lastChange = "2019-03-13 21:31:40 +0000";
layers = (
{
layerId = "994FE389-9D54-4FAA-B055-C46A67020E78";
paths = (
{
closed = 1;
nodes = (
"162 0 LINE",
"162 288 LINE",
"377 288 LINE SMOOTH",
"446 288 OFFCURVE",
"497 307 OFFCURVE",
"530 347 CURVE SMOOTH",
"562 386 OFFCURVE",
"580 433 OFFCURVE",
"580 486 CURVE SMOOTH",
"580 548 OFFCURVE",
"561 596 OFFCURVE",
"524 631 CURVE SMOOTH",
"487 666 OFFCURVE",
"438 682 OFFCURVE",
"377 682 CURVE SMOOTH",
"70 682 LINE",
"70 0 LINE"
);
},
{
closed = 1;
nodes = (
"162 603 LINE",
"346 603 LINE SMOOTH",
"382 603 OFFCURVE",
"410 597 OFFCURVE",
"431 588 CURVE SMOOTH",
"468 572 OFFCURVE",
"486 536 OFFCURVE",
"486 486 CURVE SMOOTH",
"486 441 OFFCURVE",
"472 410 OFFCURVE",
"448 392 CURVE SMOOTH",
"423 374 OFFCURVE",
"388 366 OFFCURVE",
"346 366 CURVE SMOOTH",
"162 366 LINE"
);
}
);
width = 630;
},
{
layerId = "CBA2E3C4-6E62-469B-BD2C-D62FAD87CF88";
paths = (
{
closed = 1;
nodes = (
"85 0 LINE",
"85 317 LINE",
"198 317 LINE SMOOTH",
"234 317 OFFCURVE",
"261 338 OFFCURVE",
"278 382 CURVE SMOOTH",
"294 425 OFFCURVE",
"304 475 OFFCURVE",
"304 535 CURVE SMOOTH",
"304 600 OFFCURVE",
"294 657 OFFCURVE",
"275 694 CURVE SMOOTH",
"254 735 OFFCURVE",
"227 750 OFFCURVE",
"198 750 CURVE SMOOTH",
"37 750 LINE",
"37 0 LINE"
);
},
{
closed = 1;
nodes = (
"85 663 LINE",
"181 663 LINE SMOOTH",
"199 663 OFFCURVE",
"215 657 OFFCURVE",
"226 647 CURVE SMOOTH",
"246 629 OFFCURVE",
"254 587 OFFCURVE",
"254 535 CURVE SMOOTH",
"254 489 OFFCURVE",
"247 449 OFFCURVE",
"236 432 CURVE SMOOTH",
"227 417 OFFCURVE",
"208 403 OFFCURVE",
"181 403 CURVE SMOOTH",
"85 403 LINE"
);
}
);
width = 330;
}
);
note = P;
unicode = 0050;
},
{
glyphname = Q;
lastChange = "2019-03-13 21:31:40 +0000";
layers = (
{
layerId = "994FE389-9D54-4FAA-B055-C46A67020E78";
paths = (
{
closed = 1;
nodes = (
"685 15 LINE",
"595 84 LINE",
"632 122 OFFCURVE",
"659 170 OFFCURVE",
"675 230 CURVE SMOOTH",
"685 268 OFFCURVE",
"689 307 OFFCURVE",
"689 352 CURVE SMOOTH",
"689 447 OFFCURVE",
"664 521 OFFCURVE",
"626 573 CURVE SMOOTH",
"569 651 OFFCURVE",
"484 686 OFFCURVE",
"367 686 CURVE SMOOTH",
"256 686 OFFCURVE",
"173 646 OFFCURVE",
"116 565 CURVE SMOOTH",
"72 501 OFFCURVE",
"50 426 OFFCURVE",
"50 337 CURVE SMOOTH",
"50 239 OFFCURVE",
"76 157 OFFCURVE",
"126 93 CURVE",
"184 26 OFFCURVE",
"265 -7 OFFCURVE",
"366 -7 CURVE SMOOTH",
"399 -7 OFFCURVE",
"431 -4 OFFCURVE",
"459 6 CURVE SMOOTH",
"486 15 OFFCURVE",
"514 24 OFFCURVE",
"538 37 CURVE",
"640 -40 LINE"
);
},
{
closed = 1;
nodes = (
"299 72 OFFCURVE",
"241 96 OFFCURVE",
"202 143 CURVE SMOOTH",
"163 190 OFFCURVE",
"142 252 OFFCURVE",
"143 331 CURVE SMOOTH",
"144 425 OFFCURVE",
"163 494 OFFCURVE",
"204 539 CURVE SMOOTH",
"246 585 OFFCURVE",
"302 607 OFFCURVE",
"373 607 CURVE SMOOTH",
"446 607 OFFCURVE",
"499 582 OFFCURVE",
"538 536 CURVE SMOOTH",
"578 490 OFFCURVE",
"599 427 OFFCURVE",
"599 350 CURVE SMOOTH",
"599 315 OFFCURVE",
"594 278 OFFCURVE",
"585 240 CURVE SMOOTH",
"575 201 OFFCURVE",
"556 166 OFFCURVE",
"529 136 CURVE",
"443 203 LINE",
"399 147 LINE",
"471 91 LINE",
"458 84 OFFCURVE",
"444 79 OFFCURVE",
"428 76 CURVE",
"413 74 OFFCURVE",
"394 72 OFFCURVE",
"376 72 CURVE SMOOTH"
);
}
);
width = 739;
},
{
layerId = "CBA2E3C4-6E62-469B-BD2C-D62FAD87CF88";
paths = (
{
closed = 1;
nodes = (
"359 17 LINE",
"311 92 LINE",
"330 130 OFFCURVE",
"347 201 OFFCURVE",
"354 255 CURVE SMOOTH",
"356 271 OFFCURVE",
"360 326 OFFCURVE",
"360 387 CURVE SMOOTH",
"360 486 OFFCURVE",
"348 573 OFFCURVE",
"327 633 CURVE SMOOTH",
"298 715 OFFCURVE",
"252 755 OFFCURVE",
"192 755 CURVE SMOOTH",
"134 755 OFFCURVE",
"89 708 OFFCURVE",
"60 621 CURVE SMOOTH",
"37 551 OFFCURVE",
"26 460 OFFCURVE",
"26 371 CURVE SMOOTH",
"26 270 OFFCURVE",
"39 173 OFFCURVE",
"65 102 CURVE",
"95 32 OFFCURVE",
"137 -8 OFFCURVE",
"191 -8 CURVE SMOOTH",
"212 -8 OFFCURVE",
"226 -4 OFFCURVE",
"240 7 CURVE SMOOTH",
"245 11 OFFCURVE",
"262 20 OFFCURVE",
"282 41 CURVE",
"335 -44 LINE"
);
},
{
closed = 1;
nodes = (
"154 79 OFFCURVE",
"125 109 OFFCURVE",
"107 154 CURVE SMOOTH",
"85 209 OFFCURVE",
"75 276 OFFCURVE",
"75 364 CURVE SMOOTH",
"75 463 OFFCURVE",
"85 543 OFFCURVE",
"105 590 CURVE SMOOTH",
"128 643 OFFCURVE",
"157 668 OFFCURVE",
"195 668 CURVE SMOOTH",
"234 668 OFFCURVE",
"261 639 OFFCURVE",
"281 591 CURVE SMOOTH",
"303 539 OFFCURVE",
"313 466 OFFCURVE",
"313 385 CURVE SMOOTH",
"313 342 OFFCURVE",
"312 321 OFFCURVE",
"305 259 CURVE SMOOTH",
"301 229 OFFCURVE",
"296 194 OFFCURVE",
"276 150 CURVE",
"232 223 LINE",
"208 162 LINE",
"247 100 LINE",
"241 93 OFFCURVE",
"231 84 OFFCURVE",
"225 84 CURVE",
"214 81 OFFCURVE",
"204 79 OFFCURVE",
"196 79 CURVE SMOOTH"
);
}
);
width = 386;
}
);
note = Q;
unicode = 0051;
},
{
glyphname = R;
lastChange = "2019-03-13 21:31:40 +0000";
layers = (
{
layerId = "994FE389-9D54-4FAA-B055-C46A67020E78";
paths = (
{
closed = 1;
nodes = (
"163 0 LINE",
"163 293 LINE",
"373 293 LINE SMOOTH",
"410 293 OFFCURVE",
"437 288 OFFCURVE",
"457 280 CURVE SMOOTH",
"489 267 OFFCURVE",
"504 234 OFFCURVE",
"506 190 CURVE SMOOTH",
"511 76 LINE SMOOTH",
"513 31 OFFCURVE",
"515 31 OFFCURVE",
"516 23 CURVE",
"517 14 OFFCURVE",
"520 6 OFFCURVE",
"523 0 CURVE",
"636 0 LINE",
"636 16 LINE",
"621 22 OFFCURVE",
"611 34 OFFCURVE",
"606 56 CURVE",
"602 69 OFFCURVE",
"600 89 OFFCURVE",
"599 116 CURVE SMOOTH",
"596 206 LINE",
"596 245 OFFCURVE",
"589 275 OFFCURVE",
"575 293 CURVE",
"561 309 OFFCURVE",
"541 324 OFFCURVE",
"514 334 CURVE",
"545 350 OFFCURVE",
"568 371 OFFCURVE",
"584 396 CURVE SMOOTH",
"601 423 OFFCURVE",
"610 457 OFFCURVE",
"610 496 CURVE SMOOTH",
"610 575 OFFCURVE",
"577 628 OFFCURVE",
"514 659 CURVE SMOOTH",
"480 676 OFFCURVE",
"433 680 OFFCURVE",
"386 680 CURVE SMOOTH",
"70 680 LINE",
"70 0 LINE"
);
},
{
closed = 1;
nodes = (
"163 601 LINE",
"388 601 LINE SMOOTH",
"419 601 OFFCURVE",
"445 596 OFFCURVE",
"465 587 CURVE",
"501 573 OFFCURVE",
"516 537 OFFCURVE",
"516 487 CURVE SMOOTH",
"516 444 OFFCURVE",
"504 412 OFFCURVE",
"479 394 CURVE SMOOTH",
"455 376 OFFCURVE",
"419 369 OFFCURVE",
"376 369 CURVE SMOOTH",
"163 369 LINE"
);
}
);
width = 696;
},
{
layerId = "CBA2E3C4-6E62-469B-BD2C-D62FAD87CF88";
paths = (
{
closed = 1;
nodes = (
"86 0 LINE",
"86 322 LINE",
"195 322 LINE SMOOTH",
"214 322 OFFCURVE",
"229 317 OFFCURVE",
"240 308 CURVE SMOOTH",
"256 294 OFFCURVE",
"263 257 OFFCURVE",
"265 209 CURVE SMOOTH",
"269 84 LINE SMOOTH",
"270 68 OFFCURVE",
"271 34 OFFCURVE",
"270 25 CURVE",
"271 7 OFFCURVE",
"273 11 OFFCURVE",
"274 0 CURVE",
"333 0 LINE",
"333 18 LINE",
"326 24 OFFCURVE",
"320 40 OFFCURVE",
"317 62 CURVE SMOOTH",
"315 80 OFFCURVE",
"315 87 OFFCURVE",
"314 127 CURVE SMOOTH",
"312 227 LINE",
"312 275 OFFCURVE",
"308 303 OFFCURVE",
"302 322 CURVE",
"293 343 OFFCURVE",
"282 354 OFFCURVE",
"270 367 CURVE",
"281 380 OFFCURVE",
"298 408 OFFCURVE",
"306 434 CURVE SMOOTH",
"315 464 OFFCURVE",
"320 506 OFFCURVE",
"320 546 CURVE SMOOTH",
"320 635 OFFCURVE",
"300 694 OFFCURVE",
"270 725 CURVE SMOOTH",
"250 746 OFFCURVE",
"222 748 OFFCURVE",
"202 748 CURVE SMOOTH",
"37 748 LINE",
"37 0 LINE"
);
},
{
closed = 1;
nodes = (
"86 661 LINE",
"204 661 LINE SMOOTH",
"220 661 OFFCURVE",
"232 656 OFFCURVE",
"245 646 CURVE",
"263 630 OFFCURVE",
"270 587 OFFCURVE",
"270 536 CURVE SMOOTH",
"270 491 OFFCURVE",
"266 457 OFFCURVE",
"251 434 CURVE SMOOTH",
"233 406 OFFCURVE",
"212 406 OFFCURVE",
"197 406 CURVE SMOOTH",
"86 406 LINE"
);
}
);
width = 364;
}
);
note = R;
unicode = 0052;
},
{
glyphname = S;
lastChange = "2019-03-13 21:31:40 +0000";
layers = (
{
layerId = "994FE389-9D54-4FAA-B055-C46A67020E78";
paths = (
{
closed = 1;
nodes = (
"386 -9 OFFCURVE",
"448 7 OFFCURVE",
"502 37 CURVE SMOOTH",
"556 68 OFFCURVE",
"583 123 OFFCURVE",
"583 197 CURVE SMOOTH",
"583 257 OFFCURVE",
"562 302 OFFCURVE",
"519 333 CURVE SMOOTH",
"493 352 OFFCURVE",
"460 366 OFFCURVE",
"414 376 CURVE SMOOTH",
"321 397 LINE SMOOTH",
"258 411 OFFCURVE",
"217 424 OFFCURVE",
"200 433 CURVE SMOOTH",
"172 447 OFFCURVE",
"158 473 OFFCURVE",
"158 505 CURVE SMOOTH",
"158 536 OFFCURVE",
"169 561 OFFCURVE",
"193 583 CURVE SMOOTH",
"219 606 OFFCURVE",
"255 617 OFFCURVE",
"309 617 CURVE SMOOTH",
"374 617 OFFCURVE",
"421 598 OFFCURVE",
"449 566 CURVE",
"464 547 OFFCURVE",
"473 519 OFFCURVE",
"478 483 CURVE",
"563 483 LINE",
"563 557 OFFCURVE",
"539 612 OFFCURVE",
"490 645 CURVE",
"440 676 OFFCURVE",
"382 696 OFFCURVE",
"312 696 CURVE SMOOTH",
"235 696 OFFCURVE",
"176 676 OFFCURVE",
"135 638 CURVE SMOOTH",
"92 598 OFFCURVE",
"72 549 OFFCURVE",
"72 489 CURVE SMOOTH",
"72 435 OFFCURVE",
"94 392 OFFCURVE",
"137 366 CURVE",
"161 350 OFFCURVE",
"202 333 OFFCURVE",
"261 320 CURVE SMOOTH",
"352 300 LINE SMOOTH",
"395 291 OFFCURVE",
"427 283 OFFCURVE",
"462 259 CURVE SMOOTH",
"481 247 OFFCURVE",
"495 220 OFFCURVE",
"495 183 CURVE SMOOTH",
"495 134 OFFCURVE",
"467 102 OFFCURVE",
"414 83 CURVE SMOOTH",
"386 73 OFFCURVE",
"354 67 OFFCURVE",
"321 67 CURVE SMOOTH",
"244 67 OFFCURVE",
"191 88 OFFCURVE",
"162 133 CURVE SMOOTH",
"146 158 OFFCURVE",
"138 188 OFFCURVE",
"136 226 CURVE",
"50 226 LINE",
"50 155 OFFCURVE",
"72 96 OFFCURVE",
"120 55 CURVE SMOOTH",
"167 14 OFFCURVE",
"232 -9 OFFCURVE",
"314 -9 CURVE SMOOTH"
);
}
);
width = 633;
},
{
layerId = "CBA2E3C4-6E62-469B-BD2C-D62FAD87CF88";
paths = (
{
closed = 1;
nodes = (
"200 -10 OFFCURVE",
"235 8 OFFCURVE",
"260 38 CURVE SMOOTH",
"289 73 OFFCURVE",
"305 126 OFFCURVE",
"305 217 CURVE SMOOTH",
"305 285 OFFCURVE",
"294 332 OFFCURVE",
"271 366 CURVE SMOOTH",
"256 388 OFFCURVE",
"240 403 OFFCURVE",
"217 414 CURVE SMOOTH",
"168 437 LINE SMOOTH",
"136 452 OFFCURVE",
"117 464 OFFCURVE",
"105 476 CURVE SMOOTH",
"89 492 OFFCURVE",
"83 522 OFFCURVE",
"83 556 CURVE SMOOTH",
"83 587 OFFCURVE",
"88 617 OFFCURVE",
"101 642 CURVE SMOOTH",
"114 667 OFFCURVE",
"135 679 OFFCURVE",
"161 679 CURVE SMOOTH",
"193 679 OFFCURVE",
"221 658 OFFCURVE",
"234 623 CURVE SMOOTH",
"243 600 OFFCURVE",
"247 570 OFFCURVE",
"251 531 CURVE",
"294 531 LINE",
"294 610 OFFCURVE",
"283 671 OFFCURVE",
"256 710 CURVE",
"230 744 OFFCURVE",
"198 766 OFFCURVE",
"163 766 CURVE SMOOTH",
"127 766 OFFCURVE",
"94 747 OFFCURVE",
"71 703 CURVE SMOOTH",
"46 655 OFFCURVE",
"37 596 OFFCURVE",
"37 538 CURVE SMOOTH",
"37 478 OFFCURVE",
"49 431 OFFCURVE",
"72 403 CURVE",
"85 385 OFFCURVE",
"104 368 OFFCURVE",
"137 352 CURVE SMOOTH",
"185 330 LINE SMOOTH",
"220 314 OFFCURVE",
"222 315 OFFCURVE",
"241 285 CURVE SMOOTH",
"259 257 OFFCURVE",
"260 229 OFFCURVE",
"260 201 CURVE SMOOTH",
"260 147 OFFCURVE",
"242 110 OFFCURVE",
"218 92 CURVE SMOOTH",
"202 80 OFFCURVE",
"184 74 OFFCURVE",
"168 74 CURVE SMOOTH",
"126 74 OFFCURVE",
"100 97 OFFCURVE",
"84 149 CURVE SMOOTH",
"76 176 OFFCURVE",
"73 204 OFFCURVE",
"71 249 CURVE",
"26 249 LINE",
"26 178 OFFCURVE",
"35 110 OFFCURVE",
"63 60 CURVE SMOOTH",
"88 14 OFFCURVE",
"122 -10 OFFCURVE",
"165 -10 CURVE SMOOTH"
);
}
);
width = 331;
}
);
note = S;
unicode = 0053;
},
{
glyphname = T;
lastChange = "2019-03-13 21:31:40 +0000";
layers = (
{
layerId = "994FE389-9D54-4FAA-B055-C46A67020E78";
paths = (
{
closed = 1;
nodes = (
"371 1 LINE",
"371 600 LINE",
"601 600 LINE",
"601 681 LINE",
"50 681 LINE",
"50 600 LINE",
"280 600 LINE",
"280 1 LINE"
);
}
);
width = 651;
},
{
layerId = "CBA2E3C4-6E62-469B-BD2C-D62FAD87CF88";
paths = (
{
closed = 1;
nodes = (
"195 1 LINE",
"195 660 LINE",
"315 660 LINE",
"315 749 LINE",
"26 749 LINE",
"26 660 LINE",
"146 660 LINE",
"146 1 LINE"
);
}
);
width = 341;
}
);
note = T;
unicode = 0054;
},
{
glyphname = U;
lastChange = "2019-03-13 21:31:40 +0000";
layers = (
{
layerId = "994FE389-9D54-4FAA-B055-C46A67020E78";
paths = (
{
closed = 1;
nodes = (
"418 -5 OFFCURVE",
"492 34 OFFCURVE",
"530 110 CURVE SMOOTH",
"551 152 OFFCURVE",
"561 212 OFFCURVE",
"561 291 CURVE SMOOTH",
"561 648 LINE",
"474 648 LINE",
"474 255 LINE SMOOTH",
"474 208 OFFCURVE",
"466 172 OFFCURVE",
"452 146 CURVE SMOOTH",
"425 96 OFFCURVE",
"376 70 OFFCURVE",
"304 70 CURVE SMOOTH",
"243 70 OFFCURVE",
"198 93 OFFCURVE",
"173 140 CURVE SMOOTH",
"156 170 OFFCURVE",
"147 208 OFFCURVE",
"147 255 CURVE SMOOTH",
"147 648 LINE",
"60 648 LINE",
"60 291 LINE SMOOTH",
"60 231 OFFCURVE",
"60 174 OFFCURVE",
"91 110 CURVE SMOOTH",
"128 33 OFFCURVE",
"204 -5 OFFCURVE",
"310 -5 CURVE SMOOTH"
);
}
);
width = 621;
},
{
layerId = "CBA2E3C4-6E62-469B-BD2C-D62FAD87CF88";
paths = (
{
closed = 1;
nodes = (
"220 -6 OFFCURVE",
"256 36 OFFCURVE",
"277 121 CURVE SMOOTH",
"289 170 OFFCURVE",
"294 239 OFFCURVE",
"294 320 CURVE SMOOTH",
"294 713 LINE",
"248 713 LINE",
"248 281 LINE SMOOTH",
"248 225 OFFCURVE",
"243 187 OFFCURVE",
"236 160 CURVE SMOOTH",
"221 102 OFFCURVE",
"194 77 OFFCURVE",
"159 77 CURVE SMOOTH",
"127 77 OFFCURVE",
"104 102 OFFCURVE",
"90 154 CURVE SMOOTH",
"78 198 OFFCURVE",
"77 247 OFFCURVE",
"77 281 CURVE SMOOTH",
"77 713 LINE",
"31 713 LINE",
"31 320 LINE SMOOTH",
"31 266 OFFCURVE",
"31 191 OFFCURVE",
"48 118 CURVE SMOOTH",
"67 36 OFFCURVE",
"107 -6 OFFCURVE",
"162 -6 CURVE SMOOTH"
);
}
);
width = 325;
}
);
note = U;
unicode = 0055;
},
{
glyphname = V;
lastChange = "2019-03-13 21:31:40 +0000";
layers = (
{
layerId = "994FE389-9D54-4FAA-B055-C46A67020E78";
paths = (
{
closed = 1;
nodes = (
"403 0 LINE",
"652 680 LINE",
"549 680 LINE",
"355 102 LINE",
"161 680 LINE",
"60 680 LINE",
"307 0 LINE"
);
}
);
width = 712;
},
{
layerId = "CBA2E3C4-6E62-469B-BD2C-D62FAD87CF88";
paths = (
{
closed = 1;
nodes = (
"210 0 LINE",
"340 748 LINE",
"287 748 LINE",
"186 112 LINE",
"84 748 LINE",
"31 748 LINE",
"160 0 LINE"
);
}
);
width = 371;
}
);
note = V;
unicode = 0056;
},
{
glyphname = W;
lastChange = "2019-03-13 21:31:40 +0000";
layers = (
{
layerId = "994FE389-9D54-4FAA-B055-C46A67020E78";
paths = (
{
closed = 1;
nodes = (
"326 0 LINE",
"484 566 LINE",
"642 0 LINE",
"740 0 LINE",
"920 684 LINE",
"818 684 LINE",
"689 128 LINE",
"535 684 LINE",
"433 684 LINE",
"280 128 LINE",
"150 684 LINE",
"50 684 LINE",
"230 0 LINE"
);
}
);
width = 970;
},
{
layerId = "CBA2E3C4-6E62-469B-BD2C-D62FAD87CF88";
paths = (
{
closed = 1;
nodes = (
"170 0 LINE",
"254 623 LINE",
"335 0 LINE",
"387 0 LINE",
"481 752 LINE",
"429 752 LINE",
"360 141 LINE",
"281 752 LINE",
"226 752 LINE",
"146 141 LINE",
"78 752 LINE",
"26 752 LINE",
"120 0 LINE"
);
}
);
width = 507;
}
);
note = W;
unicode = 0057;
},
{
glyphname = X;
lastChange = "2019-03-13 21:31:40 +0000";
layers = (
{
layerId = "994FE389-9D54-4FAA-B055-C46A67020E78";
paths = (
{
closed = 1;
nodes = (
"162 0 LINE",
"353 283 LINE",
"537 0 LINE",
"653 0 LINE",
"411 351 LINE",
"641 686 LINE",
"531 686 LINE",
"357 424 LINE",
"181 686 LINE",
"65 686 LINE",
"297 351 LINE",
"50 0 LINE"
);
}
);
width = 703;
},
{
layerId = "CBA2E3C4-6E62-469B-BD2C-D62FAD87CF88";
paths = (
{
closed = 1;
nodes = (
"84 0 LINE",
"184 311 LINE",
"281 0 LINE",
"342 0 LINE",
"215 386 LINE",
"336 755 LINE",
"278 755 LINE",
"187 466 LINE",
"95 755 LINE",
"35 755 LINE",
"155 386 LINE",
"26 0 LINE"
);
}
);
width = 368;
}
);
note = X;
unicode = 0058;
},
{
glyphname = Y;
lastChange = "2019-03-13 21:31:40 +0000";
layers = (
{
layerId = "994FE389-9D54-4FAA-B055-C46A67020E78";
paths = (
{
closed = 1;
nodes = (
"382 0 LINE",
"382 262 LINE",
"628 649 LINE",
"524 649 LINE",
"339 337 LINE",
"153 649 LINE",
"50 649 LINE",
"294 262 LINE",
"294 0 LINE"
);
}
);
width = 678;
},
{
layerId = "CBA2E3C4-6E62-469B-BD2C-D62FAD87CF88";
paths = (
{
closed = 1;
nodes = (
"199 0 LINE",
"199 288 LINE",
"329 714 LINE",
"274 714 LINE",
"177 371 LINE",
"80 714 LINE",
"26 714 LINE",
"154 288 LINE",
"154 0 LINE"
);
}
);
width = 355;
}
);
note = Y;
unicode = 0059;
},
{
glyphname = Z;
lastChange = "2019-03-13 21:31:40 +0000";
layers = (
{
layerId = "994FE389-9D54-4FAA-B055-C46A67020E78";
paths = (
{
closed = 1;
nodes = (
"586 1 LINE",
"586 83 LINE",
"166 83 LINE",
"586 602 LINE",
"586 681 LINE",
"80 681 LINE",
"80 600 LINE",
"467 600 LINE",
"50 78 LINE",
"50 1 LINE"
);
}
);
width = 636;
},
{
layerId = "CBA2E3C4-6E62-469B-BD2C-D62FAD87CF88";
paths = (
{
closed = 1;
nodes = (
"306 1 LINE",
"306 91 LINE",
"86 91 LINE",
"306 662 LINE",
"306 749 LINE",
"42 749 LINE",
"42 660 LINE",
"244 660 LINE",
"26 86 LINE",
"26 1 LINE"
);
}
);
width = 332;
}
);
note = Z;
unicode = 005A;
},
{
glyphname = a;
lastChange = "2019-03-13 21:31:40 +0000";
layers = (
{
layerId = "994FE389-9D54-4FAA-B055-C46A67020E78";
paths = (
{
closed = 1;
nodes = (
"263 -11 OFFCURVE",
"298 -1 OFFCURVE",
"334 17 CURVE SMOOTH",
"349 25 OFFCURVE",
"394 53 OFFCURVE",
"409 76 CURVE",
"412 56 OFFCURVE",
"418 40 OFFCURVE",
"425 29 CURVE SMOOTH",
"439 8 OFFCURVE",
"460 -3 OFFCURVE",
"490 -3 CURVE SMOOTH",
"503 -3 OFFCURVE",
"512 -3 OFFCURVE",
"519 -2 CURVE SMOOTH",
"526 -1 OFFCURVE",
"539 1 OFFCURVE",
"551 6 CURVE",
"551 70 LINE",
"535 67 LINE SMOOTH",
"530 66 OFFCURVE",
"527 66 OFFCURVE",
"523 66 CURVE SMOOTH",
"510 66 OFFCURVE",
"502 70 OFFCURVE",
"497 75 CURVE SMOOTH",
"491 81 OFFCURVE",
"492 87 OFFCURVE",
"492 96 CURVE SMOOTH",
"492 395 LINE SMOOTH",
"492 446 OFFCURVE",
"475 483 OFFCURVE",
"436 505 CURVE SMOOTH",
"398 526 OFFCURVE",
"349 541 OFFCURVE",
"288 541 CURVE SMOOTH",
"233 541 OFFCURVE",
"188 526 OFFCURVE",
"148 502 CURVE SMOOTH",
"108 478 OFFCURVE",
"87 433 OFFCURVE",
"85 369 CURVE",
"167 369 LINE",
"170 394 OFFCURVE",
"177 415 OFFCURVE",
"188 429 CURVE SMOOTH",
"207 454 OFFCURVE",
"238 466 OFFCURVE",
"286 466 CURVE SMOOTH",
"325 466 OFFCURVE",
"355 459 OFFCURVE",
"377 446 CURVE",
"398 435 OFFCURVE",
"408 410 OFFCURVE",
"408 382 CURVE SMOOTH",
"408 368 OFFCURVE",
"405 356 OFFCURVE",
"401 348 CURVE",
"397 331 OFFCURVE",
"383 324 OFFCURVE",
"363 321 CURVE SMOOTH",
"223 303 LINE SMOOTH",
"183 298 OFFCURVE",
"142 292 OFFCURVE",
"104 256 CURVE SMOOTH",
"76 230 OFFCURVE",
"60 196 OFFCURVE",
"60 142 CURVE SMOOTH",
"60 100 OFFCURVE",
"74 62 OFFCURVE",
"105 36 CURVE",
"138 6 OFFCURVE",
"175 -11 OFFCURVE",
"224 -11 CURVE SMOOTH"
);
},
{
closed = 1;
nodes = (
"219 64 OFFCURVE",
"197 70 OFFCURVE",
"178 86 CURVE SMOOTH",
"159 101 OFFCURVE",
"149 120 OFFCURVE",
"149 145 CURVE SMOOTH",
"149 179 OFFCURVE",
"165 203 OFFCURVE",
"191 216 CURVE",
"207 225 OFFCURVE",
"231 232 OFFCURVE",
"261 237 CURVE SMOOTH",
"317 246 LINE",
"331 247 OFFCURVE",
"348 251 OFFCURVE",
"365 255 CURVE",
"382 258 OFFCURVE",
"397 265 OFFCURVE",
"405 273 CURVE",
"405 203 LINE SMOOTH",
"405 147 OFFCURVE",
"381 111 OFFCURVE",
"333 85 CURVE SMOOTH",
"306 70 OFFCURVE",
"275 64 OFFCURVE",
"243 64 CURVE SMOOTH"
);
}
);
width = 611;
},
{
layerId = "CBA2E3C4-6E62-469B-BD2C-D62FAD87CF88";
paths = (
{
closed = 1;
nodes = (
"136 -12 OFFCURVE",
"156 -1 OFFCURVE",
"175 19 CURVE SMOOTH",
"177 21 OFFCURVE",
"192 37 OFFCURVE",
"213 84 CURVE",
"217 51 OFFCURVE",
"217 50 OFFCURVE",
"223 29 CURVE SMOOTH",
"229 9 OFFCURVE",
"242 -3 OFFCURVE",
"256 -3 CURVE SMOOTH",
"265 -3 OFFCURVE",
"267 -3 OFFCURVE",
"271 -2 CURVE",
"274 -1 OFFCURVE",
"280 1 OFFCURVE",
"289 7 CURVE",
"289 77 LINE",
"279 73 LINE",
"277 72 OFFCURVE",
"275 73 OFFCURVE",
"273 73 CURVE SMOOTH",
"267 73 OFFCURVE",
"262 77 OFFCURVE",
"260 82 CURVE SMOOTH",
"257 89 OFFCURVE",
"257 85 OFFCURVE",
"257 106 CURVE SMOOTH",
"257 435 LINE SMOOTH",
"257 486 OFFCURVE",
"251 527 OFFCURVE",
"228 555 CURVE SMOOTH",
"211 576 OFFCURVE",
"184 595 OFFCURVE",
"151 595 CURVE SMOOTH",
"125 595 OFFCURVE",
"97 579 OFFCURVE",
"76 552 CURVE SMOOTH",
"60 532 OFFCURVE",
"45 477 OFFCURVE",
"45 406 CURVE",
"87 406 LINE",
"89 436 OFFCURVE",
"93 459 OFFCURVE",
"97 470 CURVE SMOOTH",
"108 499 OFFCURVE",
"123 513 OFFCURVE",
"149 513 CURVE SMOOTH",
"169 513 OFFCURVE",
"185 505 OFFCURVE",
"197 491 CURVE SMOOTH",
"208 479 OFFCURVE",
"214 449 OFFCURVE",
"214 420 CURVE SMOOTH",
"214 408 OFFCURVE",
"212 394 OFFCURVE",
"210 383 CURVE",
"208 364 OFFCURVE",
"197 355 OFFCURVE",
"190 353 CURVE SMOOTH",
"116 333 LINE SMOOTH",
"94 327 OFFCURVE",
"74 322 OFFCURVE",
"53 280 CURVE SMOOTH",
"39 253 OFFCURVE",
"31 211 OFFCURVE",
"31 156 CURVE SMOOTH",
"31 108 OFFCURVE",
"39 68 OFFCURVE",
"55 40 CURVE SMOOTH",
"72 8 OFFCURVE",
"89 -12 OFFCURVE",
"117 -12 CURVE SMOOTH"
);
},
{
closed = 1;
nodes = (
"112 70 OFFCURVE",
"103 77 OFFCURVE",
"93 95 CURVE SMOOTH",
"79 119 OFFCURVE",
"77 136 OFFCURVE",
"77 160 CURVE SMOOTH",
"77 188 OFFCURVE",
"82 219 OFFCURVE",
"100 238 CURVE",
"108 248 OFFCURVE",
"123 256 OFFCURVE",
"137 261 CURVE SMOOTH",
"166 271 LINE",
"167 272 OFFCURVE",
"179 274 OFFCURVE",
"191 281 CURVE",
"199 284 OFFCURVE",
"205 291 OFFCURVE",
"212 300 CURVE",
"212 223 LINE SMOOTH",
"212 188 OFFCURVE",
"212 136 OFFCURVE",
"174 94 CURVE SMOOTH",
"161 79 OFFCURVE",
"147 70 OFFCURVE",
"127 70 CURVE SMOOTH"
);
}
);
width = 320;
}
);
note = a;
unicode = 0061;
},
{
glyphname = b;
lastChange = "2019-03-13 21:31:40 +0000";
layers = (
{
layerId = "994FE389-9D54-4FAA-B055-C46A67020E78";
paths = (
{
closed = 1;
nodes = (
"381 -16 OFFCURVE",
"436 10 OFFCURVE",
"476 67 CURVE SMOOTH",
"514 123 OFFCURVE",
"536 190 OFFCURVE",
"536 274 CURVE SMOOTH",
"536 366 OFFCURVE",
"516 433 OFFCURVE",
"476 475 CURVE SMOOTH",
"433 520 OFFCURVE",
"380 542 OFFCURVE",
"316 542 CURVE SMOOTH",
"285 542 OFFCURVE",
"255 535 OFFCURVE",
"227 522 CURVE SMOOTH",
"200 509 OFFCURVE",
"176 491 OFFCURVE",
"158 465 CURVE",
"158 727 LINE",
"70 727 LINE",
"70 0 LINE",
"152 0 LINE",
"152 69 LINE",
"172 43 OFFCURVE",
"190 24 OFFCURVE",
"206 12 CURVE",
"235 -8 OFFCURVE",
"268 -16 OFFCURVE",
"309 -16 CURVE SMOOTH"
);
},
{
closed = 1;
nodes = (
"239 63 OFFCURVE",
"195 91 OFFCURVE",
"171 148 CURVE SMOOTH",
"158 179 OFFCURVE",
"152 219 OFFCURVE",
"152 270 CURVE SMOOTH",
"152 338 OFFCURVE",
"169 387 OFFCURVE",
"198 418 CURVE SMOOTH",
"228 450 OFFCURVE",
"265 464 OFFCURVE",
"306 464 CURVE SMOOTH",
"353 464 OFFCURVE",
"387 446 OFFCURVE",
"412 408 CURVE SMOOTH",
"436 372 OFFCURVE",
"446 326 OFFCURVE",
"446 270 CURVE SMOOTH",
"446 207 OFFCURVE",
"435 156 OFFCURVE",
"412 117 CURVE SMOOTH",
"389 79 OFFCURVE",
"352 63 OFFCURVE",
"304 63 CURVE SMOOTH"
);
}
);
width = 586;
},
{
layerId = "CBA2E3C4-6E62-469B-BD2C-D62FAD87CF88";
paths = (
{
closed = 1;
nodes = (
"201 -18 OFFCURVE",
"228 11 OFFCURVE",
"249 73 CURVE SMOOTH",
"270 135 OFFCURVE",
"281 211 OFFCURVE",
"281 301 CURVE SMOOTH",
"281 399 OFFCURVE",
"270 478 OFFCURVE",
"251 520 CURVE SMOOTH",
"227 572 OFFCURVE",
"199 596 OFFCURVE",
"165 596 CURVE SMOOTH",
"152 596 OFFCURVE",
"135 590 OFFCURVE",
"119 574 CURVE SMOOTH",
"106 561 OFFCURVE",
"92 540 OFFCURVE",
"84 512 CURVE",
"84 800 LINE",
"37 800 LINE",
"37 0 LINE",
"79 0 LINE",
"79 76 LINE",
"103 18 OFFCURVE",
"100 29 OFFCURVE",
"108 13 CURVE",
"124 -9 OFFCURVE",
"140 -18 OFFCURVE",
"162 -18 CURVE SMOOTH"
);
},
{
closed = 1;
nodes = (
"122 69 OFFCURVE",
"101 108 OFFCURVE",
"91 158 CURVE SMOOTH",
"83 199 OFFCURVE",
"79 234 OFFCURVE",
"79 297 CURVE SMOOTH",
"79 368 OFFCURVE",
"89 428 OFFCURVE",
"103 458 CURVE SMOOTH",
"120 495 OFFCURVE",
"138 510 OFFCURVE",
"160 510 CURVE SMOOTH",
"184 510 OFFCURVE",
"203 491 OFFCURVE",
"216 449 CURVE SMOOTH",
"228 409 OFFCURVE",
"234 365 OFFCURVE",
"234 297 CURVE SMOOTH",
"234 239 OFFCURVE",
"230 176 OFFCURVE",
"215 125 CURVE SMOOTH",
"204 88 OFFCURVE",
"184 69 OFFCURVE",
"160 69 CURVE SMOOTH"
);
}
);
width = 307;
}
);
leftKerningGroup = b;
note = b;
rightKerningGroup = o;
unicode = 0062;
},
{
glyphname = c;
lastChange = "2019-03-13 21:31:40 +0000";
layers = (
{
layerId = "994FE389-9D54-4FAA-B055-C46A67020E78";
paths = (
{
closed = 1;
nodes = (
"335 -9 OFFCURVE",
"384 6 OFFCURVE",
"422 38 CURVE SMOOTH",
"461 71 OFFCURVE",
"486 120 OFFCURVE",
"495 190 CURVE",
"410 190 LINE",
"402 152 OFFCURVE",
"386 121 OFFCURVE",
"366 99 CURVE SMOOTH",
"345 76 OFFCURVE",
"315 66 OFFCURVE",
"280 66 CURVE SMOOTH",
"238 66 OFFCURVE",
"197 81 OFFCURVE",
"175 118 CURVE SMOOTH",
"155 151 OFFCURVE",
"142 197 OFFCURVE",
"142 250 CURVE SMOOTH",
"142 302 OFFCURVE",
"151 346 OFFCURVE",
"166 381 CURVE SMOOTH",
"191 436 OFFCURVE",
"230 463 OFFCURVE",
"285 463 CURVE SMOOTH",
"325 463 OFFCURVE",
"355 451 OFFCURVE",
"375 430 CURVE SMOOTH",
"394 410 OFFCURVE",
"405 383 OFFCURVE",
"410 351 CURVE",
"495 351 LINE",
"488 421 OFFCURVE",
"464 469 OFFCURVE",
"428 499 CURVE SMOOTH",
"395 528 OFFCURVE",
"345 540 OFFCURVE",
"285 540 CURVE SMOOTH",
"219 540 OFFCURVE",
"161 517 OFFCURVE",
"115 466 CURVE SMOOTH",
"72 418 OFFCURVE",
"50 346 OFFCURVE",
"50 251 CURVE SMOOTH",
"50 176 OFFCURVE",
"69 114 OFFCURVE",
"110 66 CURVE SMOOTH",
"151 17 OFFCURVE",
"206 -9 OFFCURVE",
"274 -9 CURVE SMOOTH"
);
}
);
width = 555;
},
{
layerId = "CBA2E3C4-6E62-469B-BD2C-D62FAD87CF88";
paths = (
{
closed = 1;
nodes = (
"179 -10 OFFCURVE",
"201 7 OFFCURVE",
"223 46 CURVE SMOOTH",
"242 80 OFFCURVE",
"255 136 OFFCURVE",
"260 209 CURVE",
"214 209 LINE",
"210 163 OFFCURVE",
"198 122 OFFCURVE",
"193 111 CURVE SMOOTH",
"183 88 OFFCURVE",
"168 73 OFFCURVE",
"146 73 CURVE SMOOTH",
"124 73 OFFCURVE",
"103 89 OFFCURVE",
"91 131 CURVE SMOOTH",
"82 164 OFFCURVE",
"74 211 OFFCURVE",
"74 275 CURVE SMOOTH",
"74 326 OFFCURVE",
"79 385 OFFCURVE",
"86 415 CURVE SMOOTH",
"101 483 OFFCURVE",
"120 509 OFFCURVE",
"150 509 CURVE SMOOTH",
"166 509 OFFCURVE",
"185 498 OFFCURVE",
"195 476 CURVE SMOOTH",
"206 453 OFFCURVE",
"213 417 OFFCURVE",
"214 386 CURVE",
"260 386 LINE",
"256 463 OFFCURVE",
"240 519 OFFCURVE",
"223 551 CURVE SMOOTH",
"206 581 OFFCURVE",
"179 594 OFFCURVE",
"150 594 CURVE SMOOTH",
"113 594 OFFCURVE",
"83 565 OFFCURVE",
"61 515 CURVE SMOOTH",
"37 460 OFFCURVE",
"26 378 OFFCURVE",
"26 276 CURVE SMOOTH",
"26 198 OFFCURVE",
"35 127 OFFCURVE",
"58 71 CURVE SMOOTH",
"79 20 OFFCURVE",
"107 -10 OFFCURVE",
"144 -10 CURVE SMOOTH"
);
}
);
width = 291;
}
);
leftKerningGroup = o;
note = c;
rightKerningGroup = o;
unicode = 0063;
},
{
glyphname = d;
lastChange = "2019-03-13 21:31:40 +0000";
layers = (
{
layerId = "994FE389-9D54-4FAA-B055-C46A67020E78";
paths = (
{
closed = 1;
nodes = (
"315 -17 OFFCURVE",
"347 -12 OFFCURVE",
"375 5 CURVE",
"403 20 OFFCURVE",
"426 42 OFFCURVE",
"449 76 CURVE",
"449 0 LINE",
"527 0 LINE",
"527 726 LINE",
"442 726 LINE",
"442 460 LINE",
"426 479 OFFCURVE",
"406 500 OFFCURVE",
"388 513 CURVE SMOOTH",
"364 531 OFFCURVE",
"324 536 OFFCURVE",
"286 536 CURVE SMOOTH",
"215 536 OFFCURVE",
"160 510 OFFCURVE",
"120 454 CURVE SMOOTH",
"79 396 OFFCURVE",
"60 332 OFFCURVE",
"60 255 CURVE SMOOTH",
"60 173 OFFCURVE",
"84 106 OFFCURVE",
"125 57 CURVE SMOOTH",
"167 7 OFFCURVE",
"219 -17 OFFCURVE",
"277 -17 CURVE SMOOTH"
);
},
{
closed = 1;
nodes = (
"252 60 OFFCURVE",
"213 79 OFFCURVE",
"191 117 CURVE SMOOTH",
"168 157 OFFCURVE",
"153 203 OFFCURVE",
"153 259 CURVE SMOOTH",
"153 324 OFFCURVE",
"168 376 OFFCURVE",
"194 409 CURVE SMOOTH",
"223 446 OFFCURVE",
"260 460 OFFCURVE",
"305 460 CURVE SMOOTH",
"344 460 OFFCURVE",
"376 444 OFFCURVE",
"404 413 CURVE SMOOTH",
"433 381 OFFCURVE",
"446 332 OFFCURVE",
"446 265 CURVE SMOOTH",
"446 200 OFFCURVE",
"431 148 OFFCURVE",
"406 114 CURVE SMOOTH",
"380 77 OFFCURVE",
"346 60 OFFCURVE",
"305 60 CURVE SMOOTH"
);
}
);
width = 597;
},
{
layerId = "CBA2E3C4-6E62-469B-BD2C-D62FAD87CF88";
paths = (
{
closed = 1;
nodes = (
"167 -19 OFFCURVE",
"183 -11 OFFCURVE",
"197 6 CURVE SMOOTH",
"210 22 OFFCURVE",
"221 42 OFFCURVE",
"234 84 CURVE",
"234 0 LINE",
"276 0 LINE",
"276 799 LINE",
"230 799 LINE",
"230 506 LINE",
"221 530 OFFCURVE",
"215 544 OFFCURVE",
"202 564 CURVE SMOOTH",
"187 586 OFFCURVE",
"171 590 OFFCURVE",
"149 590 CURVE SMOOTH",
"112 590 OFFCURVE",
"83 560 OFFCURVE",
"62 498 CURVE SMOOTH",
"41 437 OFFCURVE",
"31 363 OFFCURVE",
"31 281 CURVE SMOOTH",
"31 185 OFFCURVE",
"45 113 OFFCURVE",
"66 60 CURVE SMOOTH",
"87 8 OFFCURVE",
"116 -19 OFFCURVE",
"145 -19 CURVE SMOOTH"
);
},
{
closed = 1;
nodes = (
"132 66 OFFCURVE",
"111 87 OFFCURVE",
"100 127 CURVE SMOOTH",
"88 173 OFFCURVE",
"80 220 OFFCURVE",
"80 285 CURVE SMOOTH",
"80 362 OFFCURVE",
"88 414 OFFCURVE",
"102 451 CURVE SMOOTH",
"116 491 OFFCURVE",
"137 506 OFFCURVE",
"160 506 CURVE SMOOTH",
"181 506 OFFCURVE",
"196 488 OFFCURVE",
"210 456 CURVE SMOOTH",
"226 419 OFFCURVE",
"233 372 OFFCURVE",
"233 292 CURVE SMOOTH",
"233 219 OFFCURVE",
"226 167 OFFCURVE",
"212 126 CURVE SMOOTH",
"199 87 OFFCURVE",
"184 66 OFFCURVE",
"160 66 CURVE SMOOTH"
);
}
);
width = 313;
}
);
leftKerningGroup = o;
note = d;
rightKerningGroup = d;
unicode = 0064;
},
{
glyphname = e;
lastChange = "2019-03-13 21:31:40 +0000";
layers = (
{
layerId = "994FE389-9D54-4FAA-B055-C46A67020E78";
paths = (
{
closed = 1;
nodes = (
"316 -9 OFFCURVE",
"339 -7 OFFCURVE",
"362 -2 CURVE SMOOTH",
"400 7 OFFCURVE",
"432 24 OFFCURVE",
"459 50 CURVE",
"474 66 OFFCURVE",
"489 84 OFFCURVE",
"501 106 CURVE SMOOTH",
"514 130 OFFCURVE",
"521 152 OFFCURVE",
"523 172 CURVE",
"438 172 LINE",
"432 148 OFFCURVE",
"421 127 OFFCURVE",
"406 110 CURVE SMOOTH",
"379 80 OFFCURVE",
"342 66 OFFCURVE",
"297 66 CURVE SMOOTH",
"249 66 OFFCURVE",
"212 82 OFFCURVE",
"190 113 CURVE SMOOTH",
"165 147 OFFCURVE",
"153 187 OFFCURVE",
"152 240 CURVE",
"530 240 LINE",
"530 291 OFFCURVE",
"528 329 OFFCURVE",
"522 353 CURVE",
"517 387 OFFCURVE",
"507 418 OFFCURVE",
"489 444 CURVE SMOOTH",
"470 472 OFFCURVE",
"445 495 OFFCURVE",
"410 511 CURVE SMOOTH",
"376 527 OFFCURVE",
"339 536 OFFCURVE",
"303 536 CURVE SMOOTH",
"230 536 OFFCURVE",
"172 511 OFFCURVE",
"127 459 CURVE SMOOTH",
"82 408 OFFCURVE",
"60 339 OFFCURVE",
"60 257 CURVE SMOOTH",
"60 173 OFFCURVE",
"82 106 OFFCURVE",
"126 61 CURVE SMOOTH",
"171 14 OFFCURVE",
"226 -9 OFFCURVE",
"290 -9 CURVE SMOOTH"
);
},
{
closed = 1;
nodes = (
"156 353 OFFCURVE",
"171 388 OFFCURVE",
"199 418 CURVE SMOOTH",
"226 447 OFFCURVE",
"258 460 OFFCURVE",
"298 460 CURVE SMOOTH",
"355 460 OFFCURVE",
"397 438 OFFCURVE",
"418 399 CURVE SMOOTH",
"428 381 OFFCURVE",
"438 347 OFFCURVE",
"442 309 CURVE",
"154 309 LINE"
);
}
);
width = 590;
},
{
layerId = "CBA2E3C4-6E62-469B-BD2C-D62FAD87CF88";
paths = (
{
closed = 1;
nodes = (
"168 -10 OFFCURVE",
"179 -7 OFFCURVE",
"189 -2 CURVE SMOOTH",
"210 9 OFFCURVE",
"225 26 OFFCURVE",
"239 55 CURVE",
"245 65 OFFCURVE",
"258 101 OFFCURVE",
"262 116 CURVE SMOOTH",
"268 142 OFFCURVE",
"273 169 OFFCURVE",
"273 189 CURVE",
"230 189 LINE",
"226 162 OFFCURVE",
"220 139 OFFCURVE",
"212 121 CURVE SMOOTH",
"198 89 OFFCURVE",
"180 73 OFFCURVE",
"155 73 CURVE SMOOTH",
"130 73 OFFCURVE",
"110 90 OFFCURVE",
"99 124 CURVE SMOOTH",
"85 164 OFFCURVE",
"80 210 OFFCURVE",
"79 264 CURVE",
"277 264 LINE",
"277 307 OFFCURVE",
"277 358 OFFCURVE",
"272 388 CURVE",
"270 432 OFFCURVE",
"266 455 OFFCURVE",
"255 489 CURVE SMOOTH",
"245 519 OFFCURVE",
"237 540 OFFCURVE",
"214 562 CURVE SMOOTH",
"196 580 OFFCURVE",
"178 590 OFFCURVE",
"158 590 CURVE SMOOTH",
"117 590 OFFCURVE",
"90 561 OFFCURVE",
"66 504 CURVE SMOOTH",
"39 440 OFFCURVE",
"31 362 OFFCURVE",
"31 283 CURVE SMOOTH",
"31 195 OFFCURVE",
"42 117 OFFCURVE",
"65 68 CURVE SMOOTH",
"91 13 OFFCURVE",
"118 -10 OFFCURVE",
"151 -10 CURVE SMOOTH"
);
},
{
closed = 1;
nodes = (
"81 388 OFFCURVE",
"89 425 OFFCURVE",
"105 462 CURVE SMOOTH",
"118 492 OFFCURVE",
"135 506 OFFCURVE",
"156 506 CURVE SMOOTH",
"185 506 OFFCURVE",
"207 484 OFFCURVE",
"219 437 CURVE SMOOTH",
"222 424 OFFCURVE",
"230 383 OFFCURVE",
"230 340 CURVE",
"81 340 LINE"
);
}
);
width = 308;
}
);
leftKerningGroup = o;
note = e;
rightKerningGroup = o;
unicode = 0065;
},
{
glyphname = f;
lastChange = "2019-03-13 21:31:40 +0000";
layers = (
{
layerId = "994FE389-9D54-4FAA-B055-C46A67020E78";
paths = (
{
closed = 1;
nodes = (
"209 0 LINE",
"209 448 LINE",
"298 448 LINE",
"298 518 LINE",
"210 518 LINE",
"210 575 OFFCURVE",
"212 608 OFFCURVE",
"219 624 CURVE",
"227 639 OFFCURVE",
"239 646 OFFCURVE",
"266 646 CURVE SMOOTH",
"277 646 LINE SMOOTH",
"282 646 OFFCURVE",
"289 645 OFFCURVE",
"298 644 CURVE",
"298 724 LINE",
"289 725 OFFCURVE",
"283 724 OFFCURVE",
"277 726 CURVE",
"271 727 OFFCURVE",
"266 726 OFFCURVE",
"259 726 CURVE SMOOTH",
"201 726 OFFCURVE",
"162 710 OFFCURVE",
"142 680 CURVE SMOOTH",
"131 664 OFFCURVE",
"125 637 OFFCURVE",
"123 599 CURVE",
"123 518 LINE",
"50 518 LINE",
"50 448 LINE",
"123 448 LINE",
"123 0 LINE"
);
}
);
width = 348;
},
{
layerId = "CBA2E3C4-6E62-469B-BD2C-D62FAD87CF88";
paths = (
{
closed = 1;
nodes = (
"109 0 LINE",
"109 493 LINE",
"156 493 LINE",
"156 570 LINE",
"110 570 LINE",
"110 620 OFFCURVE",
"110 667 OFFCURVE",
"114 686 CURVE",
"119 703 OFFCURVE",
"125 711 OFFCURVE",
"139 711 CURVE SMOOTH",
"145 711 LINE SMOOTH",
"149 711 OFFCURVE",
"152 709 OFFCURVE",
"156 708 CURVE",
"156 796 LINE",
"151 798 OFFCURVE",
"148 796 OFFCURVE",
"145 799 CURVE",
"142 800 OFFCURVE",
"138 799 OFFCURVE",
"135 799 CURVE SMOOTH",
"106 799 OFFCURVE",
"84 781 OFFCURVE",
"74 747 CURVE SMOOTH",
"69 730 OFFCURVE",
"64 698 OFFCURVE",
"64 659 CURVE SMOOTH",
"64 570 LINE",
"26 570 LINE",
"26 493 LINE",
"64 493 LINE",
"64 0 LINE"
);
}
);
width = 182;
}
);
note = f;
unicode = 0066;
},
{
glyphname = g;
lastChange = "2019-03-13 21:31:40 +0000";
layers = (
{
layerId = "994FE389-9D54-4FAA-B055-C46A67020E78";
paths = (
{
closed = 1;
nodes = (
"375 -189 OFFCURVE",
"440 -154 OFFCURVE",
"476 -84 CURVE SMOOTH",
"504 -30 OFFCURVE",
"504 25 OFFCURVE",
"504 66 CURVE SMOOTH",
"504 527 LINE",
"426 527 LINE",
"426 465 LINE",
"408 485 OFFCURVE",
"394 504 OFFCURVE",
"378 514 CURVE SMOOTH",
"348 533 OFFCURVE",
"312 541 OFFCURVE",
"274 541 CURVE SMOOTH",
"215 541 OFFCURVE",
"164 518 OFFCURVE",
"124 471 CURVE SMOOTH",
"84 423 OFFCURVE",
"60 356 OFFCURVE",
"60 272 CURVE SMOOTH",
"60 181 OFFCURVE",
"81 120 OFFCURVE",
"124 78 CURVE SMOOTH",
"164 38 OFFCURVE",
"212 19 OFFCURVE",
"266 19 CURVE SMOOTH",
"306 19 OFFCURVE",
"338 26 OFFCURVE",
"360 39 CURVE SMOOTH",
"383 53 OFFCURVE",
"406 72 OFFCURVE",
"424 98 CURVE",
"425 26 OFFCURVE",
"418 -21 OFFCURVE",
"407 -48 CURVE SMOOTH",
"388 -94 OFFCURVE",
"344 -119 OFFCURVE",
"276 -119 CURVE SMOOTH",
"237 -119 OFFCURVE",
"206 -110 OFFCURVE",
"186 -88 CURVE",
"175 -77 OFFCURVE",
"168 -60 OFFCURVE",
"163 -35 CURVE",
"77 -35 LINE",
"80 -88 OFFCURVE",
"102 -129 OFFCURVE",
"138 -152 CURVE SMOOTH",
"175 -175 OFFCURVE",
"219 -189 OFFCURVE",
"276 -189 CURVE SMOOTH"
);
},
{
closed = 1;
nodes = (
"237 90 OFFCURVE",
"205 104 OFFCURVE",
"183 133 CURVE SMOOTH",
"161 163 OFFCURVE",
"146 204 OFFCURVE",
"146 266 CURVE SMOOTH",
"146 313 OFFCURVE",
"153 353 OFFCURVE",
"166 382 CURVE SMOOTH",
"190 436 OFFCURVE",
"229 468 OFFCURVE",
"288 468 CURVE SMOOTH",
"327 468 OFFCURVE",
"359 451 OFFCURVE",
"388 421 CURVE SMOOTH",
"416 392 OFFCURVE",
"426 345 OFFCURVE",
"426 283 CURVE SMOOTH",
"426 241 OFFCURVE",
"419 203 OFFCURVE",
"406 172 CURVE SMOOTH",
"383 115 OFFCURVE",
"337 90 OFFCURVE",
"276 90 CURVE SMOOTH"
);
}
);
width = 574;
},
{
layerId = "CBA2E3C4-6E62-469B-BD2C-D62FAD87CF88";
paths = (
{
closed = 1;
nodes = (
"197 -208 OFFCURVE",
"230 -169 OFFCURVE",
"248 -94 CURVE SMOOTH",
"264 -28 OFFCURVE",
"264 10 OFFCURVE",
"264 73 CURVE SMOOTH",
"264 580 LINE",
"222 580 LINE",
"222 512 LINE",
"212 538 OFFCURVE",
"208 550 OFFCURVE",
"196 566 CURVE SMOOTH",
"178 590 OFFCURVE",
"161 595 OFFCURVE",
"143 595 CURVE SMOOTH",
"111 595 OFFCURVE",
"86 570 OFFCURVE",
"65 518 CURVE SMOOTH",
"44 465 OFFCURVE",
"31 398 OFFCURVE",
"31 299 CURVE SMOOTH",
"31 204 OFFCURVE",
"42 132 OFFCURVE",
"63 88 CURVE SMOOTH",
"84 44 OFFCURVE",
"110 21 OFFCURVE",
"139 21 CURVE SMOOTH",
"161 21 OFFCURVE",
"177 29 OFFCURVE",
"188 43 CURVE SMOOTH",
"200 58 OFFCURVE",
"212 79 OFFCURVE",
"222 108 CURVE",
"223 37 OFFCURVE",
"217 -30 OFFCURVE",
"213 -52 CURVE SMOOTH",
"204 -101 OFFCURVE",
"180 -131 OFFCURVE",
"144 -131 CURVE SMOOTH",
"126 -131 OFFCURVE",
"107 -121 OFFCURVE",
"97 -97 CURVE",
"92 -87 OFFCURVE",
"88 -68 OFFCURVE",
"85 -39 CURVE",
"40 -39 LINE",
"42 -102 OFFCURVE",
"52 -141 OFFCURVE",
"73 -168 CURVE SMOOTH",
"95 -197 OFFCURVE",
"118 -208 OFFCURVE",
"144 -208 CURVE SMOOTH"
);
},
{
closed = 1;
nodes = (
"126 99 OFFCURVE",
"106 114 OFFCURVE",
"95 147 CURVE SMOOTH",
"83 181 OFFCURVE",
"76 230 OFFCURVE",
"76 293 CURVE SMOOTH",
"76 344 OFFCURVE",
"80 390 OFFCURVE",
"86 418 CURVE SMOOTH",
"99 480 OFFCURVE",
"120 515 OFFCURVE",
"151 515 CURVE SMOOTH",
"170 515 OFFCURVE",
"187 497 OFFCURVE",
"202 465 CURVE SMOOTH",
"217 433 OFFCURVE",
"222 380 OFFCURVE",
"222 311 CURVE SMOOTH",
"222 259 OFFCURVE",
"218 219 OFFCURVE",
"212 188 CURVE SMOOTH",
"200 126 OFFCURVE",
"174 99 OFFCURVE",
"144 99 CURVE SMOOTH"
);
}
);
width = 301;
}
);
leftKerningGroup = o;
note = g;
unicode = 0067;
},
{
glyphname = h;
lastChange = "2019-03-13 21:31:40 +0000";
layers = (
{
layerId = "994FE389-9D54-4FAA-B055-C46A67020E78";
paths = (
{
closed = 1;
nodes = (
"158 1 LINE",
"158 280 LINE SMOOTH",
"158 352 OFFCURVE",
"173 398 OFFCURVE",
"204 423 CURVE SMOOTH",
"234 446 OFFCURVE",
"265 461 OFFCURVE",
"303 461 CURVE SMOOTH",
"347 461 OFFCURVE",
"380 445 OFFCURVE",
"394 417 CURVE SMOOTH",
"404 398 OFFCURVE",
"409 372 OFFCURVE",
"409 334 CURVE SMOOTH",
"409 1 LINE",
"499 1 LINE",
"499 339 LINE SMOOTH",
"499 380 OFFCURVE",
"495 425 OFFCURVE",
"477 460 CURVE SMOOTH",
"448 516 OFFCURVE",
"397 540 OFFCURVE",
"322 540 CURVE SMOOTH",
"279 540 OFFCURVE",
"244 530 OFFCURVE",
"214 514 CURVE SMOOTH",
"198 505 OFFCURVE",
"179 483 OFFCURVE",
"158 456 CURVE",
"158 727 LINE",
"70 727 LINE",
"70 1 LINE"
);
}
);
width = 559;
},
{
layerId = "CBA2E3C4-6E62-469B-BD2C-D62FAD87CF88";
paths = (
{
closed = 1;
nodes = (
"84 1 LINE",
"84 308 LINE SMOOTH",
"84 387 OFFCURVE",
"90 437 OFFCURVE",
"108 466 CURVE SMOOTH",
"123 491 OFFCURVE",
"139 507 OFFCURVE",
"159 507 CURVE SMOOTH",
"181 507 OFFCURVE",
"198 493 OFFCURVE",
"207 458 CURVE SMOOTH",
"212 438 OFFCURVE",
"214 404 OFFCURVE",
"214 367 CURVE SMOOTH",
"214 1 LINE",
"261 1 LINE",
"261 373 LINE SMOOTH",
"261 416 OFFCURVE",
"259 472 OFFCURVE",
"250 507 CURVE SMOOTH",
"235 568 OFFCURVE",
"207 594 OFFCURVE",
"168 594 CURVE SMOOTH",
"147 594 OFFCURVE",
"128 583 OFFCURVE",
"113 566 CURVE SMOOTH",
"104 556 OFFCURVE",
"94 531 OFFCURVE",
"84 502 CURVE",
"84 800 LINE",
"37 800 LINE",
"37 1 LINE"
);
}
);
width = 292;
}
);
note = h;
unicode = 0068;
},
{
glyphname = i;
lastChange = "2019-03-13 21:31:40 +0000";
layers = (
{
layerId = "994FE389-9D54-4FAA-B055-C46A67020E78";
paths = (
{
closed = 1;
nodes = (
"140 -1 LINE",
"140 526 LINE",
"50 526 LINE",
"50 -1 LINE"
);
},
{
closed = 1;
nodes = (
"140 626 LINE",
"140 727 LINE",
"50 727 LINE",
"50 626 LINE"
);
}
);
width = 190;
},
{
layerId = "CBA2E3C4-6E62-469B-BD2C-D62FAD87CF88";
paths = (
{
closed = 1;
nodes = (
"73 689 LINE",
"73 800 LINE",
"26 800 LINE",
"26 689 LINE"
);
},
{
closed = 1;
nodes = (
"73 -1 LINE",
"73 579 LINE",
"26 579 LINE",
"26 -1 LINE"
);
}
);
width = 99;
}
);
leftKerningGroup = b;
note = i;
rightKerningGroup = b;
unicode = 0069;
},
{
glyphname = j;
lastChange = "2019-03-13 21:31:40 +0000";
layers = (
{
layerId = "994FE389-9D54-4FAA-B055-C46A67020E78";
paths = (
{
closed = 1;
nodes = (
"146 -182 OFFCURVE",
"184 -165 OFFCURVE",
"204 -134 CURVE SMOOTH",
"216 -114 OFFCURVE",
"223 -89 OFFCURVE",
"223 -50 CURVE SMOOTH",
"223 535 LINE",
"136 535 LINE",
"136 -42 LINE SMOOTH",
"136 -72 OFFCURVE",
"133 -89 OFFCURVE",
"125 -94 CURVE",
"117 -100 OFFCURVE",
"94 -104 OFFCURVE",
"55 -104 CURVE",
"55 -179 LINE",
"65 -180 OFFCURVE",
"73 -181 OFFCURVE",
"77 -181 CURVE SMOOTH",
"83 -181 OFFCURVE",
"87 -182 OFFCURVE",
"91 -182 CURVE SMOOTH"
);
},
{
closed = 1;
nodes = (
"223 627 LINE",
"223 727 LINE",
"136 727 LINE",
"136 627 LINE"
);
}
);
width = 293;
},
{
layerId = "CBA2E3C4-6E62-469B-BD2C-D62FAD87CF88";
paths = (
{
closed = 1;
nodes = (
"119 690 LINE",
"119 800 LINE",
"73 800 LINE",
"73 690 LINE"
);
},
{
closed = 1;
nodes = (
"82 -200 OFFCURVE",
"97 -180 OFFCURVE",
"108 -146 CURVE SMOOTH",
"116 -121 OFFCURVE",
"119 -91 OFFCURVE",
"119 -55 CURVE SMOOTH",
"119 589 LINE",
"73 589 LINE",
"73 -46 LINE SMOOTH",
"73 -74 OFFCURVE",
"72 -97 OFFCURVE",
"67 -103 CURVE",
"62 -110 OFFCURVE",
"49 -114 OFFCURVE",
"30 -114 CURVE",
"30 -197 LINE",
"36 -198 OFFCURVE",
"39 -199 OFFCURVE",
"41 -199 CURVE SMOOTH",
"45 -199 OFFCURVE",
"46 -200 OFFCURVE",
"49 -200 CURVE SMOOTH"
);
}
);
width = 156;
}
);
note = j;
unicode = 006A;
},
{
glyphname = k;
lastChange = "2019-03-13 21:31:40 +0000";
layers = (
{
layerId = "994FE389-9D54-4FAA-B055-C46A67020E78";
paths = (
{
closed = 1;
nodes = (
"156 0 LINE",
"156 199 LINE",
"231 268 LINE",
"395 0 LINE",
"509 0 LINE",
"295 332 LINE",
"498 530 LINE",
"385 530 LINE",
"156 305 LINE",
"156 727 LINE",
"70 727 LINE",
"70 0 LINE"
);
}
);
width = 559;
},
{
layerId = "CBA2E3C4-6E62-469B-BD2C-D62FAD87CF88";
paths = (
{
closed = 1;
nodes = (
"82 0 LINE",
"82 219 LINE",
"122 295 LINE",
"208 0 LINE",
"266 0 LINE",
"154 365 LINE",
"262 583 LINE",
"203 583 LINE",
"82 336 LINE",
"82 800 LINE",
"37 800 LINE",
"37 0 LINE"
);
}
);
width = 292;
}
);
note = k;
rightKerningGroup = k;
unicode = 006B;
},
{
glyphname = l;
lastChange = "2019-03-13 21:31:40 +0000";
layers = (
{
layerId = "994FE389-9D54-4FAA-B055-C46A67020E78";
paths = (
{
closed = 1;
nodes = (
"139 0 LINE",
"139 722 LINE",
"50 722 LINE",
"50 0 LINE"
);
}
);
width = 189;
},
{
layerId = "CBA2E3C4-6E62-469B-BD2C-D62FAD87CF88";
paths = (
{
closed = 1;
nodes = (
"72 0 LINE",
"72 794 LINE",
"26 794 LINE",
"26 0 LINE"
);
}
);
width = 98;
}
);
leftKerningGroup = b;
note = l;
unicode = 006C;
},
{
glyphname = m;
lastChange = "2019-03-13 21:31:40 +0000";
layers = (
{
layerId = "994FE389-9D54-4FAA-B055-C46A67020E78";
paths = (
{
closed = 1;
nodes = (
"158 0 LINE",
"158 279 LINE SMOOTH",
"158 347 OFFCURVE",
"173 394 OFFCURVE",
"200 420 CURVE SMOOTH",
"227 446 OFFCURVE",
"257 459 OFFCURVE",
"291 459 CURVE SMOOTH",
"327 459 OFFCURVE",
"353 446 OFFCURVE",
"366 422 CURVE SMOOTH",
"375 406 OFFCURVE",
"379 379 OFFCURVE",
"379 344 CURVE SMOOTH",
"379 0 LINE",
"469 0 LINE",
"469 306 LINE SMOOTH",
"469 361 OFFCURVE",
"481 400 OFFCURVE",
"506 423 CURVE SMOOTH",
"532 446 OFFCURVE",
"561 458 OFFCURVE",
"596 458 CURVE SMOOTH",
"621 458 OFFCURVE",
"643 451 OFFCURVE",
"660 438 CURVE",
"677 426 OFFCURVE",
"686 401 OFFCURVE",
"686 366 CURVE SMOOTH",
"686 0 LINE",
"778 0 LINE",
"778 351 LINE SMOOTH",
"778 397 OFFCURVE",
"772 435 OFFCURVE",
"757 462 CURVE SMOOTH",
"729 514 OFFCURVE",
"683 538 OFFCURVE",
"613 538 CURVE SMOOTH",
"580 538 OFFCURVE",
"550 532 OFFCURVE",
"524 518 CURVE",
"497 505 OFFCURVE",
"474 484 OFFCURVE",
"454 456 CURVE",
"443 478 OFFCURVE",
"430 496 OFFCURVE",
"415 507 CURVE",
"390 528 OFFCURVE",
"355 538 OFFCURVE",
"314 538 CURVE SMOOTH",
"277 538 OFFCURVE",
"244 528 OFFCURVE",
"214 508 CURVE SMOOTH",
"198 497 OFFCURVE",
"181 481 OFFCURVE",
"157 452 CURVE",
"157 526 LINE",
"70 526 LINE",
"70 0 LINE"
);
}
);
width = 838;
},
{
layerId = "CBA2E3C4-6E62-469B-BD2C-D62FAD87CF88";
paths = (
{
closed = 1;
nodes = (
"84 0 LINE",
"84 307 LINE SMOOTH",
"84 380 OFFCURVE",
"91 434 OFFCURVE",
"105 462 CURVE SMOOTH",
"119 490 OFFCURVE",
"135 505 OFFCURVE",
"153 505 CURVE SMOOTH",
"172 505 OFFCURVE",
"185 491 OFFCURVE",
"192 463 CURVE SMOOTH",
"198 439 OFFCURVE",
"198 413 OFFCURVE",
"198 378 CURVE SMOOTH",
"198 0 LINE",
"245 0 LINE",
"245 337 LINE SMOOTH",
"245 399 OFFCURVE",
"253 442 OFFCURVE",
"265 465 CURVE SMOOTH",
"278 490 OFFCURVE",
"295 504 OFFCURVE",
"312 504 CURVE SMOOTH",
"324 504 OFFCURVE",
"337 496 OFFCURVE",
"346 482 CURVE SMOOTH",
"355 469 OFFCURVE",
"359 437 OFFCURVE",
"359 403 CURVE SMOOTH",
"359 0 LINE",
"408 0 LINE",
"408 386 LINE SMOOTH",
"408 440 OFFCURVE",
"404 480 OFFCURVE",
"397 507 CURVE SMOOTH",
"382 565 OFFCURVE",
"358 592 OFFCURVE",
"321 592 CURVE SMOOTH",
"303 592 OFFCURVE",
"288 585 OFFCURVE",
"275 570 CURVE",
"261 556 OFFCURVE",
"249 532 OFFCURVE",
"238 502 CURVE",
"232 526 OFFCURVE",
"226 544 OFFCURVE",
"218 558 CURVE SMOOTH",
"204 582 OFFCURVE",
"184 592 OFFCURVE",
"165 592 CURVE SMOOTH",
"145 592 OFFCURVE",
"129 582 OFFCURVE",
"113 559 CURVE SMOOTH",
"105 547 OFFCURVE",
"102 544 OFFCURVE",
"83 497 CURVE",
"83 579 LINE",
"37 579 LINE",
"37 0 LINE"
);
}
);
width = 439;
}
);
note = m;
unicode = 006D;
},
{
glyphname = n;
lastChange = "2019-03-13 21:31:40 +0000";
layers = (
{
layerId = "994FE389-9D54-4FAA-B055-C46A67020E78";
paths = (
{
closed = 1;
nodes = (
"158 0 LINE",
"158 276 LINE SMOOTH",
"158 310 OFFCURVE",
"161 337 OFFCURVE",
"165 356 CURVE",
"170 374 OFFCURVE",
"179 392 OFFCURVE",
"194 409 CURVE SMOOTH",
"213 431 OFFCURVE",
"234 446 OFFCURVE",
"258 453 CURVE",
"271 456 OFFCURVE",
"288 459 OFFCURVE",
"309 459 CURVE SMOOTH",
"351 459 OFFCURVE",
"378 443 OFFCURVE",
"394 410 CURVE SMOOTH",
"404 390 OFFCURVE",
"409 365 OFFCURVE",
"409 332 CURVE SMOOTH",
"409 0 LINE",
"499 0 LINE",
"499 338 LINE SMOOTH",
"499 389 OFFCURVE",
"493 429 OFFCURVE",
"477 460 CURVE SMOOTH",
"450 513 OFFCURVE",
"401 538 OFFCURVE",
"326 538 CURVE SMOOTH",
"292 538 OFFCURVE",
"261 532 OFFCURVE",
"234 518 CURVE",
"205 505 OFFCURVE",
"179 483 OFFCURVE",
"154 452 CURVE",
"154 526 LINE",
"70 526 LINE",
"70 0 LINE"
);
}
);
width = 559;
},
{
layerId = "CBA2E3C4-6E62-469B-BD2C-D62FAD87CF88";
paths = (
{
closed = 1;
nodes = (
"84 0 LINE",
"84 304 LINE SMOOTH",
"84 345 OFFCURVE",
"85 375 OFFCURVE",
"88 392 CURVE",
"89 410 OFFCURVE",
"92 427 OFFCURVE",
"102 450 CURVE SMOOTH",
"112 474 OFFCURVE",
"122 489 OFFCURVE",
"136 498 CURVE",
"144 502 OFFCURVE",
"152 505 OFFCURVE",
"162 505 CURVE SMOOTH",
"185 505 OFFCURVE",
"197 489 OFFCURVE",
"207 449 CURVE SMOOTH",
"213 425 OFFCURVE",
"214 392 OFFCURVE",
"214 365 CURVE SMOOTH",
"214 0 LINE",
"261 0 LINE",
"261 372 LINE SMOOTH",
"261 421 OFFCURVE",
"259 470 OFFCURVE",
"250 507 CURVE SMOOTH",
"236 564 OFFCURVE",
"209 592 OFFCURVE",
"171 592 CURVE SMOOTH",
"151 592 OFFCURVE",
"136 584 OFFCURVE",
"123 570 CURVE",
"101 549 OFFCURVE",
"93 526 OFFCURVE",
"81 497 CURVE",
"81 579 LINE",
"37 579 LINE",
"37 0 LINE"
);
}
);
width = 292;
}
);
note = n;
unicode = 006E;
},
{
glyphname = o;
lastChange = "2019-03-13 21:31:40 +0000";
layers = (
{
layerId = "994FE389-9D54-4FAA-B055-C46A67020E78";
paths = (
{
closed = 1;
nodes = (
"372 -18 OFFCURVE",
"437 10 OFFCURVE",
"479 67 CURVE SMOOTH",
"519 120 OFFCURVE",
"540 193 OFFCURVE",
"540 276 CURVE SMOOTH",
"540 366 OFFCURVE",
"514 433 OFFCURVE",
"470 475 CURVE SMOOTH",
"424 519 OFFCURVE",
"365 543 OFFCURVE",
"298 543 CURVE SMOOTH",
"225 543 OFFCURVE",
"162 517 OFFCURVE",
"117 465 CURVE SMOOTH",
"71 412 OFFCURVE",
"50 337 OFFCURVE",
"50 253 CURVE SMOOTH",
"50 170 OFFCURVE",
"71 105 OFFCURVE",
"113 56 CURVE SMOOTH",
"156 6 OFFCURVE",
"213 -18 OFFCURVE",
"286 -18 CURVE SMOOTH"
);
},
{
closed = 1;
nodes = (
"241 58 OFFCURVE",
"202 77 OFFCURVE",
"177 115 CURVE SMOOTH",
"152 152 OFFCURVE",
"141 198 OFFCURVE",
"141 255 CURVE SMOOTH",
"141 313 OFFCURVE",
"152 363 OFFCURVE",
"177 404 CURVE SMOOTH",
"202 445 OFFCURVE",
"242 466 OFFCURVE",
"295 466 CURVE SMOOTH",
"356 466 OFFCURVE",
"399 441 OFFCURVE",
"424 393 CURVE SMOOTH",
"441 362 OFFCURVE",
"448 322 OFFCURVE",
"448 273 CURVE SMOOTH",
"448 218 OFFCURVE",
"437 169 OFFCURVE",
"415 125 CURVE SMOOTH",
"393 80 OFFCURVE",
"352 58 OFFCURVE",
"294 58 CURVE SMOOTH"
);
}
);
width = 590;
},
{
layerId = "CBA2E3C4-6E62-469B-BD2C-D62FAD87CF88";
paths = (
{
closed = 1;
nodes = (
"194 -20 OFFCURVE",
"229 11 OFFCURVE",
"252 77 CURVE SMOOTH",
"271 132 OFFCURVE",
"283 212 OFFCURVE",
"283 304 CURVE SMOOTH",
"283 405 OFFCURVE",
"269 476 OFFCURVE",
"246 522 CURVE SMOOTH",
"222 571 OFFCURVE",
"192 597 OFFCURVE",
"156 597 CURVE SMOOTH",
"119 597 OFFCURVE",
"84 569 OFFCURVE",
"61 511 CURVE SMOOTH",
"38 454 OFFCURVE",
"26 377 OFFCURVE",
"26 278 CURVE SMOOTH",
"26 180 OFFCURVE",
"39 111 OFFCURVE",
"59 61 CURVE SMOOTH",
"81 7 OFFCURVE",
"113 -20 OFFCURVE",
"149 -20 CURVE SMOOTH"
);
},
{
closed = 1;
nodes = (
"130 64 OFFCURVE",
"108 78 OFFCURVE",
"93 126 CURVE SMOOTH",
"78 173 OFFCURVE",
"74 219 OFFCURVE",
"74 281 CURVE SMOOTH",
"74 339 OFFCURVE",
"79 399 OFFCURVE",
"92 443 CURVE SMOOTH",
"105 488 OFFCURVE",
"126 513 OFFCURVE",
"155 513 CURVE SMOOTH",
"186 513 OFFCURVE",
"208 485 OFFCURVE",
"222 433 CURVE SMOOTH",
"231 398 OFFCURVE",
"235 348 OFFCURVE",
"235 300 CURVE SMOOTH",
"235 240 OFFCURVE",
"229 186 OFFCURVE",
"216 134 CURVE SMOOTH",
"205 88 OFFCURVE",
"184 64 OFFCURVE",
"154 64 CURVE SMOOTH"
);
}
);
width = 309;
}
);
leftKerningGroup = o;
note = o;
unicode = 006F;
},
{
glyphname = p;
lastChange = "2019-03-13 21:31:40 +0000";
layers = (
{
layerId = "994FE389-9D54-4FAA-B055-C46A67020E78";
paths = (
{
closed = 1;
nodes = (
"156 -182 LINE",
"156 77 LINE",
"175 56 OFFCURVE",
"191 38 OFFCURVE",
"207 30 CURVE SMOOTH",
"233 16 OFFCURVE",
"265 4 OFFCURVE",
"303 4 CURVE SMOOTH",
"351 4 OFFCURVE",
"395 20 OFFCURVE",
"431 49 CURVE SMOOTH",
"489 96 OFFCURVE",
"517 176 OFFCURVE",
"517 286 CURVE SMOOTH",
"517 369 OFFCURVE",
"497 432 OFFCURVE",
"457 476 CURVE SMOOTH",
"417 521 OFFCURVE",
"368 542 OFFCURVE",
"311 542 CURVE SMOOTH",
"271 542 OFFCURVE",
"238 533 OFFCURVE",
"209 515 CURVE SMOOTH",
"188 502 OFFCURVE",
"171 483 OFFCURVE",
"153 461 CURVE",
"153 528 LINE",
"70 528 LINE",
"70 -182 LINE"
);
},
{
closed = 1;
nodes = (
"233 78 OFFCURVE",
"190 106 OFFCURVE",
"169 157 CURVE SMOOTH",
"158 185 OFFCURVE",
"152 219 OFFCURVE",
"152 258 CURVE SMOOTH",
"152 306 OFFCURVE",
"158 347 OFFCURVE",
"169 378 CURVE SMOOTH",
"190 437 OFFCURVE",
"233 467 OFFCURVE",
"291 467 CURVE SMOOTH",
"350 467 OFFCURVE",
"390 439 OFFCURVE",
"413 383 CURVE SMOOTH",
"425 354 OFFCURVE",
"431 318 OFFCURVE",
"431 278 CURVE SMOOTH",
"431 213 OFFCURVE",
"417 163 OFFCURVE",
"391 129 CURVE SMOOTH",
"365 96 OFFCURVE",
"331 78 OFFCURVE",
"291 78 CURVE SMOOTH"
);
}
);
width = 577;
},
{
layerId = "CBA2E3C4-6E62-469B-BD2C-D62FAD87CF88";
paths = (
{
closed = 1;
nodes = (
"82 -200 LINE",
"82 85 LINE",
"93 57 OFFCURVE",
"101 42 OFFCURVE",
"109 33 CURVE SMOOTH",
"122 18 OFFCURVE",
"138 4 OFFCURVE",
"159 4 CURVE SMOOTH",
"184 4 OFFCURVE",
"211 26 OFFCURVE",
"226 53 CURVE SMOOTH",
"256 106 OFFCURVE",
"271 193 OFFCURVE",
"271 315 CURVE SMOOTH",
"271 401 OFFCURVE",
"261 475 OFFCURVE",
"240 523 CURVE SMOOTH",
"219 573 OFFCURVE",
"192 596 OFFCURVE",
"164 596 CURVE SMOOTH",
"142 596 OFFCURVE",
"127 588 OFFCURVE",
"111 567 CURVE SMOOTH",
"99 551 OFFCURVE",
"95 544 OFFCURVE",
"80 507 CURVE",
"80 581 LINE",
"37 581 LINE",
"37 -200 LINE"
);
},
{
closed = 1;
nodes = (
"122 86 OFFCURVE",
"99 119 OFFCURVE",
"88 175 CURVE SMOOTH",
"85 189 OFFCURVE",
"79 238 OFFCURVE",
"79 284 CURVE SMOOTH",
"79 341 OFFCURVE",
"83 379 OFFCURVE",
"89 416 CURVE SMOOTH",
"100 481 OFFCURVE",
"122 514 OFFCURVE",
"153 514 CURVE SMOOTH",
"185 514 OFFCURVE",
"205 480 OFFCURVE",
"216 423 CURVE SMOOTH",
"224 385 OFFCURVE",
"226 345 OFFCURVE",
"226 306 CURVE SMOOTH",
"226 234 OFFCURVE",
"219 179 OFFCURVE",
"204 140 CURVE SMOOTH",
"194 112 OFFCURVE",
"177 86 OFFCURVE",
"153 86 CURVE SMOOTH"
);
}
);
width = 302;
}
);
leftKerningGroup = b;
note = p;
rightKerningGroup = o;
unicode = 0070;
},
{
glyphname = q;
lastChange = "2019-03-13 21:31:40 +0000";
layers = (
{
layerId = "994FE389-9D54-4FAA-B055-C46A67020E78";
paths = (
{
closed = 1;
nodes = (
"511 -182 LINE",
"511 531 LINE",
"430 531 LINE",
"430 461 LINE",
"415 483 OFFCURVE",
"399 499 OFFCURVE",
"384 511 CURVE SMOOTH",
"355 533 OFFCURVE",
"319 543 OFFCURVE",
"277 543 CURVE SMOOTH",
"213 543 OFFCURVE",
"160 516 OFFCURVE",
"121 465 CURVE SMOOTH",
"82 413 OFFCURVE",
"60 346 OFFCURVE",
"60 263 CURVE SMOOTH",
"60 176 OFFCURVE",
"82 112 OFFCURVE",
"125 69 CURVE SMOOTH",
"168 26 OFFCURVE",
"216 6 OFFCURVE",
"271 6 CURVE SMOOTH",
"309 6 OFFCURVE",
"340 13 OFFCURVE",
"365 26 CURVE",
"391 38 OFFCURVE",
"410 57 OFFCURVE",
"425 80 CURVE",
"425 -182 LINE"
);
},
{
closed = 1;
nodes = (
"229 79 OFFCURVE",
"189 106 OFFCURVE",
"168 159 CURVE SMOOTH",
"156 189 OFFCURVE",
"150 226 OFFCURVE",
"150 269 CURVE SMOOTH",
"150 336 OFFCURVE",
"165 386 OFFCURVE",
"190 418 CURVE SMOOTH",
"216 452 OFFCURVE",
"248 466 OFFCURVE",
"285 466 CURVE SMOOTH",
"344 466 OFFCURVE",
"385 442 OFFCURVE",
"407 391 CURVE SMOOTH",
"420 362 OFFCURVE",
"429 325 OFFCURVE",
"429 281 CURVE SMOOTH",
"429 234 OFFCURVE",
"424 199 OFFCURVE",
"409 164 CURVE SMOOTH",
"385 107 OFFCURVE",
"345 79 OFFCURVE",
"285 79 CURVE SMOOTH"
);
}
);
width = 581;
},
{
layerId = "CBA2E3C4-6E62-469B-BD2C-D62FAD87CF88";
paths = (
{
closed = 1;
nodes = (
"268 -200 LINE",
"268 584 LINE",
"225 584 LINE",
"225 507 LINE",
"215 534 OFFCURVE",
"203 559 OFFCURVE",
"201 562 CURVE",
"187 586 OFFCURVE",
"164 597 OFFCURVE",
"145 597 CURVE SMOOTH",
"111 597 OFFCURVE",
"83 567 OFFCURVE",
"62 510 CURVE SMOOTH",
"42 454 OFFCURVE",
"31 374 OFFCURVE",
"31 289 CURVE SMOOTH",
"31 198 OFFCURVE",
"42 123 OFFCURVE",
"66 73 CURVE SMOOTH",
"88 29 OFFCURVE",
"113 7 OFFCURVE",
"142 7 CURVE SMOOTH",
"161 7 OFFCURVE",
"176 13 OFFCURVE",
"191 29 CURVE",
"205 42 OFFCURVE",
"216 66 OFFCURVE",
"223 88 CURVE",
"223 -200 LINE"
);
},
{
closed = 1;
nodes = (
"121 87 OFFCURVE",
"98 117 OFFCURVE",
"88 173 CURVE SMOOTH",
"81 208 OFFCURVE",
"78 250 OFFCURVE",
"78 296 CURVE SMOOTH",
"78 379 OFFCURVE",
"88 429 OFFCURVE",
"99 460 CURVE SMOOTH",
"112 497 OFFCURVE",
"129 513 OFFCURVE",
"150 513 CURVE SMOOTH",
"178 513 OFFCURVE",
"200 490 OFFCURVE",
"213 429 CURVE SMOOTH",
"219 401 OFFCURVE",
"224 357 OFFCURVE",
"224 309 CURVE SMOOTH",
"224 261 OFFCURVE",
"222 219 OFFCURVE",
"213 177 CURVE SMOOTH",
"200 115 OFFCURVE",
"179 87 OFFCURVE",
"150 87 CURVE SMOOTH"
);
}
);
width = 305;
}
);
leftKerningGroup = o;
note = q;
unicode = 0071;
},
{
glyphname = r;
lastChange = "2019-03-13 21:31:40 +0000";
layers = (
{
layerId = "994FE389-9D54-4FAA-B055-C46A67020E78";
paths = (
{
closed = 1;
nodes = (
"158 0 LINE",
"158 305 LINE SMOOTH",
"158 342 OFFCURVE",
"170 376 OFFCURVE",
"194 404 CURVE SMOOTH",
"219 432 OFFCURVE",
"253 448 OFFCURVE",
"298 448 CURVE",
"312 447 LINE",
"316 447 OFFCURVE",
"321 446 OFFCURVE",
"327 446 CURVE",
"327 539 LINE",
"317 540 OFFCURVE",
"311 540 OFFCURVE",
"306 541 CURVE",
"302 542 OFFCURVE",
"300 541 OFFCURVE",
"298 541 CURVE SMOOTH",
"263 541 OFFCURVE",
"231 528 OFFCURVE",
"204 503 CURVE SMOOTH",
"185 485 OFFCURVE",
"161 456 OFFCURVE",
"153 437 CURVE",
"153 529 LINE",
"70 529 LINE",
"70 0 LINE"
);
}
);
width = 382;
},
{
layerId = "CBA2E3C4-6E62-469B-BD2C-D62FAD87CF88";
paths = (
{
closed = 1;
nodes = (
"84 0 LINE",
"84 336 LINE SMOOTH",
"84 370 OFFCURVE",
"87 408 OFFCURVE",
"102 444 CURVE SMOOTH",
"115 476 OFFCURVE",
"133 493 OFFCURVE",
"157 493 CURVE",
"163 492 LINE",
"165 492 OFFCURVE",
"169 491 OFFCURVE",
"172 491 CURVE",
"172 593 LINE",
"166 594 OFFCURVE",
"164 594 OFFCURVE",
"160 595 CURVE",
"158 596 OFFCURVE",
"159 595 OFFCURVE",
"157 595 CURVE SMOOTH",
"137 595 OFFCURVE",
"122 581 OFFCURVE",
"107 553 CURVE SMOOTH",
"101 542 OFFCURVE",
"85 504 OFFCURVE",
"80 481 CURVE",
"80 582 LINE",
"37 582 LINE",
"37 0 LINE"
);
}
);
width = 202;
}
);
note = r;
unicode = 0072;
},
{
glyphname = s;
lastChange = "2019-03-13 21:31:40 +0000";
layers = (
{
layerId = "994FE389-9D54-4FAA-B055-C46A67020E78";
paths = (
{
closed = 1;
nodes = (
"341 -9 OFFCURVE",
"393 8 OFFCURVE",
"429 40 CURVE SMOOTH",
"466 73 OFFCURVE",
"480 115 OFFCURVE",
"480 160 CURVE SMOOTH",
"480 208 OFFCURVE",
"464 242 OFFCURVE",
"431 265 CURVE",
"409 279 OFFCURVE",
"368 290 OFFCURVE",
"304 307 CURVE SMOOTH",
"248 322 LINE SMOOTH",
"222 329 OFFCURVE",
"214 331 OFFCURVE",
"192 344 CURVE",
"169 358 OFFCURVE",
"158 376 OFFCURVE",
"158 396 CURVE SMOOTH",
"158 417 OFFCURVE",
"166 435 OFFCURVE",
"183 447 CURVE SMOOTH",
"201 460 OFFCURVE",
"224 466 OFFCURVE",
"258 466 CURVE SMOOTH",
"306 466 OFFCURVE",
"341 455 OFFCURVE",
"362 432 CURVE",
"373 416 OFFCURVE",
"381 397 OFFCURVE",
"383 379 CURVE",
"464 379 LINE",
"465 411 OFFCURVE",
"454 443 OFFCURVE",
"432 474 CURVE SMOOTH",
"399 519 OFFCURVE",
"342 540 OFFCURVE",
"264 540 CURVE SMOOTH",
"203 540 OFFCURVE",
"157 525 OFFCURVE",
"122 495 CURVE SMOOTH",
"87 466 OFFCURVE",
"70 425 OFFCURVE",
"70 377 CURVE SMOOTH",
"70 335 OFFCURVE",
"89 303 OFFCURVE",
"124 279 CURVE SMOOTH",
"145 265 OFFCURVE",
"183 252 OFFCURVE",
"223 242 CURVE SMOOTH",
"293 225 LINE SMOOTH",
"335 215 OFFCURVE",
"347 209 OFFCURVE",
"366 201 CURVE",
"386 189 OFFCURVE",
"394 172 OFFCURVE",
"394 150 CURVE SMOOTH",
"394 121 OFFCURVE",
"383 100 OFFCURVE",
"359 86 CURVE SMOOTH",
"334 71 OFFCURVE",
"305 64 OFFCURVE",
"274 64 CURVE SMOOTH",
"219 64 OFFCURVE",
"183 78 OFFCURVE",
"160 106 CURVE SMOOTH",
"147 122 OFFCURVE",
"141 144 OFFCURVE",
"138 173 CURVE",
"55 173 LINE",
"57 121 OFFCURVE",
"74 78 OFFCURVE",
"107 43 CURVE SMOOTH",
"138 9 OFFCURVE",
"193 -9 OFFCURVE",
"270 -9 CURVE SMOOTH"
);
}
);
width = 535;
},
{
layerId = "CBA2E3C4-6E62-469B-BD2C-D62FAD87CF88";
paths = (
{
closed = 1;
nodes = (
"175 -10 OFFCURVE",
"205 5 OFFCURVE",
"226 44 CURVE SMOOTH",
"247 84 OFFCURVE",
"253 133 OFFCURVE",
"253 176 CURVE SMOOTH",
"253 229 OFFCURVE",
"244 266 OFFCURVE",
"227 292 CURVE",
"216 307 OFFCURVE",
"182 326 OFFCURVE",
"160 338 CURVE SMOOTH",
"131 354 LINE SMOOTH",
"117 362 OFFCURVE",
"117 361 OFFCURVE",
"102 378 CURVE",
"90 394 OFFCURVE",
"84 411 OFFCURVE",
"84 436 CURVE SMOOTH",
"84 461 OFFCURVE",
"88 477 OFFCURVE",
"97 491 CURVE SMOOTH",
"106 506 OFFCURVE",
"118 513 OFFCURVE",
"136 513 CURVE SMOOTH",
"163 513 OFFCURVE",
"180 499 OFFCURVE",
"191 475 CURVE",
"195 462 OFFCURVE",
"200 439 OFFCURVE",
"202 417 CURVE",
"244 417 LINE",
"244 454 OFFCURVE",
"240 486 OFFCURVE",
"227 523 CURVE SMOOTH",
"210 571 OFFCURVE",
"178 594 OFFCURVE",
"139 594 CURVE SMOOTH",
"102 594 OFFCURVE",
"81 573 OFFCURVE",
"65 544 CURVE SMOOTH",
"49 515 OFFCURVE",
"39 476 OFFCURVE",
"39 415 CURVE SMOOTH",
"39 368 OFFCURVE",
"48 333 OFFCURVE",
"66 307 CURVE SMOOTH",
"78 290 OFFCURVE",
"101 275 OFFCURVE",
"118 266 CURVE SMOOTH",
"155 247 LINE SMOOTH",
"180 234 OFFCURVE",
"170 238 OFFCURVE",
"193 221 CURVE",
"204 208 OFFCURVE",
"207 185 OFFCURVE",
"207 165 CURVE SMOOTH",
"207 135 OFFCURVE",
"202 110 OFFCURVE",
"189 94 CURVE SMOOTH",
"176 78 OFFCURVE",
"160 70 OFFCURVE",
"144 70 CURVE SMOOTH",
"115 70 OFFCURVE",
"98 86 OFFCURVE",
"86 114 CURVE SMOOTH",
"77 136 OFFCURVE",
"75 165 OFFCURVE",
"73 190 CURVE",
"30 190 LINE",
"32 125 OFFCURVE",
"39 87 OFFCURVE",
"58 45 CURVE SMOOTH",
"73 10 OFFCURVE",
"105 -10 OFFCURVE",
"143 -10 CURVE SMOOTH"
);
}
);
width = 281;
}
);
note = s;
rightKerningGroup = o;
unicode = 0073;
},
{
glyphname = t;
lastChange = "2019-03-13 21:31:40 +0000";
layers = (
{
layerId = "994FE389-9D54-4FAA-B055-C46A67020E78";
paths = (
{
closed = 1;
nodes = (
"249 -14 OFFCURVE",
"261 -13 OFFCURVE",
"275 -12 CURVE SMOOTH",
"286 -11 OFFCURVE",
"296 -7 OFFCURVE",
"304 -4 CURVE",
"304 66 LINE",
"288 66 LINE SMOOTH",
"283 66 OFFCURVE",
"278 65 OFFCURVE",
"275 65 CURVE SMOOTH",
"257 65 OFFCURVE",
"245 66 OFFCURVE",
"238 69 CURVE",
"225 76 OFFCURVE",
"221 89 OFFCURVE",
"221 108 CURVE SMOOTH",
"221 458 LINE",
"304 458 LINE",
"304 531 LINE",
"221 531 LINE",
"221 682 LINE",
"130 682 LINE",
"130 531 LINE",
"56 531 LINE",
"56 458 LINE",
"130 458 LINE",
"130 103 LINE SMOOTH",
"130 67 OFFCURVE",
"136 41 OFFCURVE",
"151 19 CURVE",
"165 -4 OFFCURVE",
"195 -14 OFFCURVE",
"236 -14 CURVE SMOOTH"
);
}
);
width = 360;
},
{
layerId = "CBA2E3C4-6E62-469B-BD2C-D62FAD87CF88";
paths = (
{
closed = 1;
nodes = (
"132 -15 OFFCURVE",
"131 -15 OFFCURVE",
"143 -13 CURVE SMOOTH",
"149 -12 OFFCURVE",
"149 -12 OFFCURVE",
"159 -4 CURVE",
"159 73 LINE",
"150 73 LINE",
"143 72 LINE",
"137 72 OFFCURVE",
"128 72 OFFCURVE",
"124 76 CURVE",
"117 84 OFFCURVE",
"115 98 OFFCURVE",
"115 119 CURVE SMOOTH",
"115 504 LINE",
"159 504 LINE",
"159 584 LINE",
"115 584 LINE",
"115 750 LINE",
"68 750 LINE",
"68 584 LINE",
"29 584 LINE",
"29 504 LINE",
"68 504 LINE",
"68 113 LINE SMOOTH",
"68 76 OFFCURVE",
"71 45 OFFCURVE",
"80 21 CURVE",
"86 -7 OFFCURVE",
"106 -15 OFFCURVE",
"123 -15 CURVE SMOOTH"
);
}
);
width = 188;
}
);
note = t;
unicode = 0074;
},
{
glyphname = u;
lastChange = "2019-03-13 21:31:40 +0000";
layers = (
{
layerId = "994FE389-9D54-4FAA-B055-C46A67020E78";
paths = (
{
closed = 1;
nodes = (
"291 -14 OFFCURVE",
"331 -1 OFFCURVE",
"367 27 CURVE SMOOTH",
"385 42 OFFCURVE",
"396 60 OFFCURVE",
"408 78 CURVE",
"408 1 LINE",
"492 1 LINE",
"492 531 LINE",
"403 531 LINE",
"403 270 LINE SMOOTH",
"403 218 OFFCURVE",
"397 177 OFFCURVE",
"384 149 CURVE SMOOTH",
"359 95 OFFCURVE",
"320 66 OFFCURVE",
"258 66 CURVE SMOOTH",
"214 66 OFFCURVE",
"187 80 OFFCURVE",
"170 113 CURVE SMOOTH",
"162 129 OFFCURVE",
"157 151 OFFCURVE",
"157 179 CURVE SMOOTH",
"157 531 LINE",
"65 531 LINE",
"65 171 LINE SMOOTH",
"65 126 OFFCURVE",
"72 88 OFFCURVE",
"88 61 CURVE SMOOTH",
"116 11 OFFCURVE",
"168 -14 OFFCURVE",
"242 -14 CURVE SMOOTH"
);
}
);
width = 557;
},
{
layerId = "CBA2E3C4-6E62-469B-BD2C-D62FAD87CF88";
paths = (
{
closed = 1;
nodes = (
"157 -15 OFFCURVE",
"174 -1 OFFCURVE",
"194 32 CURVE SMOOTH",
"202 45 OFFCURVE",
"209 68 OFFCURVE",
"214 86 CURVE",
"214 1 LINE",
"259 1 LINE",
"259 584 LINE",
"213 584 LINE",
"213 297 LINE SMOOTH",
"213 255 OFFCURVE",
"212 208 OFFCURVE",
"201 159 CURVE SMOOTH",
"189 104 OFFCURVE",
"167 73 OFFCURVE",
"136 73 CURVE SMOOTH",
"114 73 OFFCURVE",
"98 88 OFFCURVE",
"89 127 CURVE SMOOTH",
"86 140 OFFCURVE",
"83 171 OFFCURVE",
"83 197 CURVE SMOOTH",
"83 584 LINE",
"35 584 LINE",
"35 188 LINE SMOOTH",
"35 135 OFFCURVE",
"39 97 OFFCURVE",
"47 67 CURVE SMOOTH",
"62 12 OFFCURVE",
"89 -15 OFFCURVE",
"128 -15 CURVE SMOOTH"
);
}
);
width = 294;
}
);
note = u;
unicode = 0075;
},
{
glyphname = v;
lastChange = "2019-03-13 21:31:40 +0000";
layers = (
{
layerId = "994FE389-9D54-4FAA-B055-C46A67020E78";
paths = (
{
closed = 1;
nodes = (
"345 -1 LINE",
"545 531 LINE",
"448 531 LINE",
"299 98 LINE",
"158 531 LINE",
"55 531 LINE",
"250 -1 LINE"
);
}
);
width = 600;
},
{
layerId = "CBA2E3C4-6E62-469B-BD2C-D62FAD87CF88";
paths = (
{
closed = 1;
nodes = (
"182 -1 LINE",
"287 584 LINE",
"236 584 LINE",
"158 108 LINE",
"84 584 LINE",
"30 584 LINE",
"133 -1 LINE"
);
}
);
width = 315;
}
);
note = v;
unicode = 0076;
},
{
glyphname = w;
lastChange = "2019-03-13 21:31:40 +0000";
layers = (
{
layerId = "994FE389-9D54-4FAA-B055-C46A67020E78";
paths = (
{
closed = 1;
nodes = (
"300 0 LINE",
"403 409 LINE",
"512 0 LINE",
"604 0 LINE",
"757 529 LINE",
"669 529 LINE",
"561 116 LINE",
"457 529 LINE",
"356 529 LINE",
"253 113 LINE",
"152 529 LINE",
"55 529 LINE",
"208 0 LINE"
);
}
);
width = 812;
},
{
layerId = "CBA2E3C4-6E62-469B-BD2C-D62FAD87CF88";
paths = (
{
closed = 1;
nodes = (
"157 0 LINE",
"213 450 LINE",
"269 0 LINE",
"317 0 LINE",
"397 582 LINE",
"352 582 LINE",
"295 128 LINE",
"240 582 LINE",
"188 582 LINE",
"134 124 LINE",
"81 582 LINE",
"30 582 LINE",
"110 0 LINE"
);
}
);
width = 425;
}
);
note = w;
unicode = 0077;
},
{
glyphname = x;
lastChange = "2019-03-13 21:31:40 +0000";
layers = (
{
layerId = "994FE389-9D54-4FAA-B055-C46A67020E78";
paths = (
{
closed = 1;
nodes = (
"169 1 LINE",
"296 201 LINE",
"428 1 LINE",
"544 1 LINE",
"356 274 LINE",
"535 531 LINE",
"426 533 LINE",
"303 346 LINE",
"181 533 LINE",
"65 533 LINE",
"243 274 LINE",
"55 1 LINE"
);
}
);
width = 599;
},
{
layerId = "CBA2E3C4-6E62-469B-BD2C-D62FAD87CF88";
paths = (
{
closed = 1;
nodes = (
"90 1 LINE",
"157 221 LINE",
"225 1 LINE",
"286 1 LINE",
"188 301 LINE",
"281 584 LINE",
"225 586 LINE",
"160 381 LINE",
"96 586 LINE",
"35 586 LINE",
"129 301 LINE",
"30 1 LINE"
);
}
);
width = 314;
}
);
note = x;
unicode = 0078;
},
{
glyphname = y;
lastChange = "2019-03-13 21:31:40 +0000";
layers = (
{
layerId = "994FE389-9D54-4FAA-B055-C46A67020E78";
paths = (
{
closed = 1;
nodes = (
"203 -189 OFFCURVE",
"238 -175 OFFCURVE",
"258 -146 CURVE SMOOTH",
"278 -117 OFFCURVE",
"314 -38 OFFCURVE",
"363 92 CURVE SMOOTH",
"364 95 OFFCURVE",
"418 237 OFFCURVE",
"442 306 CURVE SMOOTH",
"453 338 OFFCURVE",
"511 498 OFFCURVE",
"522 531 CURVE",
"427 531 LINE",
"290 116 LINE",
"152 531 LINE",
"55 531 LINE",
"244 6 LINE",
"239 -6 OFFCURVE",
"239 -9 OFFCURVE",
"223 -47 CURVE SMOOTH",
"215 -67 OFFCURVE",
"207 -84 OFFCURVE",
"205 -86 CURVE",
"200 -94 OFFCURVE",
"194 -100 OFFCURVE",
"186 -105 CURVE",
"179 -110 OFFCURVE",
"167 -114 OFFCURVE",
"151 -114 CURVE SMOOTH",
"147 -114 OFFCURVE",
"141 -113 OFFCURVE",
"134 -112 CURVE SMOOTH",
"127 -111 OFFCURVE",
"117 -108 OFFCURVE",
"102 -104 CURVE",
"102 -182 LINE",
"125 -187 LINE",
"132 -188 OFFCURVE",
"142 -189 OFFCURVE",
"153 -189 CURVE SMOOTH"
);
}
);
width = 577;
},
{
layerId = "CBA2E3C4-6E62-469B-BD2C-D62FAD87CF88";
paths = (
{
closed = 1;
nodes = (
"108 -208 OFFCURVE",
"126 -192 OFFCURVE",
"136 -161 CURVE SMOOTH",
"147 -127 OFFCURVE",
"178 16 OFFCURVE",
"192 101 CURVE",
"191 98 OFFCURVE",
"224 280 OFFCURVE",
"233 337 CURVE SMOOTH",
"242 393 OFFCURVE",
"268 544 OFFCURVE",
"275 584 CURVE",
"224 584 LINE",
"154 128 LINE",
"81 584 LINE",
"30 584 LINE",
"128 7 LINE",
"127 -4 OFFCURVE",
"121 -37 OFFCURVE",
"119 -49 CURVE",
"119 -47 OFFCURVE",
"111 -90 OFFCURVE",
"109 -95 CURVE SMOOTH",
"102 -114 OFFCURVE",
"101 -110 OFFCURVE",
"99 -116 CURVE",
"95 -121 OFFCURVE",
"88 -125 OFFCURVE",
"80 -125 CURVE",
"70 -123 LINE",
"67 -122 OFFCURVE",
"63 -119 OFFCURVE",
"55 -114 CURVE",
"55 -200 LINE",
"67 -206 LINE",
"71 -207 OFFCURVE",
"77 -208 OFFCURVE",
"82 -208 CURVE SMOOTH"
);
}
);
width = 305;
}
);
note = y;
unicode = 0079;
},
{
glyphname = z;
lastChange = "2019-03-13 21:31:40 +0000";
layers = (
{
layerId = "994FE389-9D54-4FAA-B055-C46A67020E78";
paths = (
{
closed = 1;
nodes = (
"511 -1 LINE",
"511 79 LINE",
"188 79 LINE",
"502 458 LINE",
"502 531 LINE",
"89 531 LINE",
"89 451 LINE",
"381 451 LINE",
"65 69 LINE",
"65 -1 LINE"
);
}
);
width = 576;
},
{
layerId = "CBA2E3C4-6E62-469B-BD2C-D62FAD87CF88";
paths = (
{
closed = 1;
nodes = (
"268 -1 LINE",
"268 87 LINE",
"99 87 LINE",
"264 504 LINE",
"264 584 LINE",
"48 584 LINE",
"48 496 LINE",
"200 496 LINE",
"35 76 LINE",
"35 -1 LINE"
);
}
);
width = 301;
}
);
note = z;
unicode = 007A;
},
{
glyphname = A_W.liga;
lastChange = "2019-03-13 21:31:40 +0000";
layers = (
{
layerId = "994FE389-9D54-4FAA-B055-C46A67020E78";
paths = (
{
closed = 1;
nodes = (
"854 0 LINE",
"1013 566 LINE",
"1171 0 LINE",
"1268 0 LINE",
"1448 684 LINE",
"1346 684 LINE",
"1217 128 LINE",
"1064 684 LINE",
"962 684 LINE",
"809 128 LINE",
"679 684 LINE",
"579 684 LINE",
"758 0 LINE"
);
},
{
closed = 1;
nodes = (
"164 0 LINE",
"238 203 LINE",
"508 203 LINE",
"577 0 LINE",
"679 0 LINE",
"431 682 LINE",
"326 682 LINE",
"70 0 LINE"
);
},
{
closed = 1;
nodes = (
"376 579 LINE",
"478 278 LINE",
"264 278 LINE"
);
}
);
width = 1518;
},
{
layerId = "CBA2E3C4-6E62-469B-BD2C-D62FAD87CF88";
paths = (
{
closed = 1;
nodes = (
"448 0 LINE",
"531 623 LINE",
"614 0 LINE",
"665 0 LINE",
"759 752 LINE",
"705 752 LINE",
"638 141 LINE",
"558 752 LINE",
"503 752 LINE",
"423 141 LINE",
"355 752 LINE",
"303 752 LINE",
"398 0 LINE"
);
},
{
closed = 1;
nodes = (
"87 0 LINE",
"126 223 LINE",
"267 223 LINE",
"303 0 LINE",
"355 0 LINE",
"226 750 LINE",
"171 750 LINE",
"37 0 LINE"
);
},
{
closed = 1;
nodes = (
"197 637 LINE",
"251 306 LINE",
"139 306 LINE"
);
}
);
width = 796;
}
);
},
{
glyphname = W_A.liga;
lastChange = "2019-03-13 21:31:40 +0000";
layers = (
{
layerId = "994FE389-9D54-4FAA-B055-C46A67020E78";
paths = (
{
closed = 1;
nodes = (
"345 0 LINE",
"504 566 LINE",
"662 0 LINE",
"759 0 LINE",
"939 684 LINE",
"837 684 LINE",
"708 128 LINE",
"555 684 LINE",
"453 684 LINE",
"300 128 LINE",
"170 684 LINE",
"70 684 LINE",
"249 0 LINE"
);
},
{
closed = 1;
nodes = (
"943 0 LINE",
"1016 203 LINE",
"1286 203 LINE",
"1356 0 LINE",
"1457 0 LINE",
"1209 682 LINE",
"1105 682 LINE",
"848 0 LINE"
);
},
{
closed = 1;
nodes = (
"1155 579 LINE",
"1256 278 LINE",
"1043 278 LINE"
);
}
);
width = 1527;
},
{
layerId = "CBA2E3C4-6E62-469B-BD2C-D62FAD87CF88";
paths = (
{
closed = 1;
nodes = (
"180 0 LINE",
"265 623 LINE",
"346 0 LINE",
"397 0 LINE",
"491 752 LINE",
"439 752 LINE",
"372 141 LINE",
"292 752 LINE",
"237 752 LINE",
"157 141 LINE",
"89 752 LINE",
"37 752 LINE",
"130 0 LINE"
);
},
{
closed = 1;
nodes = (
"494 0 LINE",
"532 223 LINE",
"673 223 LINE",
"710 0 LINE",
"763 0 LINE",
"633 750 LINE",
"578 750 LINE",
"445 0 LINE"
);
},
{
closed = 1;
nodes = (
"606 637 LINE",
"658 306 LINE",
"546 306 LINE"
);
}
);
width = 800;
}
);
},
{
glyphname = f_i.liga;
lastChange = "2019-03-13 21:31:40 +0000";
layers = (
{
components = (
{
name = f;
transform = "{1, 0, 0, 1, -10, 0}";
}
);
layerId = "994FE389-9D54-4FAA-B055-C46A67020E78";
paths = (
{
closed = 1;
nodes = (
"440 -1 LINE",
"440 526 LINE",
"350 526 LINE",
"350 -1 LINE"
);
},
{
closed = 1;
nodes = (
"440 626 LINE",
"440 727 LINE",
"350 727 LINE",
"350 626 LINE"
);
}
);
width = 510;
},
{
components = (
{
name = f;
transform = "{1, 0, 0, 1, -5, 0}";
}
);
layerId = "CBA2E3C4-6E62-469B-BD2C-D62FAD87CF88";
paths = (
{
closed = 1;
nodes = (
"230 689 LINE",
"230 800 LINE",
"183 800 LINE",
"183 689 LINE"
);
},
{
closed = 1;
nodes = (
"230 -1 LINE",
"230 579 LINE",
"183 579 LINE",
"183 -1 LINE"
);
}
);
width = 510;
}
);
},
{
glyphname = f_l.liga;
lastChange = "2019-03-13 21:31:40 +0000";
layers = (
{
components = (
{
name = f;
transform = "{1, 0, 0, 1, -10, 0}";
}
);
layerId = "994FE389-9D54-4FAA-B055-C46A67020E78";
paths = (
{
closed = 1;
nodes = (
"437 0 LINE",
"437 722 LINE",
"348 722 LINE",
"348 0 LINE"
);
}
);
width = 507;
},
{
components = (
{
name = f;
transform = "{1, 0, 0, 1, -5, 0}";
}
);
layerId = "CBA2E3C4-6E62-469B-BD2C-D62FAD87CF88";
paths = (
{
closed = 1;
nodes = (
"229 0 LINE",
"229 794 LINE",
"183 794 LINE",
"183 0 LINE"
);
}
);
width = 507;
}
);
},
{
glyphname = "ra_xa-ethiopic.liga";
lastChange = "2019-03-13 21:31:40 +0000";
layers = (
{
components = (
{
name = "ra-ethiopic";
}
);
layerId = "994FE389-9D54-4FAA-B055-C46A67020E78";
paths = (
{
closed = 1;
nodes = (
"800 0 LINE",
"800 439 LINE SMOOTH",
"800 531 OFFCURVE",
"800 531 OFFCURVE",
"697 531 CURVE SMOOTH",
"468 531 LINE",
"468 727 LINE",
"377 727 LINE",
"377 654 LINE",
"246 654 LINE",
"246 571 LINE",
"377 571 LINE",
"377 505 LINE SMOOTH",
"377 477 OFFCURVE",
"394 458 OFFCURVE",
"423 458 CURVE SMOOTH",
"651 458 LINE SMOOTH",
"710 458 OFFCURVE",
"710 458 OFFCURVE",
"710 278 CURVE SMOOTH",
"710 0 LINE"
);
}
);
width = 870;
},
{
components = (
{
name = "ra-ethiopic";
}
);
layerId = "CBA2E3C4-6E62-469B-BD2C-D62FAD87CF88";
paths = (
{
closed = 1;
nodes = (
"418 0 LINE",
"418 483 LINE SMOOTH",
"418 584 OFFCURVE",
"418 584 OFFCURVE",
"365 584 CURVE SMOOTH",
"244 584 LINE",
"244 800 LINE",
"197 800 LINE",
"197 719 LINE",
"128 719 LINE",
"128 628 LINE",
"197 628 LINE",
"197 556 LINE SMOOTH",
"197 525 OFFCURVE",
"206 504 OFFCURVE",
"221 504 CURVE SMOOTH",
"341 504 LINE SMOOTH",
"371 504 OFFCURVE",
"371 504 OFFCURVE",
"371 306 CURVE SMOOTH",
"371 0 LINE"
);
}
);
width = 582;
}
);
note = uni1280;
},
{
glyphname = "ra_xu-ethiopic.liga";
lastChange = "2019-03-13 21:31:40 +0000";
layers = (
{
layerId = "994FE389-9D54-4FAA-B055-C46A67020E78";
paths = (
{
closed = 1;
nodes = (
"755 0 LINE",
"755 246 LINE",
"854 246 LINE",
"854 346 LINE",
"755 346 LINE",
"755 439 LINE SMOOTH",
"755 531 OFFCURVE",
"755 531 OFFCURVE",
"652 531 CURVE SMOOTH",
"422 531 LINE",
"422 727 LINE",
"332 727 LINE",
"332 654 LINE",
"201 654 LINE",
"201 571 LINE",
"332 571 LINE",
"332 505 LINE SMOOTH",
"332 477 OFFCURVE",
"349 458 OFFCURVE",
"378 458 CURVE SMOOTH",
"606 458 LINE SMOOTH",
"664 458 OFFCURVE",
"664 458 OFFCURVE",
"664 278 CURVE SMOOTH",
"664 0 LINE"
);
},
{
closed = 1;
nodes = (
"498 79 LINE",
"249 78 LINE SMOOTH",
"172 78 OFFCURVE",
"156 85 OFFCURVE",
"156 212 CURVE SMOOTH",
"156 312 OFFCURVE",
"159 478 OFFCURVE",
"159 531 CURVE",
"70 531 LINE",
"70 134 LINE SMOOTH",
"70 55 OFFCURVE",
"111 0 OFFCURVE",
"162 0 CURVE SMOOTH",
"497 -1 LINE"
);
}
);
width = 924;
},
{
layerId = "CBA2E3C4-6E62-469B-BD2C-D62FAD87CF88";
paths = (
{
closed = 1;
nodes = (
"396 0 LINE",
"396 271 LINE",
"448 271 LINE",
"448 381 LINE",
"396 381 LINE",
"396 483 LINE SMOOTH",
"396 584 OFFCURVE",
"396 584 OFFCURVE",
"341 584 CURVE SMOOTH",
"221 584 LINE",
"221 800 LINE",
"174 800 LINE",
"174 719 LINE",
"106 719 LINE",
"106 628 LINE",
"174 628 LINE",
"174 556 LINE SMOOTH",
"174 526 OFFCURVE",
"183 504 OFFCURVE",
"199 504 CURVE SMOOTH",
"317 504 LINE SMOOTH",
"348 504 OFFCURVE",
"348 504 OFFCURVE",
"348 306 CURVE SMOOTH",
"348 0 LINE"
);
},
{
closed = 1;
nodes = (
"262 87 LINE",
"130 86 LINE SMOOTH",
"98 86 OFFCURVE",
"82 87 OFFCURVE",
"82 233 CURVE SMOOTH",
"82 343 OFFCURVE",
"83 526 OFFCURVE",
"83 584 CURVE",
"37 584 LINE",
"37 147 LINE SMOOTH",
"37 58 OFFCURVE",
"59 0 OFFCURVE",
"84 0 CURVE SMOOTH",
"261 -1 LINE"
);
}
);
width = 485;
}
);
note = uni1281;
},
{
glyphname = "ra_xi-ethiopic.liga";
lastChange = "2019-03-13 21:31:40 +0000";
layers = (
{
layerId = "994FE389-9D54-4FAA-B055-C46A67020E78";
paths = (
{
closed = 1;
nodes = (
"865 0 LINE",
"865 100 LINE",
"765 100 LINE",
"765 439 LINE SMOOTH",
"765 531 OFFCURVE",
"765 531 OFFCURVE",
"661 531 CURVE SMOOTH",
"432 531 LINE",
"432 727 LINE",
"341 727 LINE",
"341 654 LINE",
"210 654 LINE",
"210 571 LINE",
"341 571 LINE",
"341 505 LINE SMOOTH",
"341 477 OFFCURVE",
"358 458 OFFCURVE",
"387 458 CURVE SMOOTH",
"616 458 LINE SMOOTH",
"674 458 OFFCURVE",
"674 458 OFFCURVE",
"674 278 CURVE SMOOTH",
"674 0 LINE"
);
},
{
closed = 1;
nodes = (
"498 79 LINE",
"249 78 LINE SMOOTH",
"173 78 OFFCURVE",
"156 85 OFFCURVE",
"156 212 CURVE SMOOTH",
"156 312 OFFCURVE",
"159 478 OFFCURVE",
"159 531 CURVE",
"70 531 LINE",
"70 134 LINE SMOOTH",
"70 55 OFFCURVE",
"111 0 OFFCURVE",
"163 0 CURVE SMOOTH",
"497 -1 LINE"
);
}
);
width = 935;
},
{
layerId = "CBA2E3C4-6E62-469B-BD2C-D62FAD87CF88";
paths = (
{
closed = 1;
nodes = (
"454 0 LINE",
"454 110 LINE",
"402 110 LINE",
"402 483 LINE SMOOTH",
"402 584 OFFCURVE",
"402 584 OFFCURVE",
"347 584 CURVE SMOOTH",
"226 584 LINE",
"226 800 LINE",
"179 800 LINE",
"179 719 LINE",
"110 719 LINE",
"110 628 LINE",
"179 628 LINE",
"179 556 LINE SMOOTH",
"179 526 OFFCURVE",
"188 504 OFFCURVE",
"203 504 CURVE SMOOTH",
"323 504 LINE SMOOTH",
"354 504 OFFCURVE",
"354 504 OFFCURVE",
"354 306 CURVE SMOOTH",
"354 0 LINE"
);
},
{
closed = 1;
nodes = (
"262 87 LINE",
"130 86 LINE SMOOTH",
"97 86 OFFCURVE",
"82 87 OFFCURVE",
"82 233 CURVE SMOOTH",
"82 343 OFFCURVE",
"83 526 OFFCURVE",
"83 584 CURVE",
"37 584 LINE",
"37 147 LINE SMOOTH",
"37 58 OFFCURVE",
"59 0 OFFCURVE",
"85 0 CURVE SMOOTH",
"261 -1 LINE"
);
}
);
width = 491;
}
);
note = uni1282;
},
{
glyphname = "ra_xee-ethiopic.liga";
lastChange = "2019-03-13 21:31:40 +0000";
layers = (
{
layerId = "994FE389-9D54-4FAA-B055-C46A67020E78";
paths = (
{
closed = 1;
nodes = (
"851 0 LINE SMOOTH",
"897 0 OFFCURVE",
"929 16 OFFCURVE",
"947 46 CURVE SMOOTH",
"957 63 OFFCURVE",
"962 82 OFFCURVE",
"962 103 CURVE SMOOTH",
"962 131 OFFCURVE",
"954 155 OFFCURVE",
"935 170 CURVE SMOOTH",
"913 188 OFFCURVE",
"889 200 OFFCURVE",
"852 200 CURVE SMOOTH",
"841 200 LINE",
"841 439 LINE SMOOTH",
"841 531 OFFCURVE",
"841 531 OFFCURVE",
"738 531 CURVE SMOOTH",
"509 531 LINE",
"509 727 LINE",
"418 727 LINE",
"418 654 LINE",
"287 654 LINE",
"287 571 LINE",
"418 571 LINE",
"418 505 LINE SMOOTH",
"418 477 OFFCURVE",
"435 458 OFFCURVE",
"464 458 CURVE SMOOTH",
"692 458 LINE SMOOTH",
"750 458 OFFCURVE",
"750 458 OFFCURVE",
"750 278 CURVE SMOOTH",
"750 0 LINE"
);
},
{
closed = 1;
nodes = (
"498 79 LINE",
"249 78 LINE SMOOTH",
"172 78 OFFCURVE",
"156 85 OFFCURVE",
"156 212 CURVE SMOOTH",
"156 312 OFFCURVE",
"159 478 OFFCURVE",
"159 531 CURVE",
"70 531 LINE",
"70 134 LINE SMOOTH",
"70 55 OFFCURVE",
"110 0 OFFCURVE",
"162 0 CURVE SMOOTH",
"497 -1 LINE"
);
},
{
closed = 1;
nodes = (
"841 176 LINE",
"859 173 OFFCURVE",
"873 167 OFFCURVE",
"883 157 CURVE SMOOTH",
"896 144 OFFCURVE",
"901 124 OFFCURVE",
"901 99 CURVE SMOOTH",
"901 92 OFFCURVE",
"900 86 OFFCURVE",
"899 78 CURVE",
"895 65 OFFCURVE",
"890 55 OFFCURVE",
"884 46 CURVE",
"876 36 OFFCURVE",
"864 29 OFFCURVE",
"850 26 CURVE",
"847 25 OFFCURVE",
"844 25 OFFCURVE",
"841 24 CURVE"
);
}
);
width = 1032;
},
{
layerId = "CBA2E3C4-6E62-469B-BD2C-D62FAD87CF88";
paths = (
{
closed = 1;
nodes = (
"446 0 LINE SMOOTH",
"470 0 OFFCURVE",
"486 17 OFFCURVE",
"496 50 CURVE SMOOTH",
"502 70 OFFCURVE",
"503 95 OFFCURVE",
"503 113 CURVE SMOOTH",
"503 143 OFFCURVE",
"502 166 OFFCURVE",
"489 187 CURVE SMOOTH",
"475 209 OFFCURVE",
"467 220 OFFCURVE",
"446 220 CURVE SMOOTH",
"441 220 LINE",
"441 483 LINE SMOOTH",
"441 584 OFFCURVE",
"441 584 OFFCURVE",
"387 584 CURVE SMOOTH",
"266 584 LINE",
"266 800 LINE",
"220 800 LINE",
"220 719 LINE",
"151 719 LINE",
"151 628 LINE",
"220 628 LINE",
"220 556 LINE SMOOTH",
"220 525 OFFCURVE",
"229 504 OFFCURVE",
"244 504 CURVE SMOOTH",
"362 504 LINE SMOOTH",
"393 504 OFFCURVE",
"393 504 OFFCURVE",
"393 306 CURVE SMOOTH",
"393 0 LINE"
);
},
{
closed = 1;
nodes = (
"262 87 LINE",
"130 86 LINE SMOOTH",
"98 86 OFFCURVE",
"82 87 OFFCURVE",
"82 233 CURVE SMOOTH",
"82 343 OFFCURVE",
"83 526 OFFCURVE",
"83 584 CURVE",
"37 584 LINE",
"37 147 LINE SMOOTH",
"37 60 OFFCURVE",
"58 0 OFFCURVE",
"84 0 CURVE SMOOTH",
"261 -1 LINE"
);
},
{
closed = 1;
nodes = (
"441 194 LINE",
"448 191 OFFCURVE",
"456 186 OFFCURVE",
"463 172 CURVE",
"468 161 OFFCURVE",
"473 143 OFFCURVE",
"473 109 CURVE SMOOTH",
"473 101 OFFCURVE",
"472 95 OFFCURVE",
"471 86 CURVE",
"471 86 OFFCURVE",
"466 56 OFFCURVE",
"463 51 CURVE",
"462 49 OFFCURVE",
"457 32 OFFCURVE",
"445 29 CURVE",
"444 28 OFFCURVE",
"443 28 OFFCURVE",
"441 26 CURVE"
);
}
);
width = 540;
}
);
note = uni1284;
},
{
glyphname = "ra_xe-ethiopic.liga";
lastChange = "2019-03-13 21:31:40 +0000";
layers = (
{
layerId = "994FE389-9D54-4FAA-B055-C46A67020E78";
paths = (
{
closed = 1;
nodes = (
"822 0 LINE",
"822 439 LINE SMOOTH",
"822 531 OFFCURVE",
"822 531 OFFCURVE",
"719 531 CURVE SMOOTH",
"490 531 LINE",
"490 727 LINE",
"399 727 LINE",
"399 638 LINE",
"272 638 LINE",
"272 635 LINE",
"269 635 LINE",
"269 482 LINE",
"334 482 LINE",
"334 568 LINE SMOOTH",
"334 581 OFFCURVE",
"345 591 OFFCURVE",
"358 591 CURVE SMOOTH",
"399 591 LINE",
"399 458 LINE",
"673 458 LINE SMOOTH",
"731 458 OFFCURVE",
"731 458 OFFCURVE",
"731 278 CURVE SMOOTH",
"731 0 LINE"
);
},
{
closed = 1;
nodes = (
"498 79 LINE",
"249 78 LINE SMOOTH",
"172 78 OFFCURVE",
"156 85 OFFCURVE",
"156 212 CURVE SMOOTH",
"156 312 OFFCURVE",
"159 478 OFFCURVE",
"159 531 CURVE",
"70 531 LINE",
"70 134 LINE SMOOTH",
"70 55 OFFCURVE",
"111 0 OFFCURVE",
"162 0 CURVE SMOOTH",
"497 -1 LINE"
);
}
);
width = 892;
},
{
layerId = "CBA2E3C4-6E62-469B-BD2C-D62FAD87CF88";
paths = (
{
closed = 1;
nodes = (
"430 0 LINE",
"430 483 LINE SMOOTH",
"430 584 OFFCURVE",
"430 584 OFFCURVE",
"376 584 CURVE SMOOTH",
"257 584 LINE",
"257 800 LINE",
"209 800 LINE",
"209 702 LINE",
"142 702 LINE",
"142 699 LINE",
"141 699 LINE",
"141 530 LINE",
"176 530 LINE",
"176 625 LINE SMOOTH",
"176 639 OFFCURVE",
"182 650 OFFCURVE",
"188 650 CURVE SMOOTH",
"209 650 LINE",
"209 504 LINE",
"353 504 LINE SMOOTH",
"384 504 OFFCURVE",
"384 504 OFFCURVE",
"384 306 CURVE SMOOTH",
"384 0 LINE"
);
},
{
closed = 1;
nodes = (
"262 87 LINE",
"130 86 LINE SMOOTH",
"98 86 OFFCURVE",
"82 87 OFFCURVE",
"82 233 CURVE SMOOTH",
"82 343 OFFCURVE",
"83 526 OFFCURVE",
"83 584 CURVE",
"37 584 LINE",
"37 147 LINE SMOOTH",
"37 58 OFFCURVE",
"59 0 OFFCURVE",
"84 0 CURVE SMOOTH",
"261 -1 LINE"
);
}
);
width = 467;
}
);
note = uni1285;
},
{
glyphname = "ra_xwa-ethiopic.liga";
lastChange = "2019-03-13 21:31:40 +0000";
layers = (
{
layerId = "994FE389-9D54-4FAA-B055-C46A67020E78";
paths = (
{
closed = 1;
nodes = (
"731 0 LINE",
"731 215 LINE",
"749 215 LINE SMOOTH",
"794 215 OFFCURVE",
"826 228 OFFCURVE",
"844 253 CURVE SMOOTH",
"854 266 OFFCURVE",
"860 283 OFFCURVE",
"860 300 CURVE SMOOTH",
"860 323 OFFCURVE",
"851 343 OFFCURVE",
"832 356 CURVE SMOOTH",
"810 371 OFFCURVE",
"786 380 OFFCURVE",
"750 380 CURVE SMOOTH",
"731 380 LINE",
"731 439 LINE SMOOTH",
"731 531 OFFCURVE",
"731 531 OFFCURVE",
"628 531 CURVE SMOOTH",
"517 531 LINE",
"517 727 LINE",
"426 727 LINE",
"426 605 LINE",
"344 605 LINE",
"344 531 LINE",
"426 531 LINE",
"426 458 LINE",
"582 458 LINE SMOOTH",
"640 458 OFFCURVE",
"640 458 OFFCURVE",
"640 278 CURVE SMOOTH",
"640 0 LINE"
);
},
{
closed = 1;
nodes = (
"498 79 LINE",
"249 78 LINE SMOOTH",
"172 78 OFFCURVE",
"156 85 OFFCURVE",
"156 212 CURVE SMOOTH",
"156 312 OFFCURVE",
"159 478 OFFCURVE",
"159 531 CURVE",
"70 531 LINE",
"70 134 LINE SMOOTH",
"70 55 OFFCURVE",
"110 0 OFFCURVE",
"162 0 CURVE SMOOTH",
"497 -1 LINE"
);
},
{
closed = 1;
nodes = (
"731 361 LINE",
"753 360 OFFCURVE",
"770 354 OFFCURVE",
"780 345 CURVE SMOOTH",
"793 334 OFFCURVE",
"799 316 OFFCURVE",
"799 296 CURVE SMOOTH",
"799 291 OFFCURVE",
"798 286 OFFCURVE",
"796 279 CURVE",
"792 268 OFFCURVE",
"788 260 OFFCURVE",
"781 253 CURVE",
"773 244 OFFCURVE",
"761 239 OFFCURVE",
"747 236 CURVE SMOOTH",
"742 235 OFFCURVE",
"737 234 OFFCURVE",
"731 234 CURVE"
);
}
);
width = 930;
},
{
layerId = "CBA2E3C4-6E62-469B-BD2C-D62FAD87CF88";
paths = (
{
closed = 1;
nodes = (
"384 0 LINE",
"384 237 LINE",
"392 237 LINE SMOOTH",
"414 237 OFFCURVE",
"432 249 OFFCURVE",
"442 277 CURVE SMOOTH",
"448 293 OFFCURVE",
"451 315 OFFCURVE",
"451 330 CURVE SMOOTH",
"451 352 OFFCURVE",
"445 380 OFFCURVE",
"437 391 CURVE SMOOTH",
"425 408 OFFCURVE",
"410 418 OFFCURVE",
"393 418 CURVE SMOOTH",
"384 418 LINE",
"384 483 LINE SMOOTH",
"384 584 OFFCURVE",
"384 584 OFFCURVE",
"330 584 CURVE SMOOTH",
"271 584 LINE",
"271 800 LINE",
"223 800 LINE",
"223 666 LINE",
"181 666 LINE",
"181 584 LINE",
"223 584 LINE",
"223 504 LINE",
"304 504 LINE SMOOTH",
"335 504 OFFCURVE",
"335 504 OFFCURVE",
"335 306 CURVE SMOOTH",
"335 0 LINE"
);
},
{
closed = 1;
nodes = (
"262 87 LINE",
"130 86 LINE SMOOTH",
"98 86 OFFCURVE",
"82 87 OFFCURVE",
"82 233 CURVE SMOOTH",
"82 343 OFFCURVE",
"83 526 OFFCURVE",
"83 584 CURVE",
"37 584 LINE",
"37 147 LINE SMOOTH",
"37 60 OFFCURVE",
"58 0 OFFCURVE",
"84 0 CURVE SMOOTH",
"261 -1 LINE"
);
},
{
closed = 1;
nodes = (
"384 397 LINE",
"396 396 OFFCURVE",
"403 391 OFFCURVE",
"409 379 CURVE SMOOTH",
"416 365 OFFCURVE",
"418 348 OFFCURVE",
"418 326 CURVE SMOOTH",
"418 321 OFFCURVE",
"419 315 OFFCURVE",
"417 307 CURVE",
"414 285 OFFCURVE",
"413 289 OFFCURVE",
"410 278 CURVE",
"407 271 OFFCURVE",
"399 263 OFFCURVE",
"392 260 CURVE",
"390 259 OFFCURVE",
"385 257 OFFCURVE",
"384 257 CURVE"
);
}
);
width = 488;
}
);
},
{
glyphname = "ra_xwi-ethiopic.liga";
lastChange = "2019-03-13 21:31:40 +0000";
layers = (
{
layerId = "994FE389-9D54-4FAA-B055-C46A67020E78";
paths = (
{
closed = 1;
nodes = (
"730 0 LINE",
"730 273 LINE",
"771 273 LINE",
"771 229 LINE",
"932 229 LINE",
"932 276 LINE",
"820 276 LINE",
"820 391 LINE",
"778 391 LINE",
"778 323 LINE",
"730 323 LINE",
"730 439 LINE SMOOTH",
"730 531 OFFCURVE",
"730 531 OFFCURVE",
"626 531 CURVE SMOOTH",
"515 531 LINE",
"515 727 LINE",
"424 727 LINE",
"424 605 LINE",
"342 605 LINE",
"342 531 LINE",
"424 531 LINE",
"424 458 LINE",
"580 458 LINE SMOOTH",
"639 458 OFFCURVE",
"639 458 OFFCURVE",
"639 278 CURVE SMOOTH",
"639 0 LINE"
);
},
{
closed = 1;
nodes = (
"498 79 LINE",
"249 78 LINE SMOOTH",
"172 78 OFFCURVE",
"156 85 OFFCURVE",
"156 212 CURVE SMOOTH",
"156 312 OFFCURVE",
"159 478 OFFCURVE",
"159 531 CURVE",
"70 531 LINE",
"70 134 LINE SMOOTH",
"70 55 OFFCURVE",
"110 0 OFFCURVE",
"162 0 CURVE SMOOTH",
"497 -1 LINE"
);
}
);
width = 1002;
},
{
layerId = "CBA2E3C4-6E62-469B-BD2C-D62FAD87CF88";
paths = (
{
closed = 1;
nodes = (
"383 0 LINE",
"383 300 LINE",
"404 300 LINE",
"404 252 LINE",
"488 252 LINE",
"488 304 LINE",
"430 304 LINE",
"430 430 LINE",
"408 430 LINE",
"408 355 LINE",
"383 355 LINE",
"383 483 LINE SMOOTH",
"383 584 OFFCURVE",
"383 584 OFFCURVE",
"328 584 CURVE SMOOTH",
"271 584 LINE",
"271 800 LINE",
"223 800 LINE",
"223 666 LINE",
"179 666 LINE",
"179 584 LINE",
"223 584 LINE",
"223 504 LINE",
"304 504 LINE SMOOTH",
"334 504 OFFCURVE",
"334 504 OFFCURVE",
"334 306 CURVE SMOOTH",
"334 0 LINE"
);
},
{
closed = 1;
nodes = (
"262 87 LINE",
"130 86 LINE SMOOTH",
"98 86 OFFCURVE",
"82 87 OFFCURVE",
"82 233 CURVE SMOOTH",
"82 343 OFFCURVE",
"83 526 OFFCURVE",
"83 584 CURVE",
"37 584 LINE",
"37 147 LINE SMOOTH",
"37 60 OFFCURVE",
"58 0 OFFCURVE",
"84 0 CURVE SMOOTH",
"261 -1 LINE"
);
}
);
width = 525;
}
);
},
{
glyphname = "ra_xwaa-ethiopic.liga";
lastChange = "2019-03-13 21:31:40 +0000";
layers = (
{
layerId = "994FE389-9D54-4FAA-B055-C46A67020E78";
paths = (
{
closed = 1;
nodes = (
"988 -182 LINE",
"988 0 LINE",
"843 0 LINE",
"843 439 LINE SMOOTH",
"843 531 OFFCURVE",
"843 531 OFFCURVE",
"739 531 CURVE SMOOTH",
"510 531 LINE",
"510 727 LINE",
"419 727 LINE",
"419 649 LINE",
"302 649 LINE",
"302 555 LINE",
"419 555 LINE",
"419 505 LINE SMOOTH",
"419 477 OFFCURVE",
"437 458 OFFCURVE",
"466 458 CURVE SMOOTH",
"694 458 LINE SMOOTH",
"752 458 OFFCURVE",
"752 458 OFFCURVE",
"752 278 CURVE SMOOTH",
"752 0 LINE",
"631 0 LINE",
"631 -56 LINE",
"891 -56 LINE",
"891 -182 LINE"
);
},
{
closed = 1;
nodes = (
"498 79 LINE",
"249 78 LINE SMOOTH",
"173 78 OFFCURVE",
"157 85 OFFCURVE",
"157 212 CURVE SMOOTH",
"157 312 OFFCURVE",
"159 478 OFFCURVE",
"159 531 CURVE",
"70 531 LINE",
"70 134 LINE SMOOTH",
"70 55 OFFCURVE",
"111 0 OFFCURVE",
"163 0 CURVE SMOOTH",
"498 -1 LINE"
);
}
);
width = 1058;
},
{
layerId = "CBA2E3C4-6E62-469B-BD2C-D62FAD87CF88";
paths = (
{
closed = 1;
nodes = (
"518 -200 LINE",
"518 0 LINE",
"442 0 LINE",
"442 483 LINE SMOOTH",
"442 584 OFFCURVE",
"442 584 OFFCURVE",
"387 584 CURVE SMOOTH",
"267 584 LINE",
"267 800 LINE",
"219 800 LINE",
"219 714 LINE",
"158 714 LINE",
"158 611 LINE",
"219 611 LINE",
"219 556 LINE SMOOTH",
"219 526 OFFCURVE",
"229 504 OFFCURVE",
"244 504 CURVE SMOOTH",
"364 504 LINE SMOOTH",
"393 504 OFFCURVE",
"393 504 OFFCURVE",
"393 306 CURVE SMOOTH",
"393 0 LINE",
"331 0 LINE",
"331 -62 LINE",
"467 -62 LINE",
"467 -200 LINE"
);
},
{
closed = 1;
nodes = (
"262 87 LINE",
"130 86 LINE SMOOTH",
"91 86 OFFCURVE",
"83 93 OFFCURVE",
"83 233 CURVE SMOOTH",
"83 584 LINE",
"37 584 LINE",
"37 147 LINE SMOOTH",
"37 58 OFFCURVE",
"59 0 OFFCURVE",
"85 0 CURVE SMOOTH",
"262 -1 LINE"
);
}
);
width = 555;
}
);
},
{
glyphname = "ra_xwee-ethiopic.liga";
lastChange = "2019-03-13 21:31:40 +0000";
layers = (
{
layerId = "994FE389-9D54-4FAA-B055-C46A67020E78";
paths = (
{
closed = 1;
nodes = (
"937 -1 LINE",
"937 6 LINE",
"945 3 OFFCURVE",
"954 0 OFFCURVE",
"963 0 CURVE SMOOTH",
"1017 0 OFFCURVE",
"1060 45 OFFCURVE",
"1060 96 CURVE SMOOTH",
"1060 151 OFFCURVE",
"1018 196 OFFCURVE",
"963 196 CURVE SMOOTH",
"954 196 OFFCURVE",
"945 195 OFFCURVE",
"937 192 CURVE",
"937 439 LINE SMOOTH",
"937 531 OFFCURVE",
"937 531 OFFCURVE",
"834 531 CURVE SMOOTH",
"605 531 LINE",
"605 727 LINE",
"514 727 LINE",
"514 649 LINE",
"396 649 LINE",
"396 555 LINE",
"514 555 LINE",
"514 505 LINE SMOOTH",
"514 477 OFFCURVE",
"531 458 OFFCURVE",
"560 458 CURVE SMOOTH",
"788 458 LINE SMOOTH",
"846 458 OFFCURVE",
"846 458 OFFCURVE",
"846 278 CURVE SMOOTH",
"846 56 LINE",
"695 56 LINE",
"695 -1 LINE"
);
},
{
closed = 1;
nodes = (
"498 79 LINE",
"249 78 LINE SMOOTH",
"173 78 OFFCURVE",
"156 85 OFFCURVE",
"156 212 CURVE SMOOTH",
"156 312 OFFCURVE",
"159 478 OFFCURVE",
"159 531 CURVE",
"70 531 LINE",
"70 134 LINE SMOOTH",
"70 55 OFFCURVE",
"111 0 OFFCURVE",
"163 0 CURVE SMOOTH",
"497 -1 LINE"
);
},
{
closed = 1;
nodes = (
"953 54 OFFCURVE",
"945 56 OFFCURVE",
"937 62 CURVE",
"937 134 LINE",
"945 139 OFFCURVE",
"953 142 OFFCURVE",
"963 142 CURVE SMOOTH",
"987 142 OFFCURVE",
"1007 122 OFFCURVE",
"1007 99 CURVE SMOOTH",
"1007 73 OFFCURVE",
"987 54 OFFCURVE",
"963 54 CURVE SMOOTH"
);
}
);
width = 1130;
},
{
layerId = "CBA2E3C4-6E62-469B-BD2C-D62FAD87CF88";
paths = (
{
closed = 1;
nodes = (
"500 216 OFFCURVE",
"495 214 OFFCURVE",
"491 211 CURVE",
"491 483 LINE SMOOTH",
"491 584 OFFCURVE",
"491 584 OFFCURVE",
"437 584 CURVE SMOOTH",
"318 584 LINE",
"318 800 LINE",
"270 800 LINE",
"270 714 LINE",
"207 714 LINE",
"207 611 LINE",
"270 611 LINE",
"270 556 LINE SMOOTH",
"270 525 OFFCURVE",
"279 504 OFFCURVE",
"294 504 CURVE SMOOTH",
"414 504 LINE SMOOTH",
"443 504 OFFCURVE",
"443 504 OFFCURVE",
"443 306 CURVE SMOOTH",
"443 62 LINE",
"365 62 LINE",
"365 -1 LINE",
"491 -1 LINE",
"491 7 LINE",
"492 5 OFFCURVE",
"499 0 OFFCURVE",
"504 0 CURVE SMOOTH",
"533 0 OFFCURVE",
"555 52 OFFCURVE",
"555 106 CURVE SMOOTH",
"555 166 OFFCURVE",
"532 216 OFFCURVE",
"504 216 CURVE SMOOTH"
);
},
{
closed = 1;
nodes = (
"82 343 OFFCURVE",
"83 526 OFFCURVE",
"83 584 CURVE",
"37 584 LINE",
"37 147 LINE SMOOTH",
"37 58 OFFCURVE",
"59 0 OFFCURVE",
"85 0 CURVE SMOOTH",
"261 -1 LINE",
"262 87 LINE",
"130 86 LINE SMOOTH",
"97 86 OFFCURVE",
"82 87 OFFCURVE",
"82 233 CURVE SMOOTH"
);
},
{
closed = 1;
nodes = (
"500 59 OFFCURVE",
"494 62 OFFCURVE",
"491 68 CURVE",
"491 147 LINE",
"494 153 OFFCURVE",
"502 156 OFFCURVE",
"504 156 CURVE SMOOTH",
"517 156 OFFCURVE",
"528 132 OFFCURVE",
"528 109 CURVE SMOOTH",
"528 82 OFFCURVE",
"517 59 OFFCURVE",
"504 59 CURVE SMOOTH"
);
}
);
width = 592;
}
);
},
{
glyphname = "ra_xwe-ethiopic.liga";
lastChange = "2019-03-13 21:31:40 +0000";
layers = (
{
layerId = "994FE389-9D54-4FAA-B055-C46A67020E78";
paths = (
{
closed = 1;
nodes = (
"1038 -182 LINE",
"1038 0 LINE",
"892 0 LINE",
"892 273 LINE",
"969 273 LINE",
"969 229 LINE",
"1130 229 LINE",
"1130 276 LINE",
"1018 276 LINE",
"1018 391 LINE",
"976 391 LINE",
"976 323 LINE",
"892 323 LINE",
"892 439 LINE SMOOTH",
"892 531 OFFCURVE",
"892 531 OFFCURVE",
"789 531 CURVE SMOOTH",
"559 531 LINE",
"559 727 LINE",
"469 727 LINE",
"469 649 LINE",
"351 649 LINE",
"351 555 LINE",
"469 555 LINE",
"469 505 LINE SMOOTH",
"469 477 OFFCURVE",
"486 458 OFFCURVE",
"515 458 CURVE SMOOTH",
"743 458 LINE SMOOTH",
"801 458 OFFCURVE",
"801 458 OFFCURVE",
"801 278 CURVE SMOOTH",
"801 0 LINE",
"680 0 LINE",
"680 -56 LINE",
"940 -56 LINE",
"940 -182 LINE"
);
},
{
closed = 1;
nodes = (
"499 79 LINE",
"249 78 LINE SMOOTH",
"173 78 OFFCURVE",
"157 85 OFFCURVE",
"157 212 CURVE SMOOTH",
"157 312 OFFCURVE",
"159 478 OFFCURVE",
"159 531 CURVE",
"70 531 LINE",
"70 134 LINE SMOOTH",
"70 55 OFFCURVE",
"111 0 OFFCURVE",
"163 0 CURVE SMOOTH",
"498 -1 LINE"
);
}
);
width = 1200;
},
{
layerId = "CBA2E3C4-6E62-469B-BD2C-D62FAD87CF88";
paths = (
{
closed = 1;
nodes = (
"544 -200 LINE",
"544 0 LINE",
"467 0 LINE",
"467 300 LINE",
"507 300 LINE",
"507 252 LINE",
"592 252 LINE",
"592 304 LINE",
"534 304 LINE",
"534 430 LINE",
"511 430 LINE",
"511 355 LINE",
"467 355 LINE",
"467 483 LINE SMOOTH",
"467 584 OFFCURVE",
"467 584 OFFCURVE",
"413 584 CURVE SMOOTH",
"293 584 LINE",
"293 800 LINE",
"245 800 LINE",
"245 714 LINE",
"185 714 LINE",
"185 611 LINE",
"245 611 LINE",
"245 556 LINE SMOOTH",
"245 528 OFFCURVE",
"254 504 OFFCURVE",
"271 504 CURVE SMOOTH",
"389 504 LINE SMOOTH",
"420 504 OFFCURVE",
"420 504 OFFCURVE",
"420 306 CURVE SMOOTH",
"420 0 LINE",
"356 0 LINE",
"356 -62 LINE",
"492 -62 LINE",
"492 -200 LINE"
);
},
{
closed = 1;
nodes = (
"261 87 LINE",
"130 86 LINE SMOOTH",
"91 86 OFFCURVE",
"83 93 OFFCURVE",
"83 233 CURVE SMOOTH",
"83 584 LINE",
"37 584 LINE",
"37 147 LINE SMOOTH",
"37 58 OFFCURVE",
"59 0 OFFCURVE",
"85 0 CURVE SMOOTH",
"262 -1 LINE"
);
}
);
width = 629;
}
);
},
{
glyphname = "ra_na-ethiopic.liga";
lastChange = "2019-03-13 21:31:40 +0000";
layers = (
{
layerId = "994FE389-9D54-4FAA-B055-C46A67020E78";
paths = (
{
closed = 1;
nodes = (
"720 0 LINE",
"720 439 LINE SMOOTH",
"720 531 OFFCURVE",
"720 531 OFFCURVE",
"617 531 CURVE SMOOTH",
"388 531 LINE",
"388 727 LINE",
"297 727 LINE",
"297 505 LINE SMOOTH",
"297 477 OFFCURVE",
"314 458 OFFCURVE",
"343 458 CURVE SMOOTH",
"571 458 LINE SMOOTH",
"630 458 OFFCURVE",
"630 458 OFFCURVE",
"630 278 CURVE SMOOTH",
"630 0 LINE"
);
},
{
closed = 1;
nodes = (
"498 79 LINE",
"249 78 LINE SMOOTH",
"172 78 OFFCURVE",
"156 85 OFFCURVE",
"156 212 CURVE SMOOTH",
"156 312 OFFCURVE",
"159 478 OFFCURVE",
"159 531 CURVE",
"70 531 LINE",
"70 134 LINE SMOOTH",
"70 55 OFFCURVE",
"110 0 OFFCURVE",
"162 0 CURVE SMOOTH",
"497 -1 LINE"
);
}
);
width = 790;
},
{
layerId = "CBA2E3C4-6E62-469B-BD2C-D62FAD87CF88";
paths = (
{
closed = 1;
nodes = (
"377 0 LINE",
"377 483 LINE SMOOTH",
"377 584 OFFCURVE",
"377 584 OFFCURVE",
"324 584 CURVE SMOOTH",
"204 584 LINE",
"204 800 LINE",
"156 800 LINE",
"156 556 LINE SMOOTH",
"156 525 OFFCURVE",
"165 504 OFFCURVE",
"180 504 CURVE SMOOTH",
"300 504 LINE SMOOTH",
"330 504 OFFCURVE",
"330 504 OFFCURVE",
"330 306 CURVE SMOOTH",
"330 0 LINE"
);
},
{
closed = 1;
nodes = (
"262 87 LINE",
"130 86 LINE SMOOTH",
"98 86 OFFCURVE",
"82 87 OFFCURVE",
"82 233 CURVE SMOOTH",
"82 343 OFFCURVE",
"83 526 OFFCURVE",
"83 584 CURVE",
"37 584 LINE",
"37 147 LINE SMOOTH",
"37 60 OFFCURVE",
"58 0 OFFCURVE",
"84 0 CURVE SMOOTH",
"261 -1 LINE"
);
}
);
width = 414;
}
);
},
{
glyphname = "ra_nu-ethiopic.liga";
lastChange = "2019-03-13 21:31:40 +0000";
layers = (
{
layerId = "994FE389-9D54-4FAA-B055-C46A67020E78";
paths = (
{
closed = 1;
nodes = (
"721 0 LINE",
"721 244 LINE",
"825 244 LINE",
"825 348 LINE",
"721 348 LINE",
"721 439 LINE SMOOTH",
"721 531 OFFCURVE",
"721 531 OFFCURVE",
"617 531 CURVE SMOOTH",
"388 531 LINE",
"388 727 LINE",
"297 727 LINE",
"297 505 LINE SMOOTH",
"297 477 OFFCURVE",
"314 458 OFFCURVE",
"343 458 CURVE SMOOTH",
"571 458 LINE SMOOTH",
"630 458 OFFCURVE",
"630 458 OFFCURVE",
"630 278 CURVE SMOOTH",
"630 0 LINE"
);
},
{
closed = 1;
nodes = (
"498 79 LINE",
"249 78 LINE SMOOTH",
"172 78 OFFCURVE",
"156 85 OFFCURVE",
"156 212 CURVE SMOOTH",
"156 312 OFFCURVE",
"159 478 OFFCURVE",
"159 531 CURVE",
"70 531 LINE",
"70 134 LINE SMOOTH",
"70 55 OFFCURVE",
"111 0 OFFCURVE",
"162 0 CURVE SMOOTH",
"497 -1 LINE"
);
}
);
width = 895;
},
{
layerId = "CBA2E3C4-6E62-469B-BD2C-D62FAD87CF88";
paths = (
{
closed = 1;
nodes = (
"378 0 LINE",
"378 268 LINE",
"433 268 LINE",
"433 383 LINE",
"378 383 LINE",
"378 483 LINE SMOOTH",
"378 584 OFFCURVE",
"378 584 OFFCURVE",
"324 584 CURVE SMOOTH",
"204 584 LINE",
"204 800 LINE",
"156 800 LINE",
"156 556 LINE SMOOTH",
"156 525 OFFCURVE",
"165 504 OFFCURVE",
"180 504 CURVE SMOOTH",
"300 504 LINE SMOOTH",
"330 504 OFFCURVE",
"330 504 OFFCURVE",
"330 306 CURVE SMOOTH",
"330 0 LINE"
);
},
{
closed = 1;
nodes = (
"262 87 LINE",
"130 86 LINE SMOOTH",
"98 86 OFFCURVE",
"82 87 OFFCURVE",
"82 233 CURVE SMOOTH",
"82 343 OFFCURVE",
"83 526 OFFCURVE",
"83 584 CURVE",
"37 584 LINE",
"37 147 LINE SMOOTH",
"37 58 OFFCURVE",
"59 0 OFFCURVE",
"84 0 CURVE SMOOTH",
"261 -1 LINE"
);
}
);
width = 470;
}
);
},
{
glyphname = "ra_ni-ethiopic.liga";
lastChange = "2019-03-13 21:31:40 +0000";
layers = (
{
layerId = "994FE389-9D54-4FAA-B055-C46A67020E78";
paths = (
{
closed = 1;
nodes = (
"884 0 LINE",
"884 86 LINE",
"763 86 LINE",
"763 439 LINE SMOOTH",
"763 531 OFFCURVE",
"763 531 OFFCURVE",
"659 531 CURVE SMOOTH",
"430 531 LINE",
"430 727 LINE",
"339 727 LINE",
"339 505 LINE SMOOTH",
"339 477 OFFCURVE",
"356 458 OFFCURVE",
"386 458 CURVE SMOOTH",
"614 458 LINE SMOOTH",
"672 458 OFFCURVE",
"672 458 OFFCURVE",
"672 278 CURVE SMOOTH",
"672 0 LINE"
);
},
{
closed = 1;
nodes = (
"498 79 LINE",
"249 78 LINE SMOOTH",
"173 78 OFFCURVE",
"156 85 OFFCURVE",
"156 212 CURVE SMOOTH",
"156 312 OFFCURVE",
"159 478 OFFCURVE",
"159 531 CURVE",
"70 531 LINE",
"70 134 LINE SMOOTH",
"70 55 OFFCURVE",
"111 0 OFFCURVE",
"163 0 CURVE SMOOTH",
"497 -1 LINE"
);
}
);
width = 954;
},
{
layerId = "CBA2E3C4-6E62-469B-BD2C-D62FAD87CF88";
paths = (
{
closed = 1;
nodes = (
"463 0 LINE",
"463 95 LINE",
"400 95 LINE",
"400 483 LINE SMOOTH",
"400 584 OFFCURVE",
"400 584 OFFCURVE",
"345 584 CURVE SMOOTH",
"225 584 LINE",
"225 800 LINE",
"177 800 LINE",
"177 556 LINE SMOOTH",
"177 528 OFFCURVE",
"186 504 OFFCURVE",
"202 504 CURVE SMOOTH",
"322 504 LINE SMOOTH",
"352 504 OFFCURVE",
"352 504 OFFCURVE",
"352 306 CURVE SMOOTH",
"352 0 LINE"
);
},
{
closed = 1;
nodes = (
"262 87 LINE",
"130 86 LINE SMOOTH",
"97 86 OFFCURVE",
"82 87 OFFCURVE",
"82 233 CURVE SMOOTH",
"82 343 OFFCURVE",
"83 526 OFFCURVE",
"83 584 CURVE",
"37 584 LINE",
"37 147 LINE SMOOTH",
"37 58 OFFCURVE",
"59 0 OFFCURVE",
"85 0 CURVE SMOOTH",
"261 -1 LINE"
);
}
);
width = 500;
}
);
},
{
glyphname = "ra_nee-ethiopic.liga";
lastChange = "2019-03-13 21:31:40 +0000";
layers = (
{
layerId = "994FE389-9D54-4FAA-B055-C46A67020E78";
paths = (
{
closed = 1;
nodes = (
"839 0 LINE SMOOTH",
"884 0 OFFCURVE",
"916 17 OFFCURVE",
"934 50 CURVE SMOOTH",
"944 67 OFFCURVE",
"950 89 OFFCURVE",
"950 112 CURVE SMOOTH",
"950 142 OFFCURVE",
"942 167 OFFCURVE",
"923 185 CURVE SMOOTH",
"901 205 OFFCURVE",
"876 217 OFFCURVE",
"840 217 CURVE SMOOTH",
"810 217 LINE",
"810 439 LINE SMOOTH",
"810 531 OFFCURVE",
"810 531 OFFCURVE",
"706 531 CURVE SMOOTH",
"477 531 LINE",
"477 727 LINE",
"386 727 LINE",
"386 505 LINE SMOOTH",
"386 477 OFFCURVE",
"404 458 OFFCURVE",
"433 458 CURVE SMOOTH",
"661 458 LINE SMOOTH",
"719 458 OFFCURVE",
"719 458 OFFCURVE",
"719 278 CURVE SMOOTH",
"719 0 LINE"
);
},
{
closed = 1;
nodes = (
"498 79 LINE",
"249 78 LINE SMOOTH",
"173 78 OFFCURVE",
"156 85 OFFCURVE",
"156 212 CURVE SMOOTH",
"156 312 OFFCURVE",
"159 478 OFFCURVE",
"159 531 CURVE",
"70 531 LINE",
"70 134 LINE SMOOTH",
"70 55 OFFCURVE",
"111 0 OFFCURVE",
"163 0 CURVE SMOOTH",
"497 -1 LINE"
);
},
{
closed = 1;
nodes = (
"810 193 LINE",
"838 192 OFFCURVE",
"858 185 OFFCURVE",
"871 171 CURVE SMOOTH",
"884 156 OFFCURVE",
"889 134 OFFCURVE",
"889 107 CURVE SMOOTH",
"889 100 OFFCURVE",
"888 93 OFFCURVE",
"886 85 CURVE",
"883 70 OFFCURVE",
"878 59 OFFCURVE",
"872 50 CURVE SMOOTH",
"864 38 OFFCURVE",
"852 32 OFFCURVE",
"837 28 CURVE SMOOTH",
"829 26 OFFCURVE",
"821 24 OFFCURVE",
"810 24 CURVE"
);
}
);
width = 1020;
},
{
layerId = "CBA2E3C4-6E62-469B-BD2C-D62FAD87CF88";
paths = (
{
closed = 1;
nodes = (
"439 0 LINE SMOOTH",
"462 0 OFFCURVE",
"479 16 OFFCURVE",
"490 56 CURVE SMOOTH",
"495 74 OFFCURVE",
"498 107 OFFCURVE",
"498 123 CURVE SMOOTH",
"498 161 OFFCURVE",
"493 184 OFFCURVE",
"483 204 CURVE SMOOTH",
"474 223 OFFCURVE",
"460 239 OFFCURVE",
"440 239 CURVE SMOOTH",
"424 239 LINE",
"424 483 LINE SMOOTH",
"424 584 OFFCURVE",
"424 584 OFFCURVE",
"370 584 CURVE SMOOTH",
"250 584 LINE",
"250 800 LINE",
"202 800 LINE",
"202 556 LINE SMOOTH",
"202 526 OFFCURVE",
"212 504 OFFCURVE",
"227 504 CURVE SMOOTH",
"347 504 LINE SMOOTH",
"376 504 OFFCURVE",
"376 504 OFFCURVE",
"376 306 CURVE SMOOTH",
"376 0 LINE"
);
},
{
closed = 1;
nodes = (
"262 87 LINE",
"130 86 LINE SMOOTH",
"97 86 OFFCURVE",
"82 87 OFFCURVE",
"82 233 CURVE SMOOTH",
"82 343 OFFCURVE",
"83 526 OFFCURVE",
"83 584 CURVE",
"37 584 LINE",
"37 147 LINE SMOOTH",
"37 58 OFFCURVE",
"59 0 OFFCURVE",
"85 0 CURVE SMOOTH",
"261 -1 LINE"
);
},
{
closed = 1;
nodes = (
"424 212 LINE",
"438 211 OFFCURVE",
"450 204 OFFCURVE",
"455 191 CURVE",
"464 170 OFFCURVE",
"465 145 OFFCURVE",
"465 118 CURVE SMOOTH",
"465 109 OFFCURVE",
"466 102 OFFCURVE",
"464 94 CURVE",
"463 74 OFFCURVE",
"461 69 OFFCURVE",
"456 55 CURVE SMOOTH",
"450 38 OFFCURVE",
"446 35 OFFCURVE",
"439 31 CURVE",
"435 29 OFFCURVE",
"431 26 OFFCURVE",
"424 26 CURVE"
);
}
);
width = 535;
}
);
note = uni1294;
},
{
glyphname = "ra_ne-ethiopic.liga";
lastChange = "2019-03-13 21:31:40 +0000";
layers = (
{
layerId = "994FE389-9D54-4FAA-B055-C46A67020E78";
paths = (
{
closed = 1;
nodes = (
"787 -12 LINE",
"787 211 LINE SMOOTH",
"787 236 OFFCURVE",
"785 253 OFFCURVE",
"747 253 CURVE SMOOTH",
"644 253 LINE",
"797 445 LINE SMOOTH",
"810 461 OFFCURVE",
"799 531 OFFCURVE",
"753 531 CURVE SMOOTH",
"407 531 LINE",
"407 450 LINE",
"707 450 LINE",
"564 266 LINE SMOOTH",
"520 210 OFFCURVE",
"526 191 OFFCURVE",
"554 191 CURVE SMOOTH",
"697 191 LINE",
"697 -12 LINE"
);
},
{
closed = 1;
nodes = (
"498 79 LINE",
"249 78 LINE SMOOTH",
"173 78 OFFCURVE",
"157 85 OFFCURVE",
"157 212 CURVE SMOOTH",
"157 312 OFFCURVE",
"159 478 OFFCURVE",
"159 531 CURVE",
"70 531 LINE",
"70 134 LINE SMOOTH",
"70 55 OFFCURVE",
"111 0 OFFCURVE",
"163 0 CURVE SMOOTH",
"497 -1 LINE"
);
}
);
width = 872;
},
{
layerId = "CBA2E3C4-6E62-469B-BD2C-D62FAD87CF88";
paths = (
{
closed = 1;
nodes = (
"262 87 LINE",
"130 86 LINE SMOOTH",
"91 86 OFFCURVE",
"83 93 OFFCURVE",
"83 233 CURVE SMOOTH",
"83 584 LINE",
"37 584 LINE",
"37 147 LINE SMOOTH",
"37 58 OFFCURVE",
"59 0 OFFCURVE",
"85 0 CURVE SMOOTH",
"261 -1 LINE"
);
},
{
closed = 1;
nodes = (
"413 -13 LINE",
"413 232 LINE SMOOTH",
"413 270 OFFCURVE",
"406 278 OFFCURVE",
"392 278 CURVE SMOOTH",
"338 278 LINE",
"418 490 LINE SMOOTH",
"424 507 OFFCURVE",
"418 584 OFFCURVE",
"394 584 CURVE SMOOTH",
"214 584 LINE",
"214 495 LINE",
"371 495 LINE",
"296 292 LINE SMOOTH",
"271 223 OFFCURVE",
"277 210 OFFCURVE",
"291 210 CURVE SMOOTH",
"365 210 LINE",
"365 -13 LINE"
);
}
);
width = 458;
}
);
note = uni1295;
},
{
glyphname = "ra_nya-ethiopic.liga";
lastChange = "2019-03-13 21:31:40 +0000";
layers = (
{
layerId = "994FE389-9D54-4FAA-B055-C46A67020E78";
paths = (
{
closed = 1;
nodes = (
"840 0 LINE",
"840 439 LINE SMOOTH",
"840 531 OFFCURVE",
"840 531 OFFCURVE",
"736 531 CURVE SMOOTH",
"507 531 LINE",
"507 682 LINE",
"630 682 LINE",
"630 727 LINE",
"313 727 LINE",
"313 682 LINE",
"416 682 LINE",
"416 505 LINE SMOOTH",
"416 477 OFFCURVE",
"433 458 OFFCURVE",
"462 458 CURVE SMOOTH",
"690 458 LINE SMOOTH",
"749 458 OFFCURVE",
"749 458 OFFCURVE",
"749 278 CURVE SMOOTH",
"749 0 LINE"
);
},
{
closed = 1;
nodes = (
"499 79 LINE",
"250 78 LINE SMOOTH",
"173 78 OFFCURVE",
"157 85 OFFCURVE",
"157 212 CURVE SMOOTH",
"157 312 OFFCURVE",
"160 478 OFFCURVE",
"160 531 CURVE",
"70 531 LINE",
"70 134 LINE SMOOTH",
"70 55 OFFCURVE",
"111 0 OFFCURVE",
"163 0 CURVE SMOOTH",
"498 -1 LINE"
);
}
);
width = 910;
},
{
layerId = "CBA2E3C4-6E62-469B-BD2C-D62FAD87CF88";
paths = (
{
closed = 1;
nodes = (
"440 0 LINE",
"440 483 LINE SMOOTH",
"440 584 OFFCURVE",
"440 584 OFFCURVE",
"385 584 CURVE SMOOTH",
"266 584 LINE",
"266 750 LINE",
"330 750 LINE",
"330 800 LINE",
"164 800 LINE",
"164 750 LINE",
"218 750 LINE",
"218 556 LINE SMOOTH",
"218 527 OFFCURVE",
"227 504 OFFCURVE",
"242 504 CURVE SMOOTH",
"362 504 LINE SMOOTH",
"392 504 OFFCURVE",
"392 504 OFFCURVE",
"392 306 CURVE SMOOTH",
"392 0 LINE"
);
},
{
closed = 1;
nodes = (
"261 87 LINE",
"131 86 LINE SMOOTH",
"99 86 OFFCURVE",
"83 87 OFFCURVE",
"83 233 CURVE SMOOTH",
"83 343 OFFCURVE",
"84 526 OFFCURVE",
"84 584 CURVE",
"37 584 LINE",
"37 147 LINE SMOOTH",
"37 58 OFFCURVE",
"59 0 OFFCURVE",
"85 0 CURVE SMOOTH",
"262 -1 LINE"
);
}
);
width = 477;
}
);
note = uni1298;
},
{
glyphname = "ra_nyu-ethiopic.liga";
lastChange = "2019-03-13 21:31:40 +0000";
layers = (
{
layerId = "994FE389-9D54-4FAA-B055-C46A67020E78";
paths = (
{
closed = 1;
nodes = (
"857 0 LINE",
"857 246 LINE",
"956 246 LINE",
"956 346 LINE",
"857 346 LINE",
"857 439 LINE SMOOTH",
"857 531 OFFCURVE",
"857 531 OFFCURVE",
"753 531 CURVE SMOOTH",
"524 531 LINE",
"524 682 LINE",
"647 682 LINE",
"647 727 LINE",
"331 727 LINE",
"331 682 LINE",
"433 682 LINE",
"433 505 LINE SMOOTH",
"433 477 OFFCURVE",
"451 458 OFFCURVE",
"480 458 CURVE SMOOTH",
"708 458 LINE SMOOTH",
"766 458 OFFCURVE",
"766 458 OFFCURVE",
"766 278 CURVE SMOOTH",
"766 0 LINE"
);
},
{
closed = 1;
nodes = (
"498 79 LINE",
"249 78 LINE SMOOTH",
"172 78 OFFCURVE",
"156 85 OFFCURVE",
"156 212 CURVE SMOOTH",
"156 312 OFFCURVE",
"159 478 OFFCURVE",
"159 531 CURVE",
"70 531 LINE",
"70 134 LINE SMOOTH",
"70 55 OFFCURVE",
"111 0 OFFCURVE",
"162 0 CURVE SMOOTH",
"497 -1 LINE"
);
}
);
width = 1026;
},
{
layerId = "CBA2E3C4-6E62-469B-BD2C-D62FAD87CF88";
paths = (
{
closed = 1;
nodes = (
"449 0 LINE",
"449 271 LINE",
"501 271 LINE",
"501 381 LINE",
"449 381 LINE",
"449 483 LINE SMOOTH",
"449 584 OFFCURVE",
"449 584 OFFCURVE",
"394 584 CURVE SMOOTH",
"275 584 LINE",
"275 750 LINE",
"339 750 LINE",
"339 800 LINE",
"174 800 LINE",
"174 750 LINE",
"227 750 LINE",
"227 556 LINE SMOOTH",
"227 525 OFFCURVE",
"237 504 OFFCURVE",
"252 504 CURVE SMOOTH",
"372 504 LINE SMOOTH",
"401 504 OFFCURVE",
"401 504 OFFCURVE",
"401 306 CURVE SMOOTH",
"401 0 LINE"
);
},
{
closed = 1;
nodes = (
"262 87 LINE",
"130 86 LINE SMOOTH",
"98 86 OFFCURVE",
"82 87 OFFCURVE",
"82 233 CURVE SMOOTH",
"82 343 OFFCURVE",
"83 526 OFFCURVE",
"83 584 CURVE",
"37 584 LINE",
"37 147 LINE SMOOTH",
"37 58 OFFCURVE",
"59 0 OFFCURVE",
"84 0 CURVE SMOOTH",
"261 -1 LINE"
);
}
);
width = 538;
}
);
note = uni1299;
},
{
glyphname = "ra_nyi-ethiopic.liga";
lastChange = "2019-03-13 21:31:40 +0000";
layers = (
{
layerId = "994FE389-9D54-4FAA-B055-C46A67020E78";
paths = (
{
closed = 1;
nodes = (
"1006 0 LINE",
"1006 100 LINE",
"907 100 LINE",
"907 439 LINE SMOOTH",
"907 531 OFFCURVE",
"907 531 OFFCURVE",
"803 531 CURVE SMOOTH",
"574 531 LINE",
"574 682 LINE",
"714 682 LINE",
"714 727 LINE",
"381 727 LINE",
"381 682 LINE",
"483 682 LINE",
"483 505 LINE SMOOTH",
"483 477 OFFCURVE",
"501 458 OFFCURVE",
"530 458 CURVE SMOOTH",
"758 458 LINE SMOOTH",
"816 458 OFFCURVE",
"816 458 OFFCURVE",
"816 278 CURVE SMOOTH",
"816 0 LINE"
);
},
{
closed = 1;
nodes = (
"498 79 LINE",
"249 78 LINE SMOOTH",
"172 78 OFFCURVE",
"156 85 OFFCURVE",
"156 212 CURVE SMOOTH",
"156 312 OFFCURVE",
"159 478 OFFCURVE",
"159 531 CURVE",
"70 531 LINE",
"70 134 LINE SMOOTH",
"70 55 OFFCURVE",
"111 0 OFFCURVE",
"162 0 CURVE SMOOTH",
"497 -1 LINE"
);
}
);
width = 1076;
},
{
layerId = "CBA2E3C4-6E62-469B-BD2C-D62FAD87CF88";
paths = (
{
closed = 1;
nodes = (
"527 0 LINE",
"527 110 LINE",
"475 110 LINE",
"475 483 LINE SMOOTH",
"475 584 OFFCURVE",
"475 584 OFFCURVE",
"421 584 CURVE SMOOTH",
"301 584 LINE",
"301 750 LINE",
"374 750 LINE",
"374 800 LINE",
"200 800 LINE",
"200 750 LINE",
"253 750 LINE",
"253 556 LINE SMOOTH",
"253 525 OFFCURVE",
"263 504 OFFCURVE",
"278 504 CURVE SMOOTH",
"398 504 LINE SMOOTH",
"427 504 OFFCURVE",
"427 504 OFFCURVE",
"427 306 CURVE SMOOTH",
"427 0 LINE"
);
},
{
closed = 1;
nodes = (
"262 87 LINE",
"130 86 LINE SMOOTH",
"98 86 OFFCURVE",
"82 87 OFFCURVE",
"82 233 CURVE SMOOTH",
"82 343 OFFCURVE",
"83 526 OFFCURVE",
"83 584 CURVE",
"37 584 LINE",
"37 147 LINE SMOOTH",
"37 58 OFFCURVE",
"59 0 OFFCURVE",
"84 0 CURVE SMOOTH",
"261 -1 LINE"
);
}
);
width = 564;
}
);
note = uni129A;
},
{
glyphname = "ra_nyee-ethiopic.liga";
lastChange = "2019-03-13 21:31:40 +0000";
layers = (
{
layerId = "994FE389-9D54-4FAA-B055-C46A67020E78";
paths = (
{
closed = 1;
nodes = (
"894 0 LINE SMOOTH",
"940 0 OFFCURVE",
"971 16 OFFCURVE",
"990 46 CURVE",
"1000 64 OFFCURVE",
"1005 85 OFFCURVE",
"1005 106 CURVE SMOOTH",
"1005 134 OFFCURVE",
"997 158 OFFCURVE",
"978 175 CURVE",
"956 193 OFFCURVE",
"931 205 OFFCURVE",
"895 205 CURVE SMOOTH",
"849 205 LINE",
"849 439 LINE SMOOTH",
"849 531 OFFCURVE",
"849 531 OFFCURVE",
"745 531 CURVE SMOOTH",
"516 531 LINE",
"516 682 LINE",
"684 682 LINE",
"684 727 LINE",
"322 727 LINE",
"322 682 LINE",
"425 682 LINE",
"425 505 LINE SMOOTH",
"425 477 OFFCURVE",
"442 458 OFFCURVE",
"471 458 CURVE SMOOTH",
"700 458 LINE SMOOTH",
"758 458 OFFCURVE",
"758 458 OFFCURVE",
"758 278 CURVE SMOOTH",
"758 0 LINE"
);
},
{
closed = 1;
nodes = (
"499 79 LINE",
"250 78 LINE SMOOTH",
"173 78 OFFCURVE",
"157 85 OFFCURVE",
"157 212 CURVE SMOOTH",
"157 312 OFFCURVE",
"160 478 OFFCURVE",
"160 531 CURVE",
"70 531 LINE",
"70 134 LINE SMOOTH",
"70 55 OFFCURVE",
"111 0 OFFCURVE",
"163 0 CURVE SMOOTH",
"498 -1 LINE"
);
},
{
closed = 1;
nodes = (
"849 182 LINE",
"862 182 LINE SMOOTH",
"891 182 OFFCURVE",
"913 175 OFFCURVE",
"926 161 CURVE SMOOTH",
"939 147 OFFCURVE",
"944 126 OFFCURVE",
"944 101 CURVE SMOOTH",
"944 95 OFFCURVE",
"943 87 OFFCURVE",
"941 80 CURVE",
"938 66 OFFCURVE",
"933 56 OFFCURVE",
"927 47 CURVE",
"919 36 OFFCURVE",
"907 30 OFFCURVE",
"892 26 CURVE",
"884 25 OFFCURVE",
"875 23 OFFCURVE",
"863 23 CURVE SMOOTH",
"849 23 LINE"
);
}
);
width = 1075;
},
{
layerId = "CBA2E3C4-6E62-469B-BD2C-D62FAD87CF88";
paths = (
{
closed = 1;
nodes = (
"469 0 LINE SMOOTH",
"491 0 OFFCURVE",
"509 18 OFFCURVE",
"519 51 CURVE",
"524 70 OFFCURVE",
"527 96 OFFCURVE",
"527 117 CURVE SMOOTH",
"527 146 OFFCURVE",
"522 175 OFFCURVE",
"513 193 CURVE",
"497 217 OFFCURVE",
"485 226 OFFCURVE",
"470 226 CURVE SMOOTH",
"444 226 LINE",
"444 483 LINE SMOOTH",
"444 584 OFFCURVE",
"444 584 OFFCURVE",
"391 584 CURVE SMOOTH",
"270 584 LINE",
"270 750 LINE",
"359 750 LINE",
"359 800 LINE",
"168 800 LINE",
"168 750 LINE",
"224 750 LINE",
"224 556 LINE SMOOTH",
"224 525 OFFCURVE",
"233 504 OFFCURVE",
"247 504 CURVE SMOOTH",
"367 504 LINE SMOOTH",
"398 504 OFFCURVE",
"398 504 OFFCURVE",
"398 306 CURVE SMOOTH",
"398 0 LINE"
);
},
{
closed = 1;
nodes = (
"261 87 LINE",
"131 86 LINE SMOOTH",
"99 86 OFFCURVE",
"83 87 OFFCURVE",
"83 233 CURVE SMOOTH",
"83 343 OFFCURVE",
"84 526 OFFCURVE",
"84 584 CURVE",
"37 584 LINE",
"37 147 LINE SMOOTH",
"37 58 OFFCURVE",
"59 0 OFFCURVE",
"85 0 CURVE SMOOTH",
"262 -1 LINE"
);
},
{
closed = 1;
nodes = (
"444 200 LINE",
"451 200 LINE SMOOTH",
"464 200 OFFCURVE",
"477 196 OFFCURVE",
"486 175 CURVE SMOOTH",
"492 161 OFFCURVE",
"495 138 OFFCURVE",
"495 111 CURVE SMOOTH",
"495 103 OFFCURVE",
"494 96 OFFCURVE",
"493 88 CURVE",
"494 81 OFFCURVE",
"490 66 OFFCURVE",
"486 52 CURVE",
"480 37 OFFCURVE",
"474 35 OFFCURVE",
"467 29 CURVE",
"465 28 OFFCURVE",
"458 25 OFFCURVE",
"452 25 CURVE SMOOTH",
"444 25 LINE"
);
}
);
width = 564;
}
);
note = uni129C;
},
{
glyphname = "ra_ga-ethiopic.liga";
lastChange = "2019-03-13 21:31:41 +0000";
layers = (
{
layerId = "994FE389-9D54-4FAA-B055-C46A67020E78";
paths = (
{
closed = 1;
nodes = (
"720 0 LINE",
"720 397 LINE SMOOTH",
"720 476 OFFCURVE",
"679 531 OFFCURVE",
"627 531 CURVE SMOOTH",
"292 532 LINE",
"291 452 LINE",
"540 453 LINE SMOOTH",
"617 453 OFFCURVE",
"633 447 OFFCURVE",
"633 319 CURVE SMOOTH",
"633 219 OFFCURVE",
"630 53 OFFCURVE",
"630 0 CURVE"
);
},
{
closed = 1;
nodes = (
"498 79 LINE",
"249 78 LINE SMOOTH",
"172 78 OFFCURVE",
"156 85 OFFCURVE",
"156 212 CURVE SMOOTH",
"156 312 OFFCURVE",
"159 478 OFFCURVE",
"159 531 CURVE",
"70 531 LINE",
"70 134 LINE SMOOTH",
"70 55 OFFCURVE",
"110 0 OFFCURVE",
"162 0 CURVE SMOOTH",
"497 -1 LINE"
);
}
);
width = 790;
},
{
layerId = "CBA2E3C4-6E62-469B-BD2C-D62FAD87CF88";
paths = (
{
closed = 1;
nodes = (
"377 0 LINE",
"377 437 LINE SMOOTH",
"377 527 OFFCURVE",
"355 585 OFFCURVE",
"329 585 CURVE SMOOTH",
"153 585 LINE",
"153 497 LINE",
"283 498 LINE SMOOTH",
"321 498 OFFCURVE",
"332 498 OFFCURVE",
"332 351 CURVE SMOOTH",
"332 241 OFFCURVE",
"330 58 OFFCURVE",
"330 0 CURVE"
);
},
{
closed = 1;
nodes = (
"262 87 LINE",
"130 86 LINE SMOOTH",
"98 86 OFFCURVE",
"82 87 OFFCURVE",
"82 233 CURVE SMOOTH",
"82 343 OFFCURVE",
"83 526 OFFCURVE",
"83 584 CURVE",
"37 584 LINE",
"37 147 LINE SMOOTH",
"37 60 OFFCURVE",
"58 0 OFFCURVE",
"84 0 CURVE SMOOTH",
"261 -1 LINE"
);
}
);
width = 414;
}
);
},
{
glyphname = "ra_gu-ethiopic.liga";
lastChange = "2019-03-13 21:31:41 +0000";
layers = (
{
layerId = "994FE389-9D54-4FAA-B055-C46A67020E78";
paths = (
{
closed = 1;
nodes = (
"720 0 LINE",
"720 249 LINE",
"823 249 LINE",
"823 354 LINE",
"720 354 LINE",
"720 397 LINE SMOOTH",
"720 476 OFFCURVE",
"679 531 OFFCURVE",
"627 531 CURVE SMOOTH",
"293 532 LINE",
"292 452 LINE",
"541 453 LINE SMOOTH",
"617 453 OFFCURVE",
"633 446 OFFCURVE",
"633 319 CURVE SMOOTH",
"633 219 OFFCURVE",
"631 53 OFFCURVE",
"631 0 CURVE"
);
},
{
closed = 1;
nodes = (
"498 79 LINE",
"249 78 LINE SMOOTH",
"173 78 OFFCURVE",
"156 85 OFFCURVE",
"156 212 CURVE SMOOTH",
"156 312 OFFCURVE",
"159 478 OFFCURVE",
"159 531 CURVE",
"70 531 LINE",
"70 134 LINE SMOOTH",
"70 55 OFFCURVE",
"111 0 OFFCURVE",
"163 0 CURVE SMOOTH",
"497 -1 LINE"
);
}
);
width = 893;
},
{
layerId = "CBA2E3C4-6E62-469B-BD2C-D62FAD87CF88";
paths = (
{
closed = 1;
nodes = (
"377 0 LINE",
"377 274 LINE",
"431 274 LINE",
"431 389 LINE",
"377 389 LINE",
"377 437 LINE SMOOTH",
"377 527 OFFCURVE",
"355 585 OFFCURVE",
"329 585 CURVE SMOOTH",
"154 585 LINE",
"153 497 LINE",
"284 498 LINE SMOOTH",
"321 498 OFFCURVE",
"332 497 OFFCURVE",
"332 351 CURVE SMOOTH",
"332 241 OFFCURVE",
"331 58 OFFCURVE",
"331 0 CURVE"
);
},
{
closed = 1;
nodes = (
"262 87 LINE",
"130 86 LINE SMOOTH",
"97 86 OFFCURVE",
"82 87 OFFCURVE",
"82 233 CURVE SMOOTH",
"82 343 OFFCURVE",
"83 526 OFFCURVE",
"83 584 CURVE",
"37 584 LINE",
"37 147 LINE SMOOTH",
"37 58 OFFCURVE",
"59 0 OFFCURVE",
"85 0 CURVE SMOOTH",
"261 -1 LINE"
);
}
);
width = 468;
}
);
},
{
glyphname = "ra_gi-ethiopic.liga";
lastChange = "2019-03-13 21:31:41 +0000";
layers = (
{
layerId = "994FE389-9D54-4FAA-B055-C46A67020E78";
paths = (
{
closed = 1;
nodes = (
"859 0 LINE",
"859 65 LINE",
"749 65 LINE",
"749 397 LINE SMOOTH",
"749 476 OFFCURVE",
"709 531 OFFCURVE",
"657 531 CURVE SMOOTH",
"322 532 LINE",
"321 452 LINE",
"570 453 LINE SMOOTH",
"647 453 OFFCURVE",
"663 447 OFFCURVE",
"663 319 CURVE SMOOTH",
"663 219 OFFCURVE",
"660 53 OFFCURVE",
"660 0 CURVE"
);
},
{
closed = 1;
nodes = (
"499 79 LINE",
"249 78 LINE SMOOTH",
"173 78 OFFCURVE",
"157 85 OFFCURVE",
"157 212 CURVE SMOOTH",
"157 312 OFFCURVE",
"159 478 OFFCURVE",
"159 531 CURVE",
"70 531 LINE",
"70 134 LINE SMOOTH",
"70 55 OFFCURVE",
"111 0 OFFCURVE",
"163 0 CURVE SMOOTH",
"498 -1 LINE"
);
}
);
width = 929;
},
{
layerId = "CBA2E3C4-6E62-469B-BD2C-D62FAD87CF88";
paths = (
{
closed = 1;
nodes = (
"450 0 LINE",
"450 72 LINE",
"392 72 LINE",
"392 437 LINE SMOOTH",
"392 527 OFFCURVE",
"371 585 OFFCURVE",
"344 585 CURVE SMOOTH",
"168 585 LINE",
"169 497 LINE",
"299 498 LINE SMOOTH",
"339 498 OFFCURVE",
"347 492 OFFCURVE",
"347 351 CURVE SMOOTH",
"347 241 OFFCURVE",
"346 58 OFFCURVE",
"346 0 CURVE"
);
},
{
closed = 1;
nodes = (
"261 87 LINE",
"130 86 LINE SMOOTH",
"91 86 OFFCURVE",
"83 93 OFFCURVE",
"83 233 CURVE SMOOTH",
"83 584 LINE",
"37 584 LINE",
"37 147 LINE SMOOTH",
"37 58 OFFCURVE",
"59 0 OFFCURVE",
"85 0 CURVE SMOOTH",
"262 -1 LINE"
);
}
);
width = 487;
}
);
note = uni130A;
},
{
glyphname = "ra_gaa-ethiopic.liga";
lastChange = "2019-03-13 21:31:41 +0000";
layers = (
{
components = (
{
name = "gaa-ethiopic";
transform = "{1, 0, 0, 1, 349, 0}";
}
);
layerId = "994FE389-9D54-4FAA-B055-C46A67020E78";
paths = (
{
closed = 1;
nodes = (
"498 79 LINE",
"249 78 LINE SMOOTH",
"173 78 OFFCURVE",
"156 85 OFFCURVE",
"156 212 CURVE SMOOTH",
"156 312 OFFCURVE",
"159 478 OFFCURVE",
"159 531 CURVE",
"70 531 LINE",
"70 134 LINE SMOOTH",
"70 55 OFFCURVE",
"111 0 OFFCURVE",
"163 0 CURVE SMOOTH",
"497 -1 LINE"
);
}
);
width = 907;
},
{
components = (
{
name = "gaa-ethiopic";
transform = "{1, 0, 0, 1, 183, 0}";
}
);
layerId = "CBA2E3C4-6E62-469B-BD2C-D62FAD87CF88";
paths = (
{
closed = 1;
nodes = (
"262 87 LINE",
"130 86 LINE SMOOTH",
"97 86 OFFCURVE",
"82 87 OFFCURVE",
"82 233 CURVE SMOOTH",
"82 343 OFFCURVE",
"83 526 OFFCURVE",
"83 584 CURVE",
"37 584 LINE",
"37 147 LINE SMOOTH",
"37 58 OFFCURVE",
"59 0 OFFCURVE",
"85 0 CURVE SMOOTH",
"261 -1 LINE"
);
}
);
width = 467;
}
);
note = uni130B;
},
{
glyphname = "ra_gee-ethiopic.liga";
lastChange = "2019-03-13 21:31:41 +0000";
layers = (
{
layerId = "994FE389-9D54-4FAA-B055-C46A67020E78";
paths = (
{
closed = 1;
nodes = (
"778 -4 LINE SMOOTH",
"810 -4 OFFCURVE",
"832 9 OFFCURVE",
"850 29 CURVE SMOOTH",
"866 47 OFFCURVE",
"874 75 OFFCURVE",
"874 106 CURVE SMOOTH",
"874 129 OFFCURVE",
"869 151 OFFCURVE",
"861 170 CURVE SMOOTH",
"846 204 OFFCURVE",
"817 222 OFFCURVE",
"778 222 CURVE SMOOTH",
"749 222 LINE",
"749 393 LINE SMOOTH",
"749 471 OFFCURVE",
"708 526 OFFCURVE",
"656 526 CURVE SMOOTH",
"322 527 LINE",
"321 447 LINE",
"570 448 LINE SMOOTH",
"646 448 OFFCURVE",
"663 442 OFFCURVE",
"663 315 CURVE SMOOTH",
"663 215 OFFCURVE",
"660 48 OFFCURVE",
"660 -4 CURVE"
);
},
{
closed = 1;
nodes = (
"498 79 LINE",
"249 78 LINE SMOOTH",
"173 78 OFFCURVE",
"156 85 OFFCURVE",
"156 212 CURVE SMOOTH",
"156 312 OFFCURVE",
"159 478 OFFCURVE",
"159 531 CURVE",
"70 531 LINE",
"70 134 LINE SMOOTH",
"70 55 OFFCURVE",
"111 0 OFFCURVE",
"163 0 CURVE SMOOTH",
"497 -1 LINE"
);
},
{
closed = 1;
nodes = (
"749 197 LINE",
"752 197 LINE SMOOTH",
"762 197 OFFCURVE",
"770 196 OFFCURVE",
"776 193 CURVE SMOOTH",
"789 187 OFFCURVE",
"800 183 OFFCURVE",
"806 169 CURVE",
"811 159 OFFCURVE",
"816 149 OFFCURVE",
"819 134 CURVE",
"821 126 OFFCURVE",
"822 117 OFFCURVE",
"822 110 CURVE SMOOTH",
"822 83 OFFCURVE",
"816 59 OFFCURVE",
"806 44 CURVE SMOOTH",
"796 28 OFFCURVE",
"776 22 OFFCURVE",
"751 22 CURVE SMOOTH",
"749 22 LINE"
);
}
);
width = 944;
},
{
layerId = "CBA2E3C4-6E62-469B-BD2C-D62FAD87CF88";
paths = (
{
closed = 1;
nodes = (
"262 87 LINE",
"130 86 LINE SMOOTH",
"97 86 OFFCURVE",
"82 87 OFFCURVE",
"82 233 CURVE SMOOTH",
"82 343 OFFCURVE",
"83 526 OFFCURVE",
"83 584 CURVE",
"37 584 LINE",
"37 147 LINE SMOOTH",
"37 58 OFFCURVE",
"59 0 OFFCURVE",
"85 0 CURVE SMOOTH",
"261 -1 LINE"
);
},
{
closed = 1;
nodes = (
"408 -4 LINE SMOOTH",
"423 -4 OFFCURVE",
"435 8 OFFCURVE",
"445 31 CURVE SMOOTH",
"453 50 OFFCURVE",
"458 79 OFFCURVE",
"458 117 CURVE SMOOTH",
"458 144 OFFCURVE",
"455 168 OFFCURVE",
"451 187 CURVE SMOOTH",
"443 224 OFFCURVE",
"430 244 OFFCURVE",
"408 244 CURVE SMOOTH",
"392 244 LINE",
"392 432 LINE SMOOTH",
"392 515 OFFCURVE",
"372 579 OFFCURVE",
"344 579 CURVE SMOOTH",
"168 580 LINE",
"169 492 LINE",
"299 492 LINE SMOOTH",
"335 492 OFFCURVE",
"347 492 OFFCURVE",
"347 347 CURVE SMOOTH",
"347 237 OFFCURVE",
"346 53 OFFCURVE",
"346 -4 CURVE"
);
},
{
closed = 1;
nodes = (
"392 217 LINE",
"393 217 LINE SMOOTH",
"400 217 OFFCURVE",
"402 216 OFFCURVE",
"406 212 CURVE",
"413 206 OFFCURVE",
"419 204 OFFCURVE",
"422 186 CURVE",
"422 186 OFFCURVE",
"427 168 OFFCURVE",
"429 147 CURVE",
"431 139 OFFCURVE",
"430 127 OFFCURVE",
"430 121 CURVE SMOOTH",
"430 83 OFFCURVE",
"427 65 OFFCURVE",
"422 48 CURVE SMOOTH",
"417 31 OFFCURVE",
"407 24 OFFCURVE",
"394 24 CURVE SMOOTH",
"392 24 LINE"
);
}
);
width = 495;
}
);
note = uni130C;
},
{
glyphname = "ra_ge-ethiopic.liga";
lastChange = "2019-03-13 21:31:41 +0000";
layers = (
{
layerId = "994FE389-9D54-4FAA-B055-C46A67020E78";
paths = (
{
closed = 1;
nodes = (
"744 0 LINE",
"744 397 LINE SMOOTH",
"744 476 OFFCURVE",
"703 531 OFFCURVE",
"651 531 CURVE SMOOTH",
"317 532 LINE",
"316 452 LINE",
"317 452 LINE",
"317 420 LINE SMOOTH",
"317 388 OFFCURVE",
"331 366 OFFCURVE",
"351 348 CURVE SMOOTH",
"369 332 OFFCURVE",
"396 325 OFFCURVE",
"427 325 CURVE SMOOTH",
"451 325 OFFCURVE",
"472 329 OFFCURVE",
"491 337 CURVE SMOOTH",
"525 352 OFFCURVE",
"543 381 OFFCURVE",
"543 420 CURVE SMOOTH",
"543 453 LINE",
"565 453 LINE SMOOTH",
"641 453 OFFCURVE",
"658 446 OFFCURVE",
"658 319 CURVE SMOOTH",
"658 219 OFFCURVE",
"655 53 OFFCURVE",
"655 0 CURVE"
);
},
{
closed = 1;
nodes = (
"498 79 LINE",
"249 78 LINE SMOOTH",
"172 78 OFFCURVE",
"156 85 OFFCURVE",
"156 212 CURVE SMOOTH",
"156 312 OFFCURVE",
"159 478 OFFCURVE",
"159 531 CURVE",
"70 531 LINE",
"70 134 LINE SMOOTH",
"70 55 OFFCURVE",
"111 0 OFFCURVE",
"162 0 CURVE SMOOTH",
"497 -1 LINE"
);
},
{
closed = 1;
nodes = (
"404 376 OFFCURVE",
"381 382 OFFCURVE",
"365 392 CURVE SMOOTH",
"350 402 OFFCURVE",
"343 423 OFFCURVE",
"343 447 CURVE SMOOTH",
"343 452 LINE",
"519 453 LINE",
"519 446 LINE SMOOTH",
"519 436 OFFCURVE",
"517 428 OFFCURVE",
"514 422 CURVE",
"509 409 OFFCURVE",
"504 398 OFFCURVE",
"491 392 CURVE SMOOTH",
"481 387 OFFCURVE",
"471 383 OFFCURVE",
"455 379 CURVE SMOOTH",
"447 377 OFFCURVE",
"439 376 OFFCURVE",
"431 376 CURVE SMOOTH"
);
}
);
width = 814;
},
{
layerId = "CBA2E3C4-6E62-469B-BD2C-D62FAD87CF88";
paths = (
{
closed = 1;
nodes = (
"390 0 LINE",
"390 437 LINE SMOOTH",
"390 525 OFFCURVE",
"368 585 OFFCURVE",
"342 585 CURVE SMOOTH",
"166 585 LINE",
"165 497 LINE",
"166 497 LINE",
"166 462 LINE SMOOTH",
"166 425 OFFCURVE",
"174 403 OFFCURVE",
"183 385 CURVE SMOOTH",
"193 365 OFFCURVE",
"208 358 OFFCURVE",
"224 358 CURVE SMOOTH",
"235 358 OFFCURVE",
"248 362 OFFCURVE",
"258 371 CURVE SMOOTH",
"276 387 OFFCURVE",
"284 423 OFFCURVE",
"284 462 CURVE SMOOTH",
"284 498 LINE",
"297 498 LINE SMOOTH",
"332 498 OFFCURVE",
"345 497 OFFCURVE",
"345 351 CURVE SMOOTH",
"345 241 OFFCURVE",
"342 58 OFFCURVE",
"342 0 CURVE"
);
},
{
closed = 1;
nodes = (
"262 87 LINE",
"130 86 LINE SMOOTH",
"98 86 OFFCURVE",
"82 87 OFFCURVE",
"82 233 CURVE SMOOTH",
"82 343 OFFCURVE",
"83 526 OFFCURVE",
"83 584 CURVE",
"37 584 LINE",
"37 147 LINE SMOOTH",
"37 58 OFFCURVE",
"59 0 OFFCURVE",
"84 0 CURVE SMOOTH",
"261 -1 LINE"
);
},
{
closed = 1;
nodes = (
"213 414 OFFCURVE",
"196 422 OFFCURVE",
"190 432 CURVE",
"184 443 OFFCURVE",
"180 468 OFFCURVE",
"180 492 CURVE SMOOTH",
"180 497 LINE",
"272 498 LINE",
"272 491 LINE SMOOTH",
"272 482 OFFCURVE",
"271 469 OFFCURVE",
"270 464 CURVE",
"266 450 OFFCURVE",
"264 437 OFFCURVE",
"258 431 CURVE",
"249 423 OFFCURVE",
"244 421 OFFCURVE",
"239 417 CURVE",
"236 415 OFFCURVE",
"229 414 OFFCURVE",
"226 414 CURVE SMOOTH"
);
}
);
width = 427;
}
);
note = uni130D;
},
{
glyphname = "ra_go-ethiopic.liga";
lastChange = "2019-03-13 21:31:41 +0000";
layers = (
{
layerId = "994FE389-9D54-4FAA-B055-C46A67020E78";
paths = (
{
closed = 1;
nodes = (
"783 0 LINE",
"783 397 LINE SMOOTH",
"783 492 OFFCURVE",
"742 531 OFFCURVE",
"690 531 CURVE SMOOTH",
"563 531 LINE",
"563 727 LINE",
"494 727 LINE",
"494 532 LINE",
"356 532 LINE",
"355 452 LINE",
"604 453 LINE SMOOTH",
"680 453 OFFCURVE",
"697 446 OFFCURVE",
"697 319 CURVE SMOOTH",
"697 219 OFFCURVE",
"694 53 OFFCURVE",
"694 0 CURVE"
);
},
{
closed = 1;
nodes = (
"498 79 LINE",
"249 78 LINE SMOOTH",
"173 78 OFFCURVE",
"157 85 OFFCURVE",
"157 212 CURVE SMOOTH",
"157 312 OFFCURVE",
"159 478 OFFCURVE",
"159 531 CURVE",
"70 531 LINE",
"70 134 LINE SMOOTH",
"70 55 OFFCURVE",
"111 0 OFFCURVE",
"163 0 CURVE SMOOTH",
"498 -1 LINE"
);
}
);
width = 853;
},
{
layerId = "CBA2E3C4-6E62-469B-BD2C-D62FAD87CF88";
paths = (
{
closed = 1;
nodes = (
"410 0 LINE",
"410 437 LINE SMOOTH",
"410 541 OFFCURVE",
"388 584 OFFCURVE",
"362 584 CURVE SMOOTH",
"295 584 LINE",
"295 800 LINE",
"259 800 LINE",
"259 585 LINE",
"186 585 LINE",
"185 497 LINE",
"317 498 LINE SMOOTH",
"354 498 OFFCURVE",
"365 497 OFFCURVE",
"365 351 CURVE SMOOTH",
"365 241 OFFCURVE",
"364 58 OFFCURVE",
"364 0 CURVE"
);
},
{
closed = 1;
nodes = (
"262 87 LINE",
"130 86 LINE SMOOTH",
"91 86 OFFCURVE",
"83 93 OFFCURVE",
"83 233 CURVE SMOOTH",
"83 584 LINE",
"37 584 LINE",
"37 147 LINE SMOOTH",
"37 58 OFFCURVE",
"59 0 OFFCURVE",
"85 0 CURVE SMOOTH",
"262 -1 LINE"
);
}
);
width = 447;
}
);
},
{
glyphname = "ra_goa-ethiopic.liga";
lastChange = "2019-03-13 21:31:41 +0000";
layers = (
{
layerId = "994FE389-9D54-4FAA-B055-C46A67020E78";
paths = (
{
closed = 1;
nodes = (
"779 30 LINE",
"779 0 LINE",
"868 0 LINE",
"868 397 LINE SMOOTH",
"868 492 OFFCURVE",
"827 531 OFFCURVE",
"775 531 CURVE SMOOTH",
"678 531 LINE",
"678 727 LINE",
"609 727 LINE",
"609 531 LINE",
"441 532 LINE",
"440 452 LINE",
"689 453 LINE SMOOTH",
"765 453 OFFCURVE",
"782 446 OFFCURVE",
"782 319 CURVE SMOOTH",
"782 234 OFFCURVE",
"780 103 OFFCURVE",
"779 32 CURVE",
"582 -15 LINE",
"589 -111 LINE"
);
},
{
closed = 1;
nodes = (
"498 79 LINE",
"249 78 LINE SMOOTH",
"173 78 OFFCURVE",
"156 85 OFFCURVE",
"156 212 CURVE SMOOTH",
"156 312 OFFCURVE",
"159 478 OFFCURVE",
"159 531 CURVE",
"70 531 LINE",
"70 134 LINE SMOOTH",
"70 55 OFFCURVE",
"111 0 OFFCURVE",
"163 0 CURVE SMOOTH",
"497 -1 LINE"
);
}
);
width = 938;
},
{
layerId = "CBA2E3C4-6E62-469B-BD2C-D62FAD87CF88";
paths = (
{
closed = 1;
nodes = (
"408 33 LINE",
"408 0 LINE",
"455 0 LINE",
"455 437 LINE SMOOTH",
"455 540 OFFCURVE",
"433 584 OFFCURVE",
"407 584 CURVE SMOOTH",
"356 584 LINE",
"356 800 LINE",
"319 800 LINE",
"319 584 LINE",
"232 585 LINE",
"231 497 LINE",
"361 498 LINE SMOOTH",
"394 498 OFFCURVE",
"409 497 OFFCURVE",
"409 351 CURVE SMOOTH",
"409 257 OFFCURVE",
"409 113 OFFCURVE",
"408 35 CURVE",
"304 -17 LINE",
"308 -122 LINE"
);
},
{
closed = 1;
nodes = (
"262 87 LINE",
"130 86 LINE SMOOTH",
"97 86 OFFCURVE",
"82 87 OFFCURVE",
"82 233 CURVE SMOOTH",
"82 343 OFFCURVE",
"83 526 OFFCURVE",
"83 584 CURVE",
"37 584 LINE",
"37 147 LINE SMOOTH",
"37 58 OFFCURVE",
"59 0 OFFCURVE",
"85 0 CURVE SMOOTH",
"261 -1 LINE"
);
}
);
width = 492;
}
);
},
{
glyphname = "ra_gwa-ethiopic.liga";
lastChange = "2019-03-13 21:31:41 +0000";
layers = (
{
layerId = "994FE389-9D54-4FAA-B055-C46A67020E78";
paths = (
{
closed = 1;
nodes = (
"749 0 LINE",
"749 137 LINE",
"783 137 LINE SMOOTH",
"815 137 OFFCURVE",
"837 151 OFFCURVE",
"855 171 CURVE SMOOTH",
"871 189 OFFCURVE",
"878 216 OFFCURVE",
"878 247 CURVE SMOOTH",
"878 271 OFFCURVE",
"874 293 OFFCURVE",
"866 312 CURVE SMOOTH",
"851 346 OFFCURVE",
"822 364 OFFCURVE",
"783 364 CURVE SMOOTH",
"749 364 LINE",
"749 397 LINE SMOOTH",
"749 476 OFFCURVE",
"708 531 OFFCURVE",
"657 531 CURVE SMOOTH",
"322 532 LINE",
"321 452 LINE",
"570 453 LINE SMOOTH",
"647 453 OFFCURVE",
"663 447 OFFCURVE",
"663 319 CURVE SMOOTH",
"663 219 OFFCURVE",
"660 53 OFFCURVE",
"660 0 CURVE"
);
},
{
closed = 1;
nodes = (
"498 79 LINE",
"249 78 LINE SMOOTH",
"173 78 OFFCURVE",
"157 85 OFFCURVE",
"157 212 CURVE SMOOTH",
"157 312 OFFCURVE",
"159 478 OFFCURVE",
"159 531 CURVE",
"70 531 LINE",
"70 134 LINE SMOOTH",
"70 55 OFFCURVE",
"111 0 OFFCURVE",
"163 0 CURVE SMOOTH",
"498 -1 LINE"
);
},
{
closed = 1;
nodes = (
"749 339 LINE",
"757 339 LINE SMOOTH",
"767 339 OFFCURVE",
"775 337 OFFCURVE",
"781 335 CURVE",
"794 329 OFFCURVE",
"805 325 OFFCURVE",
"811 311 CURVE",
"816 301 OFFCURVE",
"820 291 OFFCURVE",
"824 276 CURVE",
"826 267 OFFCURVE",
"827 259 OFFCURVE",
"827 252 CURVE SMOOTH",
"827 225 OFFCURVE",
"821 201 OFFCURVE",
"811 186 CURVE SMOOTH",
"801 170 OFFCURVE",
"780 164 OFFCURVE",
"756 164 CURVE SMOOTH",
"749 164 LINE"
);
}
);
width = 948;
},
{
layerId = "CBA2E3C4-6E62-469B-BD2C-D62FAD87CF88";
paths = (
{
closed = 1;
nodes = (
"392 0 LINE",
"392 151 LINE",
"410 151 LINE SMOOTH",
"427 151 OFFCURVE",
"438 166 OFFCURVE",
"447 186 CURVE SMOOTH",
"457 208 OFFCURVE",
"461 240 OFFCURVE",
"461 272 CURVE SMOOTH",
"461 292 OFFCURVE",
"459 317 OFFCURVE",
"453 347 CURVE SMOOTH",
"446 381 OFFCURVE",
"428 400 OFFCURVE",
"410 400 CURVE SMOOTH",
"392 400 LINE",
"392 437 LINE SMOOTH",
"392 521 OFFCURVE",
"372 585 OFFCURVE",
"344 585 CURVE SMOOTH",
"168 585 LINE",
"169 497 LINE",
"299 498 LINE SMOOTH",
"339 498 OFFCURVE",
"347 492 OFFCURVE",
"347 351 CURVE SMOOTH",
"347 241 OFFCURVE",
"346 58 OFFCURVE",
"346 0 CURVE"
);
},
{
closed = 1;
nodes = (
"262 87 LINE",
"130 86 LINE SMOOTH",
"91 86 OFFCURVE",
"83 93 OFFCURVE",
"83 233 CURVE SMOOTH",
"83 584 LINE",
"37 584 LINE",
"37 147 LINE SMOOTH",
"37 58 OFFCURVE",
"59 0 OFFCURVE",
"85 0 CURVE SMOOTH",
"262 -1 LINE"
);
},
{
closed = 1;
nodes = (
"392 373 LINE",
"397 373 LINE SMOOTH",
"399 373 OFFCURVE",
"402 373 OFFCURVE",
"410 369 CURVE",
"416 362 OFFCURVE",
"422 358 OFFCURVE",
"425 342 CURVE",
"432 312 OFFCURVE",
"430 316 OFFCURVE",
"432 304 CURVE",
"432 294 OFFCURVE",
"433 285 OFFCURVE",
"433 277 CURVE SMOOTH",
"433 249 OFFCURVE",
"430 220 OFFCURVE",
"426 208 CURVE SMOOTH",
"417 180 OFFCURVE",
"404 180 OFFCURVE",
"396 180 CURVE SMOOTH",
"392 180 LINE"
);
}
);
width = 498;
}
);
note = uni1310;
},
{
glyphname = "ra_gwi-ethiopic.liga";
lastChange = "2019-03-13 21:31:41 +0000";
layers = (
{
layerId = "994FE389-9D54-4FAA-B055-C46A67020E78";
paths = (
{
closed = 1;
nodes = (
"751 0 LINE",
"751 273 LINE",
"796 273 LINE",
"796 229 LINE",
"957 229 LINE",
"957 276 LINE",
"844 276 LINE",
"844 391 LINE",
"802 391 LINE",
"802 323 LINE",
"751 323 LINE",
"751 397 LINE SMOOTH",
"751 476 OFFCURVE",
"711 531 OFFCURVE",
"659 531 CURVE SMOOTH",
"324 532 LINE",
"323 452 LINE",
"572 453 LINE SMOOTH",
"649 453 OFFCURVE",
"665 446 OFFCURVE",
"665 319 CURVE SMOOTH",
"665 219 OFFCURVE",
"662 53 OFFCURVE",
"662 0 CURVE"
);
},
{
closed = 1;
nodes = (
"498 79 LINE",
"249 78 LINE SMOOTH",
"172 78 OFFCURVE",
"156 85 OFFCURVE",
"156 212 CURVE SMOOTH",
"156 312 OFFCURVE",
"159 478 OFFCURVE",
"159 531 CURVE",
"70 531 LINE",
"70 134 LINE SMOOTH",
"70 55 OFFCURVE",
"111 0 OFFCURVE",
"162 0 CURVE SMOOTH",
"497 -1 LINE"
);
}
);
width = 1027;
},
{
layerId = "CBA2E3C4-6E62-469B-BD2C-D62FAD87CF88";
paths = (
{
closed = 1;
nodes = (
"394 0 LINE",
"394 300 LINE",
"417 300 LINE",
"417 252 LINE",
"502 252 LINE",
"502 304 LINE",
"443 304 LINE",
"443 430 LINE",
"420 430 LINE",
"420 355 LINE",
"394 355 LINE",
"394 437 LINE SMOOTH",
"394 524 OFFCURVE",
"373 585 OFFCURVE",
"345 585 CURVE SMOOTH",
"170 585 LINE",
"169 497 LINE",
"301 498 LINE SMOOTH",
"338 498 OFFCURVE",
"349 497 OFFCURVE",
"349 351 CURVE SMOOTH",
"349 241 OFFCURVE",
"346 58 OFFCURVE",
"346 0 CURVE"
);
},
{
closed = 1;
nodes = (
"262 87 LINE",
"130 86 LINE SMOOTH",
"98 86 OFFCURVE",
"82 87 OFFCURVE",
"82 233 CURVE SMOOTH",
"82 343 OFFCURVE",
"83 526 OFFCURVE",
"83 584 CURVE",
"37 584 LINE",
"37 147 LINE SMOOTH",
"37 58 OFFCURVE",
"59 0 OFFCURVE",
"84 0 CURVE SMOOTH",
"261 -1 LINE"
);
}
);
width = 539;
}
);
},
{
glyphname = "ra_gwaa-ethiopic.liga";
lastChange = "2019-03-13 21:31:41 +0000";
layers = (
{
layerId = "994FE389-9D54-4FAA-B055-C46A67020E78";
paths = (
{
closed = 1;
nodes = (
"911 -182 LINE",
"911 146 LINE",
"840 146 LINE",
"840 397 LINE SMOOTH",
"840 476 OFFCURVE",
"799 531 OFFCURVE",
"747 531 CURVE SMOOTH",
"413 532 LINE",
"412 452 LINE",
"661 453 LINE SMOOTH",
"737 453 OFFCURVE",
"754 446 OFFCURVE",
"754 319 CURVE SMOOTH",
"754 234 OFFCURVE",
"752 180 OFFCURVE",
"751 134 CURVE",
"588 126 LINE",
"654 55 LINE",
"751 109 LINE",
"817 109 LINE",
"817 -182 LINE"
);
},
{
closed = 1;
nodes = (
"498 79 LINE",
"249 78 LINE SMOOTH",
"173 78 OFFCURVE",
"157 85 OFFCURVE",
"157 212 CURVE SMOOTH",
"157 312 OFFCURVE",
"159 478 OFFCURVE",
"159 531 CURVE",
"70 531 LINE",
"70 134 LINE SMOOTH",
"70 55 OFFCURVE",
"111 0 OFFCURVE",
"163 0 CURVE SMOOTH",
"497 -1 LINE"
);
}
);
width = 981;
},
{
layerId = "CBA2E3C4-6E62-469B-BD2C-D62FAD87CF88";
paths = (
{
closed = 1;
nodes = (
"478 -200 LINE",
"478 161 LINE",
"440 161 LINE",
"440 437 LINE SMOOTH",
"440 527 OFFCURVE",
"418 585 OFFCURVE",
"392 585 CURVE SMOOTH",
"216 585 LINE",
"215 497 LINE",
"347 498 LINE SMOOTH",
"382 498 OFFCURVE",
"395 498 OFFCURVE",
"395 351 CURVE SMOOTH",
"395 257 OFFCURVE",
"393 198 OFFCURVE",
"394 147 CURVE",
"309 139 LINE",
"343 61 LINE",
"394 120 LINE",
"428 120 LINE",
"428 -200 LINE"
);
},
{
closed = 1;
nodes = (
"262 87 LINE",
"130 86 LINE SMOOTH",
"91 86 OFFCURVE",
"83 93 OFFCURVE",
"83 233 CURVE SMOOTH",
"83 584 LINE",
"37 584 LINE",
"37 147 LINE SMOOTH",
"37 58 OFFCURVE",
"59 0 OFFCURVE",
"85 0 CURVE SMOOTH",
"261 -1 LINE"
);
}
);
width = 515;
}
);
note = uni1313;
},
{
glyphname = "ra_gwee-ethiopic.liga";
lastChange = "2019-03-13 21:31:41 +0000";
layers = (
{
layerId = "994FE389-9D54-4FAA-B055-C46A67020E78";
paths = (
{
closed = 1;
nodes = (
"805 26 LINE",
"805 0 LINE",
"837 0 LINE",
"837 -1 LINE",
"934 -1 LINE SMOOTH",
"980 -1 OFFCURVE",
"1011 14 OFFCURVE",
"1030 41 CURVE",
"1040 57 OFFCURVE",
"1045 76 OFFCURVE",
"1045 95 CURVE SMOOTH",
"1045 121 OFFCURVE",
"1037 143 OFFCURVE",
"1018 157 CURVE",
"996 175 OFFCURVE",
"971 186 OFFCURVE",
"935 186 CURVE SMOOTH",
"894 186 LINE",
"894 397 LINE SMOOTH",
"894 492 OFFCURVE",
"853 531 OFFCURVE",
"801 531 CURVE SMOOTH",
"674 531 LINE",
"674 727 LINE",
"605 727 LINE",
"605 532 LINE",
"467 532 LINE",
"466 452 LINE",
"715 453 LINE SMOOTH",
"791 453 OFFCURVE",
"808 446 OFFCURVE",
"808 319 CURVE SMOOTH",
"808 234 OFFCURVE",
"806 101 OFFCURVE",
"805 31 CURVE",
"614 -15 LINE",
"621 -111 LINE"
);
},
{
closed = 1;
nodes = (
"498 79 LINE",
"249 78 LINE SMOOTH",
"172 78 OFFCURVE",
"156 85 OFFCURVE",
"156 212 CURVE SMOOTH",
"156 312 OFFCURVE",
"159 478 OFFCURVE",
"159 531 CURVE",
"70 531 LINE",
"70 134 LINE SMOOTH",
"70 55 OFFCURVE",
"111 0 OFFCURVE",
"162 0 CURVE SMOOTH",
"497 -1 LINE"
);
},
{
closed = 1;
nodes = (
"894 164 LINE",
"902 164 LINE SMOOTH",
"931 164 OFFCURVE",
"953 157 OFFCURVE",
"966 146 CURVE",
"979 133 OFFCURVE",
"984 114 OFFCURVE",
"984 91 CURVE SMOOTH",
"984 85 OFFCURVE",
"983 78 OFFCURVE",
"981 72 CURVE",
"978 59 OFFCURVE",
"973 50 OFFCURVE",
"967 42 CURVE SMOOTH",
"959 32 OFFCURVE",
"947 26 OFFCURVE",
"932 23 CURVE",
"924 21 OFFCURVE",
"915 19 OFFCURVE",
"903 19 CURVE SMOOTH",
"894 19 LINE"
);
}
);
width = 1115;
},
{
layerId = "CBA2E3C4-6E62-469B-BD2C-D62FAD87CF88";
paths = (
{
closed = 1;
nodes = (
"421 29 LINE",
"421 0 LINE",
"439 0 LINE",
"439 -1 LINE",
"490 -1 LINE SMOOTH",
"511 -1 OFFCURVE",
"530 15 OFFCURVE",
"540 45 CURVE",
"545 63 OFFCURVE",
"548 85 OFFCURVE",
"548 105 CURVE SMOOTH",
"548 132 OFFCURVE",
"543 158 OFFCURVE",
"534 173 CURVE SMOOTH",
"520 195 OFFCURVE",
"506 205 OFFCURVE",
"491 205 CURVE SMOOTH",
"469 205 LINE",
"469 437 LINE SMOOTH",
"469 540 OFFCURVE",
"447 584 OFFCURVE",
"420 584 CURVE SMOOTH",
"354 584 LINE",
"354 800 LINE",
"318 800 LINE",
"318 585 LINE",
"245 585 LINE",
"244 497 LINE",
"376 498 LINE SMOOTH",
"407 498 OFFCURVE",
"424 497 OFFCURVE",
"424 351 CURVE SMOOTH",
"424 241 OFFCURVE",
"422 75 OFFCURVE",
"421 34 CURVE",
"322 -17 LINE",
"326 -122 LINE"
);
},
{
closed = 1;
nodes = (
"262 87 LINE",
"130 86 LINE SMOOTH",
"98 86 OFFCURVE",
"82 87 OFFCURVE",
"82 233 CURVE SMOOTH",
"82 343 OFFCURVE",
"83 526 OFFCURVE",
"83 584 CURVE",
"37 584 LINE",
"37 147 LINE SMOOTH",
"37 58 OFFCURVE",
"59 0 OFFCURVE",
"84 0 CURVE SMOOTH",
"261 -1 LINE"
);
},
{
closed = 1;
nodes = (
"469 180 LINE",
"472 180 LINE SMOOTH",
"487 180 OFFCURVE",
"499 173 OFFCURVE",
"506 161 CURVE",
"513 145 OFFCURVE",
"516 125 OFFCURVE",
"516 100 CURVE SMOOTH",
"516 92 OFFCURVE",
"515 87 OFFCURVE",
"514 79 CURVE",
"515 80 OFFCURVE",
"511 55 OFFCURVE",
"507 47 CURVE SMOOTH",
"500 33 OFFCURVE",
"498 30 OFFCURVE",
"488 25 CURVE SMOOTH",
"484 23 OFFCURVE",
"478 21 OFFCURVE",
"473 21 CURVE SMOOTH",
"469 21 LINE"
);
}
);
width = 585;
}
);
},
{
glyphname = "ra_gwe-ethiopic.liga";
lastChange = "2019-03-13 21:31:41 +0000";
layers = (
{
layerId = "994FE389-9D54-4FAA-B055-C46A67020E78";
paths = (
{
closed = 1;
nodes = (
"749 0 LINE",
"749 278 LINE",
"779 278 LINE",
"779 172 LINE",
"892 172 LINE",
"892 226 LINE",
"833 226 LINE",
"833 343 LINE",
"749 343 LINE",
"749 397 LINE SMOOTH",
"749 476 OFFCURVE",
"708 531 OFFCURVE",
"657 531 CURVE SMOOTH",
"322 532 LINE",
"321 452 LINE",
"570 453 LINE SMOOTH",
"647 453 OFFCURVE",
"663 447 OFFCURVE",
"663 319 CURVE SMOOTH",
"663 219 OFFCURVE",
"660 53 OFFCURVE",
"660 0 CURVE"
);
},
{
closed = 1;
nodes = (
"498 79 LINE",
"249 78 LINE SMOOTH",
"173 78 OFFCURVE",
"157 85 OFFCURVE",
"157 212 CURVE SMOOTH",
"157 312 OFFCURVE",
"159 478 OFFCURVE",
"159 531 CURVE",
"70 531 LINE",
"70 134 LINE SMOOTH",
"70 55 OFFCURVE",
"111 0 OFFCURVE",
"163 0 CURVE SMOOTH",
"498 -1 LINE"
);
}
);
width = 962;
},
{
layerId = "CBA2E3C4-6E62-469B-BD2C-D62FAD87CF88";
paths = (
{
closed = 1;
nodes = (
"392 0 LINE",
"392 306 LINE",
"408 306 LINE",
"408 189 LINE",
"467 189 LINE",
"467 249 LINE",
"436 249 LINE",
"436 377 LINE",
"392 377 LINE",
"392 437 LINE SMOOTH",
"392 521 OFFCURVE",
"372 585 OFFCURVE",
"344 585 CURVE SMOOTH",
"168 585 LINE",
"169 497 LINE",
"299 498 LINE SMOOTH",
"339 498 OFFCURVE",
"347 492 OFFCURVE",
"347 351 CURVE SMOOTH",
"347 241 OFFCURVE",
"346 58 OFFCURVE",
"346 0 CURVE"
);
},
{
closed = 1;
nodes = (
"262 87 LINE",
"130 86 LINE SMOOTH",
"91 86 OFFCURVE",
"83 93 OFFCURVE",
"83 233 CURVE SMOOTH",
"83 584 LINE",
"37 584 LINE",
"37 147 LINE SMOOTH",
"37 58 OFFCURVE",
"59 0 OFFCURVE",
"85 0 CURVE SMOOTH",
"262 -1 LINE"
);
}
);
width = 504;
}
);
},
{
glyphname = "ra_gga-ethiopic.liga";
lastChange = "2019-03-13 21:31:41 +0000";
layers = (
{
layerId = "994FE389-9D54-4FAA-B055-C46A67020E78";
paths = (
{
closed = 1;
nodes = (
"749 0 LINE",
"749 397 LINE SMOOTH",
"749 492 OFFCURVE",
"708 531 OFFCURVE",
"656 531 CURVE SMOOTH",
"510 531 LINE",
"510 682 LINE",
"608 682 LINE",
"608 727 LINE",
"370 727 LINE",
"370 682 LINE",
"466 682 LINE",
"466 532 LINE",
"322 532 LINE",
"321 452 LINE",
"570 453 LINE SMOOTH",
"646 453 OFFCURVE",
"663 446 OFFCURVE",
"663 319 CURVE SMOOTH",
"663 219 OFFCURVE",
"660 53 OFFCURVE",
"660 0 CURVE"
);
},
{
closed = 1;
nodes = (
"498 79 LINE",
"249 78 LINE SMOOTH",
"173 78 OFFCURVE",
"156 85 OFFCURVE",
"156 212 CURVE SMOOTH",
"156 312 OFFCURVE",
"159 478 OFFCURVE",
"159 531 CURVE",
"70 531 LINE",
"70 134 LINE SMOOTH",
"70 55 OFFCURVE",
"111 0 OFFCURVE",
"163 0 CURVE SMOOTH",
"497 -1 LINE"
);
}
);
width = 819;
},
{
layerId = "CBA2E3C4-6E62-469B-BD2C-D62FAD87CF88";
paths = (
{
closed = 1;
nodes = (
"392 0 LINE",
"392 437 LINE SMOOTH",
"392 538 OFFCURVE",
"372 584 OFFCURVE",
"343 584 CURVE SMOOTH",
"267 584 LINE",
"267 750 LINE",
"319 750 LINE",
"319 800 LINE",
"194 800 LINE",
"194 750 LINE",
"244 750 LINE",
"244 585 LINE",
"168 585 LINE",
"169 497 LINE",
"299 498 LINE SMOOTH",
"338 498 OFFCURVE",
"347 491 OFFCURVE",
"347 351 CURVE SMOOTH",
"347 241 OFFCURVE",
"346 58 OFFCURVE",
"346 0 CURVE"
);
},
{
closed = 1;
nodes = (
"262 87 LINE",
"130 86 LINE SMOOTH",
"97 86 OFFCURVE",
"82 87 OFFCURVE",
"82 233 CURVE SMOOTH",
"82 343 OFFCURVE",
"83 526 OFFCURVE",
"83 584 CURVE",
"37 584 LINE",
"37 147 LINE SMOOTH",
"37 58 OFFCURVE",
"59 0 OFFCURVE",
"85 0 CURVE SMOOTH",
"261 -1 LINE"
);
}
);
width = 429;
}
);
},
{
glyphname = "ra_ggu-ethiopic.liga";
lastChange = "2019-03-13 21:31:41 +0000";
layers = (
{
layerId = "994FE389-9D54-4FAA-B055-C46A67020E78";
paths = (
{
closed = 1;
nodes = (
"749 0 LINE",
"749 397 LINE SMOOTH",
"749 492 OFFCURVE",
"708 531 OFFCURVE",
"656 531 CURVE SMOOTH",
"510 531 LINE",
"510 688 LINE",
"632 688 LINE",
"632 727 LINE",
"374 727 LINE",
"374 688 LINE",
"471 688 LINE",
"471 532 LINE",
"322 532 LINE",
"321 452 LINE",
"570 453 LINE SMOOTH",
"646 453 OFFCURVE",
"663 446 OFFCURVE",
"663 319 CURVE SMOOTH",
"663 219 OFFCURVE",
"660 53 OFFCURVE",
"660 0 CURVE"
);
},
{
closed = 1;
nodes = (
"498 79 LINE",
"249 78 LINE SMOOTH",
"173 78 OFFCURVE",
"156 85 OFFCURVE",
"156 212 CURVE SMOOTH",
"156 312 OFFCURVE",
"159 478 OFFCURVE",
"159 531 CURVE",
"70 531 LINE",
"70 134 LINE SMOOTH",
"70 55 OFFCURVE",
"111 0 OFFCURVE",
"163 0 CURVE SMOOTH",
"497 -1 LINE"
);
}
);
width = 819;
},
{
layerId = "CBA2E3C4-6E62-469B-BD2C-D62FAD87CF88";
paths = (
{
closed = 1;
nodes = (
"392 0 LINE",
"392 437 LINE SMOOTH",
"392 538 OFFCURVE",
"372 584 OFFCURVE",
"343 584 CURVE SMOOTH",
"267 584 LINE",
"267 757 LINE",
"331 757 LINE",
"331 800 LINE",
"196 800 LINE",
"196 757 LINE",
"247 757 LINE",
"247 585 LINE",
"168 585 LINE",
"169 497 LINE",
"299 498 LINE SMOOTH",
"338 498 OFFCURVE",
"347 491 OFFCURVE",
"347 351 CURVE SMOOTH",
"347 241 OFFCURVE",
"346 58 OFFCURVE",
"346 0 CURVE"
);
},
{
closed = 1;
nodes = (
"262 87 LINE",
"130 86 LINE SMOOTH",
"97 86 OFFCURVE",
"82 87 OFFCURVE",
"82 233 CURVE SMOOTH",
"82 343 OFFCURVE",
"83 526 OFFCURVE",
"83 584 CURVE",
"37 584 LINE",
"37 147 LINE SMOOTH",
"37 58 OFFCURVE",
"59 0 OFFCURVE",
"85 0 CURVE SMOOTH",
"261 -1 LINE"
);
}
);
width = 429;
}
);
},
{
glyphname = "ra_ggi-ethiopic.liga";
lastChange = "2019-03-13 21:31:41 +0000";
layers = (
{
layerId = "994FE389-9D54-4FAA-B055-C46A67020E78";
paths = (
{
closed = 1;
nodes = (
"880 0 LINE",
"880 55 LINE",
"749 55 LINE",
"749 397 LINE SMOOTH",
"749 492 OFFCURVE",
"708 531 OFFCURVE",
"656 531 CURVE SMOOTH",
"523 531 LINE",
"523 682 LINE",
"622 682 LINE",
"622 727 LINE",
"380 727 LINE",
"380 682 LINE",
"477 682 LINE",
"477 532 LINE",
"322 532 LINE",
"321 452 LINE",
"570 453 LINE SMOOTH",
"646 453 OFFCURVE",
"663 446 OFFCURVE",
"663 319 CURVE SMOOTH",
"663 219 OFFCURVE",
"660 53 OFFCURVE",
"660 0 CURVE"
);
},
{
closed = 1;
nodes = (
"498 79 LINE",
"249 78 LINE SMOOTH",
"173 78 OFFCURVE",
"156 85 OFFCURVE",
"156 212 CURVE SMOOTH",
"156 312 OFFCURVE",
"159 478 OFFCURVE",
"159 531 CURVE",
"70 531 LINE",
"70 134 LINE SMOOTH",
"70 55 OFFCURVE",
"111 0 OFFCURVE",
"163 0 CURVE SMOOTH",
"497 -1 LINE"
);
}
);
width = 950;
},
{
layerId = "CBA2E3C4-6E62-469B-BD2C-D62FAD87CF88";
paths = (
{
closed = 1;
nodes = (
"461 0 LINE",
"461 61 LINE",
"392 61 LINE",
"392 437 LINE SMOOTH",
"392 538 OFFCURVE",
"372 584 OFFCURVE",
"343 584 CURVE SMOOTH",
"274 584 LINE",
"274 750 LINE",
"325 750 LINE",
"325 800 LINE",
"199 800 LINE",
"199 750 LINE",
"250 750 LINE",
"250 585 LINE",
"168 585 LINE",
"169 497 LINE",
"299 498 LINE SMOOTH",
"338 498 OFFCURVE",
"347 491 OFFCURVE",
"347 351 CURVE SMOOTH",
"347 241 OFFCURVE",
"346 58 OFFCURVE",
"346 0 CURVE"
);
},
{
closed = 1;
nodes = (
"262 87 LINE",
"130 86 LINE SMOOTH",
"97 86 OFFCURVE",
"82 87 OFFCURVE",
"82 233 CURVE SMOOTH",
"82 343 OFFCURVE",
"83 526 OFFCURVE",
"83 584 CURVE",
"37 584 LINE",
"37 147 LINE SMOOTH",
"37 58 OFFCURVE",
"59 0 OFFCURVE",
"85 0 CURVE SMOOTH",
"261 -1 LINE"
);
}
);
width = 498;
}
);
},
{
glyphname = "ra_ggaa-ethiopic.liga";
lastChange = "2019-03-13 21:31:41 +0000";
layers = (
{
components = (
{
name = "ggaa-ethiopic";
transform = "{1, 0, 0, 1, 330, 0}";
}
);
layerId = "994FE389-9D54-4FAA-B055-C46A67020E78";
paths = (
{
closed = 1;
nodes = (
"499 79 LINE",
"249 78 LINE SMOOTH",
"173 78 OFFCURVE",
"157 85 OFFCURVE",
"157 212 CURVE SMOOTH",
"157 312 OFFCURVE",
"159 478 OFFCURVE",
"159 531 CURVE",
"70 531 LINE",
"70 134 LINE SMOOTH",
"70 55 OFFCURVE",
"111 0 OFFCURVE",
"163 0 CURVE SMOOTH",
"498 -1 LINE"
);
}
);
width = 862;
},
{
components = (
{
name = "ggaa-ethiopic";
transform = "{1, 0, 0, 1, 173, 0}";
}
);
layerId = "CBA2E3C4-6E62-469B-BD2C-D62FAD87CF88";
paths = (
{
closed = 1;
nodes = (
"261 87 LINE",
"130 86 LINE SMOOTH",
"91 86 OFFCURVE",
"83 93 OFFCURVE",
"83 233 CURVE SMOOTH",
"83 584 LINE",
"37 584 LINE",
"37 147 LINE SMOOTH",
"37 58 OFFCURVE",
"59 0 OFFCURVE",
"85 0 CURVE SMOOTH",
"262 -1 LINE"
);
}
);
width = 569;
}
);
},
{
glyphname = "ra_ggee-ethiopic.liga";
lastChange = "2019-03-13 21:31:41 +0000";
layers = (
{
layerId = "994FE389-9D54-4FAA-B055-C46A67020E78";
paths = (
{
closed = 1;
nodes = (
"778 -4 LINE SMOOTH",
"810 -4 OFFCURVE",
"832 9 OFFCURVE",
"850 29 CURVE SMOOTH",
"866 47 OFFCURVE",
"874 75 OFFCURVE",
"874 106 CURVE SMOOTH",
"874 129 OFFCURVE",
"869 151 OFFCURVE",
"861 170 CURVE SMOOTH",
"846 204 OFFCURVE",
"817 222 OFFCURVE",
"778 222 CURVE SMOOTH",
"749 222 LINE",
"749 393 LINE SMOOTH",
"749 487 OFFCURVE",
"708 526 OFFCURVE",
"656 526 CURVE SMOOTH",
"505 526 LINE",
"505 682 LINE",
"622 682 LINE",
"622 727 LINE",
"380 727 LINE",
"380 682 LINE",
"465 682 LINE",
"465 527 LINE",
"322 527 LINE",
"321 447 LINE",
"570 448 LINE SMOOTH",
"646 448 OFFCURVE",
"663 442 OFFCURVE",
"663 315 CURVE SMOOTH",
"663 215 OFFCURVE",
"660 48 OFFCURVE",
"660 -4 CURVE"
);
},
{
closed = 1;
nodes = (
"498 79 LINE",
"249 78 LINE SMOOTH",
"173 78 OFFCURVE",
"156 85 OFFCURVE",
"156 212 CURVE SMOOTH",
"156 312 OFFCURVE",
"159 478 OFFCURVE",
"159 531 CURVE",
"70 531 LINE",
"70 134 LINE SMOOTH",
"70 55 OFFCURVE",
"111 0 OFFCURVE",
"163 0 CURVE SMOOTH",
"497 -1 LINE"
);
},
{
closed = 1;
nodes = (
"749 197 LINE",
"752 197 LINE SMOOTH",
"762 197 OFFCURVE",
"770 196 OFFCURVE",
"776 193 CURVE SMOOTH",
"789 187 OFFCURVE",
"800 183 OFFCURVE",
"806 169 CURVE",
"811 159 OFFCURVE",
"815 149 OFFCURVE",
"819 134 CURVE SMOOTH",
"821 126 OFFCURVE",
"822 117 OFFCURVE",
"822 110 CURVE SMOOTH",
"822 83 OFFCURVE",
"816 59 OFFCURVE",
"806 44 CURVE SMOOTH",
"796 28 OFFCURVE",
"775 22 OFFCURVE",
"751 22 CURVE SMOOTH",
"749 22 LINE"
);
}
);
width = 944;
},
{
layerId = "CBA2E3C4-6E62-469B-BD2C-D62FAD87CF88";
paths = (
{
closed = 1;
nodes = (
"408 -4 LINE SMOOTH",
"423 -4 OFFCURVE",
"435 8 OFFCURVE",
"445 31 CURVE SMOOTH",
"453 50 OFFCURVE",
"458 79 OFFCURVE",
"458 117 CURVE SMOOTH",
"458 144 OFFCURVE",
"455 168 OFFCURVE",
"451 187 CURVE SMOOTH",
"443 224 OFFCURVE",
"430 244 OFFCURVE",
"408 244 CURVE SMOOTH",
"392 244 LINE",
"392 432 LINE SMOOTH",
"392 532 OFFCURVE",
"372 579 OFFCURVE",
"343 579 CURVE SMOOTH",
"266 579 LINE",
"266 750 LINE",
"325 750 LINE",
"325 800 LINE",
"199 800 LINE",
"199 750 LINE",
"245 750 LINE",
"245 580 LINE",
"168 580 LINE",
"169 492 LINE",
"299 492 LINE SMOOTH",
"335 492 OFFCURVE",
"347 492 OFFCURVE",
"347 347 CURVE SMOOTH",
"347 237 OFFCURVE",
"346 53 OFFCURVE",
"346 -4 CURVE"
);
},
{
closed = 1;
nodes = (
"262 87 LINE",
"130 86 LINE SMOOTH",
"97 86 OFFCURVE",
"82 87 OFFCURVE",
"82 233 CURVE SMOOTH",
"82 343 OFFCURVE",
"83 526 OFFCURVE",
"83 584 CURVE",
"37 584 LINE",
"37 147 LINE SMOOTH",
"37 58 OFFCURVE",
"59 0 OFFCURVE",
"85 0 CURVE SMOOTH",
"261 -1 LINE"
);
},
{
closed = 1;
nodes = (
"392 217 LINE",
"393 217 LINE SMOOTH",
"400 217 OFFCURVE",
"402 216 OFFCURVE",
"406 212 CURVE",
"413 206 OFFCURVE",
"419 204 OFFCURVE",
"422 186 CURVE",
"424 180 OFFCURVE",
"428 156 OFFCURVE",
"429 148 CURVE SMOOTH",
"430 138 OFFCURVE",
"430 131 OFFCURVE",
"430 121 CURVE SMOOTH",
"430 83 OFFCURVE",
"427 65 OFFCURVE",
"422 48 CURVE SMOOTH",
"417 31 OFFCURVE",
"406 24 OFFCURVE",
"394 24 CURVE SMOOTH",
"392 24 LINE"
);
}
);
width = 495;
}
);
},
{
glyphname = "ra_gge-ethiopic.liga";
lastChange = "2019-03-13 21:31:41 +0000";
layers = (
{
layerId = "994FE389-9D54-4FAA-B055-C46A67020E78";
paths = (
{
closed = 1;
nodes = (
"754 0 LINE",
"754 397 LINE SMOOTH",
"754 492 OFFCURVE",
"713 531 OFFCURVE",
"661 531 CURVE SMOOTH",
"582 531 LINE",
"582 682 LINE",
"696 682 LINE",
"696 727 LINE",
"380 727 LINE",
"380 682 LINE",
"532 682 LINE",
"532 531 LINE",
"326 532 LINE",
"325 452 LINE",
"326 452 LINE",
"326 420 LINE SMOOTH",
"326 388 OFFCURVE",
"340 366 OFFCURVE",
"360 348 CURVE SMOOTH",
"378 332 OFFCURVE",
"405 325 OFFCURVE",
"436 325 CURVE SMOOTH",
"460 325 OFFCURVE",
"482 329 OFFCURVE",
"501 337 CURVE SMOOTH",
"535 352 OFFCURVE",
"553 381 OFFCURVE",
"553 420 CURVE SMOOTH",
"553 453 LINE",
"575 453 LINE SMOOTH",
"651 453 OFFCURVE",
"667 446 OFFCURVE",
"667 319 CURVE SMOOTH",
"667 219 OFFCURVE",
"665 53 OFFCURVE",
"665 0 CURVE"
);
},
{
closed = 1;
nodes = (
"498 79 LINE",
"249 78 LINE SMOOTH",
"173 78 OFFCURVE",
"156 85 OFFCURVE",
"156 212 CURVE SMOOTH",
"156 312 OFFCURVE",
"159 478 OFFCURVE",
"159 531 CURVE",
"70 531 LINE",
"70 134 LINE SMOOTH",
"70 55 OFFCURVE",
"111 0 OFFCURVE",
"163 0 CURVE SMOOTH",
"497 -1 LINE"
);
},
{
closed = 1;
nodes = (
"414 376 OFFCURVE",
"390 382 OFFCURVE",
"375 392 CURVE SMOOTH",
"359 402 OFFCURVE",
"353 423 OFFCURVE",
"353 447 CURVE SMOOTH",
"353 452 LINE",
"528 453 LINE",
"528 446 LINE SMOOTH",
"528 436 OFFCURVE",
"526 428 OFFCURVE",
"524 422 CURVE",
"518 409 OFFCURVE",
"514 398 OFFCURVE",
"500 392 CURVE",
"490 387 OFFCURVE",
"480 383 OFFCURVE",
"465 379 CURVE",
"456 377 OFFCURVE",
"448 376 OFFCURVE",
"441 376 CURVE SMOOTH"
);
}
);
width = 824;
},
{
layerId = "CBA2E3C4-6E62-469B-BD2C-D62FAD87CF88";
paths = (
{
closed = 1;
nodes = (
"395 0 LINE",
"395 437 LINE SMOOTH",
"395 542 OFFCURVE",
"373 584 OFFCURVE",
"347 584 CURVE SMOOTH",
"304 584 LINE",
"304 750 LINE",
"364 750 LINE",
"364 800 LINE",
"199 800 LINE",
"199 750 LINE",
"278 750 LINE",
"278 584 LINE",
"171 585 LINE",
"170 497 LINE",
"171 497 LINE",
"171 462 LINE SMOOTH",
"171 427 OFFCURVE",
"178 403 OFFCURVE",
"189 383 CURVE SMOOTH",
"199 365 OFFCURVE",
"211 358 OFFCURVE",
"228 358 CURVE SMOOTH",
"243 358 OFFCURVE",
"255 364 OFFCURVE",
"263 371 CURVE",
"284 391 OFFCURVE",
"290 428 OFFCURVE",
"290 462 CURVE SMOOTH",
"290 498 LINE",
"302 498 LINE SMOOTH",
"338 498 OFFCURVE",
"350 496 OFFCURVE",
"350 351 CURVE SMOOTH",
"350 241 OFFCURVE",
"349 58 OFFCURVE",
"349 0 CURVE"
);
},
{
closed = 1;
nodes = (
"262 87 LINE",
"130 86 LINE SMOOTH",
"97 86 OFFCURVE",
"82 87 OFFCURVE",
"82 233 CURVE SMOOTH",
"82 343 OFFCURVE",
"83 526 OFFCURVE",
"83 584 CURVE",
"37 584 LINE",
"37 147 LINE SMOOTH",
"37 58 OFFCURVE",
"59 0 OFFCURVE",
"85 0 CURVE SMOOTH",
"261 -1 LINE"
);
},
{
closed = 1;
nodes = (
"212 414 OFFCURVE",
"203 423 OFFCURVE",
"197 432 CURVE SMOOTH",
"185 449 OFFCURVE",
"185 475 OFFCURVE",
"185 492 CURVE SMOOTH",
"185 497 LINE",
"277 498 LINE",
"277 491 LINE SMOOTH",
"277 480 OFFCURVE",
"275 471 OFFCURVE",
"275 464 CURVE",
"272 452 OFFCURVE",
"270 438 OFFCURVE",
"262 431 CURVE",
"249 418 OFFCURVE",
"254 424 OFFCURVE",
"245 417 CURVE",
"239 415 OFFCURVE",
"234 414 OFFCURVE",
"232 414 CURVE SMOOTH"
);
}
);
width = 432;
}
);
},
{
glyphname = "ra_ggo-ethiopic.liga";
lastChange = "2019-03-13 21:31:41 +0000";
layers = (
{
layerId = "994FE389-9D54-4FAA-B055-C46A67020E78";
paths = (
{
closed = 1;
nodes = (
"754 0 LINE",
"754 397 LINE SMOOTH",
"754 492 OFFCURVE",
"713 531 OFFCURVE",
"661 531 CURVE SMOOTH",
"616 531 LINE",
"616 606 LINE SMOOTH",
"616 638 OFFCURVE",
"607 663 OFFCURVE",
"589 679 CURVE",
"717 679 LINE",
"717 727 LINE",
"383 727 LINE",
"383 679 LINE",
"465 679 LINE",
"463 677 LINE",
"447 659 OFFCURVE",
"436 637 OFFCURVE",
"436 606 CURVE SMOOTH",
"436 532 LINE",
"326 532 LINE",
"325 452 LINE",
"574 453 LINE SMOOTH",
"651 453 OFFCURVE",
"667 446 OFFCURVE",
"667 319 CURVE SMOOTH",
"667 219 OFFCURVE",
"664 53 OFFCURVE",
"664 0 CURVE"
);
},
{
closed = 1;
nodes = (
"498 79 LINE",
"249 78 LINE SMOOTH",
"173 78 OFFCURVE",
"156 85 OFFCURVE",
"156 212 CURVE SMOOTH",
"156 312 OFFCURVE",
"159 478 OFFCURVE",
"159 531 CURVE",
"70 531 LINE",
"70 134 LINE SMOOTH",
"70 55 OFFCURVE",
"111 0 OFFCURVE",
"163 0 CURVE SMOOTH",
"497 -1 LINE"
);
},
{
closed = 1;
nodes = (
"457 532 LINE",
"457 578 LINE SMOOTH",
"457 603 OFFCURVE",
"462 624 OFFCURVE",
"474 634 CURVE SMOOTH",
"486 644 OFFCURVE",
"505 649 OFFCURVE",
"527 649 CURVE SMOOTH",
"533 649 OFFCURVE",
"540 648 OFFCURVE",
"546 646 CURVE",
"558 643 OFFCURVE",
"566 638 OFFCURVE",
"574 634 CURVE",
"585 627 OFFCURVE",
"590 616 OFFCURVE",
"594 604 CURVE",
"595 597 OFFCURVE",
"596 589 OFFCURVE",
"596 579 CURVE SMOOTH",
"596 531 LINE"
);
}
);
width = 824;
},
{
layerId = "CBA2E3C4-6E62-469B-BD2C-D62FAD87CF88";
paths = (
{
closed = 1;
nodes = (
"395 0 LINE",
"395 437 LINE SMOOTH",
"395 542 OFFCURVE",
"373 584 OFFCURVE",
"347 584 CURVE SMOOTH",
"323 584 LINE",
"323 667 LINE SMOOTH",
"323 701 OFFCURVE",
"318 729 OFFCURVE",
"308 747 CURVE",
"376 747 LINE",
"376 800 LINE",
"201 800 LINE",
"201 747 LINE",
"245 747 LINE",
"243 745 LINE",
"230 714 OFFCURVE",
"228 688 OFFCURVE",
"228 667 CURVE SMOOTH",
"228 585 LINE",
"171 585 LINE",
"170 497 LINE",
"301 498 LINE SMOOTH",
"335 498 OFFCURVE",
"350 498 OFFCURVE",
"350 351 CURVE SMOOTH",
"350 241 OFFCURVE",
"348 58 OFFCURVE",
"348 0 CURVE"
);
},
{
closed = 1;
nodes = (
"240 585 LINE",
"240 636 LINE SMOOTH",
"240 659 OFFCURVE",
"242 687 OFFCURVE",
"247 695 CURVE SMOOTH",
"254 707 OFFCURVE",
"262 714 OFFCURVE",
"276 714 CURVE SMOOTH",
"278 714 OFFCURVE",
"283 713 OFFCURVE",
"286 711 CURVE SMOOTH",
"298 703 OFFCURVE",
"293 704 OFFCURVE",
"301 697 CURVE",
"305 692 OFFCURVE",
"309 677 OFFCURVE",
"312 664 CURVE",
"311 657 OFFCURVE",
"312 648 OFFCURVE",
"312 637 CURVE SMOOTH",
"312 584 LINE"
);
},
{
closed = 1;
nodes = (
"262 87 LINE",
"130 86 LINE SMOOTH",
"97 86 OFFCURVE",
"82 87 OFFCURVE",
"82 233 CURVE SMOOTH",
"82 343 OFFCURVE",
"83 526 OFFCURVE",
"83 584 CURVE",
"37 584 LINE",
"37 147 LINE SMOOTH",
"37 58 OFFCURVE",
"59 0 OFFCURVE",
"85 0 CURVE SMOOTH",
"261 -1 LINE"
);
}
);
width = 432;
}
);
},
{
glyphname = "ra_ggwaa-ethiopic.liga";
lastChange = "2019-03-13 21:31:41 +0000";
layers = (
{
layerId = "994FE389-9D54-4FAA-B055-C46A67020E78";
paths = (
{
closed = 1;
nodes = (
"983 -182 LINE",
"983 -7 LINE",
"982 -7 LINE",
"982 6 LINE",
"913 6 LINE",
"913 397 LINE SMOOTH",
"913 492 OFFCURVE",
"872 531 OFFCURVE",
"820 531 CURVE SMOOTH",
"674 531 LINE",
"674 682 LINE",
"772 682 LINE",
"772 727 LINE",
"534 727 LINE",
"534 682 LINE",
"630 682 LINE",
"630 532 LINE",
"485 532 LINE",
"485 452 LINE",
"734 453 LINE SMOOTH",
"810 453 OFFCURVE",
"826 446 OFFCURVE",
"826 319 CURVE SMOOTH",
"826 223 OFFCURVE",
"824 65 OFFCURVE",
"824 6 CURVE",
"652 6 LINE",
"652 -18 LINE",
"902 -18 LINE",
"902 -182 LINE"
);
},
{
closed = 1;
nodes = (
"498 79 LINE",
"249 78 LINE SMOOTH",
"173 78 OFFCURVE",
"156 85 OFFCURVE",
"156 212 CURVE SMOOTH",
"156 312 OFFCURVE",
"159 478 OFFCURVE",
"159 531 CURVE",
"70 531 LINE",
"70 134 LINE SMOOTH",
"70 55 OFFCURVE",
"111 0 OFFCURVE",
"163 0 CURVE SMOOTH",
"497 -1 LINE"
);
}
);
width = 1053;
},
{
layerId = "CBA2E3C4-6E62-469B-BD2C-D62FAD87CF88";
paths = (
{
closed = 1;
nodes = (
"515 -200 LINE",
"515 -8 LINE",
"514 -8 LINE",
"514 7 LINE",
"478 7 LINE",
"478 437 LINE SMOOTH",
"478 541 OFFCURVE",
"456 584 OFFCURVE",
"430 584 CURVE SMOOTH",
"354 584 LINE",
"354 750 LINE",
"404 750 LINE",
"404 800 LINE",
"280 800 LINE",
"280 750 LINE",
"330 750 LINE",
"330 585 LINE",
"255 585 LINE",
"255 497 LINE",
"385 498 LINE SMOOTH",
"422 498 OFFCURVE",
"432 497 OFFCURVE",
"432 351 CURVE SMOOTH",
"432 7 LINE",
"341 7 LINE",
"341 -20 LINE",
"472 -20 LINE",
"472 -200 LINE"
);
},
{
closed = 1;
nodes = (
"262 87 LINE",
"130 86 LINE SMOOTH",
"97 86 OFFCURVE",
"82 87 OFFCURVE",
"82 233 CURVE SMOOTH",
"82 343 OFFCURVE",
"83 526 OFFCURVE",
"83 584 CURVE",
"37 584 LINE",
"37 147 LINE SMOOTH",
"37 58 OFFCURVE",
"59 0 OFFCURVE",
"85 0 CURVE SMOOTH",
"261 -1 LINE"
);
}
);
width = 552;
}
);
},
{
glyphname = "ru_xa-ethiopic.liga";
lastChange = "2019-03-13 21:31:41 +0000";
layers = (
{
layerId = "994FE389-9D54-4FAA-B055-C46A67020E78";
paths = (
{
closed = 1;
nodes = (
"792 0 LINE",
"792 439 LINE SMOOTH",
"792 531 OFFCURVE",
"792 531 OFFCURVE",
"688 531 CURVE SMOOTH",
"459 531 LINE",
"459 727 LINE",
"368 727 LINE",
"368 654 LINE",
"237 654 LINE",
"237 571 LINE",
"368 571 LINE",
"368 505 LINE SMOOTH",
"368 477 OFFCURVE",
"386 458 OFFCURVE",
"415 458 CURVE SMOOTH",
"643 458 LINE SMOOTH",
"701 458 OFFCURVE",
"701 458 OFFCURVE",
"701 278 CURVE SMOOTH",
"701 0 LINE"
);
},
{
closed = 1;
nodes = (
"400 -175 LINE",
"400 -1 LINE",
"497 -1 LINE",
"498 79 LINE",
"249 78 LINE SMOOTH",
"173 78 OFFCURVE",
"156 85 OFFCURVE",
"156 212 CURVE SMOOTH",
"156 312 OFFCURVE",
"159 478 OFFCURVE",
"159 531 CURVE",
"70 531 LINE",
"70 134 LINE SMOOTH",
"70 39 OFFCURVE",
"111 0 OFFCURVE",
"163 0 CURVE SMOOTH",
"321 0 LINE",
"321 -175 LINE"
);
}
);
width = 862;
},
{
layerId = "CBA2E3C4-6E62-469B-BD2C-D62FAD87CF88";
paths = (
{
closed = 1;
nodes = (
"414 0 LINE",
"414 483 LINE SMOOTH",
"414 584 OFFCURVE",
"414 584 OFFCURVE",
"361 584 CURVE SMOOTH",
"240 584 LINE",
"240 800 LINE",
"194 800 LINE",
"194 719 LINE",
"125 719 LINE",
"125 628 LINE",
"194 628 LINE",
"194 556 LINE SMOOTH",
"194 528 OFFCURVE",
"202 504 OFFCURVE",
"218 504 CURVE SMOOTH",
"337 504 LINE SMOOTH",
"368 504 OFFCURVE",
"368 504 OFFCURVE",
"368 306 CURVE SMOOTH",
"368 0 LINE"
);
},
{
closed = 1;
nodes = (
"210 -193 LINE",
"210 -1 LINE",
"261 -1 LINE",
"262 87 LINE",
"130 86 LINE SMOOTH",
"97 86 OFFCURVE",
"82 87 OFFCURVE",
"82 233 CURVE SMOOTH",
"82 343 OFFCURVE",
"83 526 OFFCURVE",
"83 584 CURVE",
"37 584 LINE",
"37 147 LINE SMOOTH",
"37 43 OFFCURVE",
"59 0 OFFCURVE",
"86 0 CURVE SMOOTH",
"169 0 LINE",
"169 -193 LINE"
);
}
);
width = 451;
}
);
note = uni1280;
},
{
glyphname = "ru_xu-ethiopic.liga";
lastChange = "2019-03-13 21:31:41 +0000";
layers = (
{
layerId = "994FE389-9D54-4FAA-B055-C46A67020E78";
paths = (
{
closed = 1;
nodes = (
"747 0 LINE",
"747 246 LINE",
"846 246 LINE",
"846 346 LINE",
"747 346 LINE",
"747 439 LINE SMOOTH",
"747 531 OFFCURVE",
"747 531 OFFCURVE",
"643 531 CURVE SMOOTH",
"414 531 LINE",
"414 727 LINE",
"323 727 LINE",
"323 654 LINE",
"192 654 LINE",
"192 571 LINE",
"323 571 LINE",
"323 505 LINE SMOOTH",
"323 477 OFFCURVE",
"340 458 OFFCURVE",
"369 458 CURVE SMOOTH",
"598 458 LINE SMOOTH",
"656 458 OFFCURVE",
"656 458 OFFCURVE",
"656 278 CURVE SMOOTH",
"656 0 LINE"
);
},
{
closed = 1;
nodes = (
"400 -175 LINE",
"400 -1 LINE",
"498 -1 LINE",
"498 79 LINE",
"249 78 LINE SMOOTH",
"173 78 OFFCURVE",
"157 85 OFFCURVE",
"157 212 CURVE SMOOTH",
"157 312 OFFCURVE",
"159 478 OFFCURVE",
"159 531 CURVE",
"70 531 LINE",
"70 134 LINE SMOOTH",
"70 39 OFFCURVE",
"111 0 OFFCURVE",
"163 0 CURVE SMOOTH",
"321 0 LINE",
"321 -175 LINE"
);
}
);
width = 916;
},
{
layerId = "CBA2E3C4-6E62-469B-BD2C-D62FAD87CF88";
paths = (
{
closed = 1;
nodes = (
"392 0 LINE",
"392 271 LINE",
"443 271 LINE",
"443 381 LINE",
"392 381 LINE",
"392 483 LINE SMOOTH",
"392 584 OFFCURVE",
"392 584 OFFCURVE",
"337 584 CURVE SMOOTH",
"217 584 LINE",
"217 800 LINE",
"169 800 LINE",
"169 719 LINE",
"100 719 LINE",
"100 628 LINE",
"169 628 LINE",
"169 556 LINE SMOOTH",
"169 526 OFFCURVE",
"178 504 OFFCURVE",
"193 504 CURVE SMOOTH",
"314 504 LINE SMOOTH",
"343 504 OFFCURVE",
"343 504 OFFCURVE",
"343 306 CURVE SMOOTH",
"343 0 LINE"
);
},
{
closed = 1;
nodes = (
"210 -193 LINE",
"210 -1 LINE",
"262 -1 LINE",
"262 87 LINE",
"130 86 LINE SMOOTH",
"91 86 OFFCURVE",
"83 93 OFFCURVE",
"83 233 CURVE SMOOTH",
"83 584 LINE",
"37 584 LINE",
"37 147 LINE SMOOTH",
"37 43 OFFCURVE",
"59 0 OFFCURVE",
"86 0 CURVE SMOOTH",
"169 0 LINE",
"169 -193 LINE"
);
}
);
width = 480;
}
);
note = uni1281;
},
{
glyphname = "ru_xi-ethiopic.liga";
lastChange = "2019-03-13 21:31:41 +0000";
layers = (
{
layerId = "994FE389-9D54-4FAA-B055-C46A67020E78";
paths = (
{
closed = 1;
nodes = (
"865 0 LINE",
"865 100 LINE",
"765 100 LINE",
"765 439 LINE SMOOTH",
"765 531 OFFCURVE",
"765 531 OFFCURVE",
"661 531 CURVE SMOOTH",
"432 531 LINE",
"432 727 LINE",
"341 727 LINE",
"341 654 LINE",
"210 654 LINE",
"210 571 LINE",
"341 571 LINE",
"341 505 LINE SMOOTH",
"341 477 OFFCURVE",
"358 458 OFFCURVE",
"387 458 CURVE SMOOTH",
"616 458 LINE SMOOTH",
"674 458 OFFCURVE",
"674 458 OFFCURVE",
"674 278 CURVE SMOOTH",
"674 0 LINE"
);
},
{
closed = 1;
nodes = (
"400 -175 LINE",
"400 -1 LINE",
"497 -1 LINE",
"498 79 LINE",
"249 78 LINE SMOOTH",
"173 78 OFFCURVE",
"156 85 OFFCURVE",
"156 212 CURVE SMOOTH",
"156 312 OFFCURVE",
"159 478 OFFCURVE",
"159 531 CURVE",
"70 531 LINE",
"70 134 LINE SMOOTH",
"70 39 OFFCURVE",
"111 0 OFFCURVE",
"163 0 CURVE SMOOTH",
"321 0 LINE",
"321 -175 LINE"
);
}
);
width = 935;
},
{
layerId = "CBA2E3C4-6E62-469B-BD2C-D62FAD87CF88";
paths = (
{
closed = 1;
nodes = (
"454 0 LINE",
"454 110 LINE",
"402 110 LINE",
"402 483 LINE SMOOTH",
"402 584 OFFCURVE",
"402 584 OFFCURVE",
"347 584 CURVE SMOOTH",
"226 584 LINE",
"226 800 LINE",
"179 800 LINE",
"179 719 LINE",
"110 719 LINE",
"110 628 LINE",
"179 628 LINE",
"179 556 LINE SMOOTH",
"179 526 OFFCURVE",
"188 504 OFFCURVE",
"203 504 CURVE SMOOTH",
"323 504 LINE SMOOTH",
"354 504 OFFCURVE",
"354 504 OFFCURVE",
"354 306 CURVE SMOOTH",
"354 0 LINE"
);
},
{
closed = 1;
nodes = (
"210 -193 LINE",
"210 -1 LINE",
"261 -1 LINE",
"262 87 LINE",
"130 86 LINE SMOOTH",
"97 86 OFFCURVE",
"82 87 OFFCURVE",
"82 233 CURVE SMOOTH",
"82 343 OFFCURVE",
"83 526 OFFCURVE",
"83 584 CURVE",
"37 584 LINE",
"37 147 LINE SMOOTH",
"37 43 OFFCURVE",
"59 0 OFFCURVE",
"86 0 CURVE SMOOTH",
"169 0 LINE",
"169 -193 LINE"
);
}
);
width = 491;
}
);
note = uni1282;
},
{
glyphname = "ru_xee-ethiopic.liga";
lastChange = "2019-03-13 21:31:41 +0000";
layers = (
{
layerId = "994FE389-9D54-4FAA-B055-C46A67020E78";
paths = (
{
closed = 1;
nodes = (
"838 0 LINE SMOOTH",
"883 0 OFFCURVE",
"915 16 OFFCURVE",
"933 46 CURVE SMOOTH",
"943 63 OFFCURVE",
"949 82 OFFCURVE",
"949 103 CURVE SMOOTH",
"949 131 OFFCURVE",
"941 155 OFFCURVE",
"922 170 CURVE SMOOTH",
"900 188 OFFCURVE",
"875 200 OFFCURVE",
"839 200 CURVE SMOOTH",
"828 200 LINE",
"828 439 LINE SMOOTH",
"828 531 OFFCURVE",
"828 531 OFFCURVE",
"724 531 CURVE SMOOTH",
"495 531 LINE",
"495 727 LINE",
"404 727 LINE",
"404 654 LINE",
"273 654 LINE",
"273 571 LINE",
"404 571 LINE",
"404 505 LINE SMOOTH",
"404 477 OFFCURVE",
"422 458 OFFCURVE",
"451 458 CURVE SMOOTH",
"679 458 LINE SMOOTH",
"737 458 OFFCURVE",
"737 458 OFFCURVE",
"737 278 CURVE SMOOTH",
"737 0 LINE"
);
},
{
closed = 1;
nodes = (
"400 -175 LINE",
"400 -1 LINE",
"497 -1 LINE",
"498 79 LINE",
"249 78 LINE SMOOTH",
"173 78 OFFCURVE",
"156 85 OFFCURVE",
"156 212 CURVE SMOOTH",
"156 312 OFFCURVE",
"159 478 OFFCURVE",
"159 531 CURVE",
"70 531 LINE",
"70 134 LINE SMOOTH",
"70 39 OFFCURVE",
"111 0 OFFCURVE",
"163 0 CURVE SMOOTH",
"321 0 LINE",
"321 -175 LINE"
);
},
{
closed = 1;
nodes = (
"828 175 LINE",
"846 173 OFFCURVE",
"861 166 OFFCURVE",
"870 157 CURVE SMOOTH",
"883 144 OFFCURVE",
"888 124 OFFCURVE",
"888 99 CURVE SMOOTH",
"888 92 OFFCURVE",
"887 86 OFFCURVE",
"885 78 CURVE SMOOTH",
"882 65 OFFCURVE",
"877 55 OFFCURVE",
"871 46 CURVE",
"863 36 OFFCURVE",
"851 29 OFFCURVE",
"836 26 CURVE",
"828 24 LINE"
);
}
);
width = 1019;
},
{
layerId = "CBA2E3C4-6E62-469B-BD2C-D62FAD87CF88";
paths = (
{
closed = 1;
nodes = (
"440 0 LINE SMOOTH",
"465 0 OFFCURVE",
"480 20 OFFCURVE",
"489 52 CURVE SMOOTH",
"494 69 OFFCURVE",
"497 90 OFFCURVE",
"497 113 CURVE SMOOTH",
"497 142 OFFCURVE",
"495 166 OFFCURVE",
"483 186 CURVE SMOOTH",
"466 214 OFFCURVE",
"455 220 OFFCURVE",
"439 220 CURVE SMOOTH",
"434 220 LINE",
"434 483 LINE SMOOTH",
"434 584 OFFCURVE",
"434 584 OFFCURVE",
"380 584 CURVE SMOOTH",
"260 584 LINE",
"260 800 LINE",
"212 800 LINE",
"212 719 LINE",
"143 719 LINE",
"143 628 LINE",
"212 628 LINE",
"212 556 LINE SMOOTH",
"212 526 OFFCURVE",
"222 504 OFFCURVE",
"237 504 CURVE SMOOTH",
"355 504 LINE SMOOTH",
"386 504 OFFCURVE",
"386 504 OFFCURVE",
"386 306 CURVE SMOOTH",
"386 0 LINE"
);
},
{
closed = 1;
nodes = (
"210 -193 LINE",
"210 -1 LINE",
"261 -1 LINE",
"262 87 LINE",
"130 86 LINE SMOOTH",
"97 86 OFFCURVE",
"82 87 OFFCURVE",
"82 233 CURVE SMOOTH",
"82 343 OFFCURVE",
"83 526 OFFCURVE",
"83 584 CURVE",
"37 584 LINE",
"37 147 LINE SMOOTH",
"37 43 OFFCURVE",
"59 0 OFFCURVE",
"86 0 CURVE SMOOTH",
"169 0 LINE",
"169 -193 LINE"
);
},
{
closed = 1;
nodes = (
"434 193 LINE",
"443 190 OFFCURVE",
"450 185 OFFCURVE",
"456 172 CURVE SMOOTH",
"463 157 OFFCURVE",
"466 137 OFFCURVE",
"466 109 CURVE SMOOTH",
"466 105 OFFCURVE",
"465 90 OFFCURVE",
"464 86 CURVE SMOOTH",
"462 79 OFFCURVE",
"460 61 OFFCURVE",
"457 51 CURVE",
"452 40 OFFCURVE",
"449 35 OFFCURVE",
"438 29 CURVE",
"434 26 LINE"
);
}
);
width = 534;
}
);
note = uni1284;
},
{
glyphname = "ru_xe-ethiopic.liga";
lastChange = "2019-03-13 21:31:41 +0000";
layers = (
{
layerId = "994FE389-9D54-4FAA-B055-C46A67020E78";
paths = (
{
closed = 1;
nodes = (
"814 0 LINE",
"814 439 LINE SMOOTH",
"814 531 OFFCURVE",
"814 531 OFFCURVE",
"710 531 CURVE SMOOTH",
"481 531 LINE",
"481 727 LINE",
"390 727 LINE",
"390 638 LINE",
"264 638 LINE",
"264 635 LINE",
"260 635 LINE",
"260 482 LINE",
"326 482 LINE",
"326 568 LINE SMOOTH",
"326 581 OFFCURVE",
"337 591 OFFCURVE",
"349 591 CURVE SMOOTH",
"390 591 LINE",
"390 458 LINE",
"665 458 LINE SMOOTH",
"723 458 OFFCURVE",
"723 458 OFFCURVE",
"723 278 CURVE SMOOTH",
"723 0 LINE"
);
},
{
closed = 1;
nodes = (
"400 -175 LINE",
"400 -1 LINE",
"497 -1 LINE",
"498 79 LINE",
"249 78 LINE SMOOTH",
"173 78 OFFCURVE",
"157 85 OFFCURVE",
"157 212 CURVE SMOOTH",
"157 312 OFFCURVE",
"159 478 OFFCURVE",
"159 531 CURVE",
"70 531 LINE",
"70 134 LINE SMOOTH",
"70 39 OFFCURVE",
"111 0 OFFCURVE",
"163 0 CURVE SMOOTH",
"321 0 LINE",
"321 -175 LINE"
);
}
);
width = 884;
},
{
layerId = "CBA2E3C4-6E62-469B-BD2C-D62FAD87CF88";
paths = (
{
closed = 1;
nodes = (
"427 0 LINE",
"427 483 LINE SMOOTH",
"427 584 OFFCURVE",
"427 584 OFFCURVE",
"372 584 CURVE SMOOTH",
"253 584 LINE",
"253 800 LINE",
"205 800 LINE",
"205 702 LINE",
"139 702 LINE",
"139 699 LINE",
"136 699 LINE",
"136 530 LINE",
"171 530 LINE",
"171 625 LINE SMOOTH",
"171 639 OFFCURVE",
"177 650 OFFCURVE",
"183 650 CURVE SMOOTH",
"205 650 LINE",
"205 504 LINE",
"349 504 LINE SMOOTH",
"379 504 OFFCURVE",
"379 504 OFFCURVE",
"379 306 CURVE SMOOTH",
"379 0 LINE"
);
},
{
closed = 1;
nodes = (
"210 -193 LINE",
"210 -1 LINE",
"261 -1 LINE",
"262 87 LINE",
"130 86 LINE SMOOTH",
"91 86 OFFCURVE",
"83 93 OFFCURVE",
"83 233 CURVE SMOOTH",
"83 584 LINE",
"37 584 LINE",
"37 147 LINE SMOOTH",
"37 43 OFFCURVE",
"59 0 OFFCURVE",
"86 0 CURVE SMOOTH",
"169 0 LINE",
"169 -193 LINE"
);
}
);
width = 464;
}
);
note = uni1285;
},
{
glyphname = "ru_xwa-ethiopic.liga";
lastChange = "2019-03-13 21:31:41 +0000";
layers = (
{
layerId = "994FE389-9D54-4FAA-B055-C46A67020E78";
paths = (
{
closed = 1;
nodes = (
"731 0 LINE",
"731 215 LINE",
"749 215 LINE SMOOTH",
"794 215 OFFCURVE",
"826 228 OFFCURVE",
"844 253 CURVE SMOOTH",
"854 266 OFFCURVE",
"860 283 OFFCURVE",
"860 300 CURVE SMOOTH",
"860 323 OFFCURVE",
"851 343 OFFCURVE",
"832 356 CURVE SMOOTH",
"810 371 OFFCURVE",
"786 380 OFFCURVE",
"750 380 CURVE SMOOTH",
"731 380 LINE",
"731 439 LINE SMOOTH",
"731 531 OFFCURVE",
"731 531 OFFCURVE",
"628 531 CURVE SMOOTH",
"517 531 LINE",
"517 727 LINE",
"426 727 LINE",
"426 605 LINE",
"344 605 LINE",
"344 531 LINE",
"426 531 LINE",
"426 458 LINE",
"582 458 LINE SMOOTH",
"640 458 OFFCURVE",
"640 458 OFFCURVE",
"640 278 CURVE SMOOTH",
"640 0 LINE"
);
},
{
closed = 1;
nodes = (
"400 -175 LINE",
"400 -1 LINE",
"497 -1 LINE",
"498 79 LINE",
"249 78 LINE SMOOTH",
"172 78 OFFCURVE",
"156 85 OFFCURVE",
"156 212 CURVE SMOOTH",
"156 312 OFFCURVE",
"159 478 OFFCURVE",
"159 531 CURVE",
"70 531 LINE",
"70 134 LINE SMOOTH",
"70 39 OFFCURVE",
"110 0 OFFCURVE",
"162 0 CURVE SMOOTH",
"320 0 LINE",
"320 -175 LINE"
);
},
{
closed = 1;
nodes = (
"731 361 LINE",
"753 360 OFFCURVE",
"770 354 OFFCURVE",
"780 345 CURVE SMOOTH",
"793 334 OFFCURVE",
"799 316 OFFCURVE",
"799 296 CURVE SMOOTH",
"799 291 OFFCURVE",
"798 286 OFFCURVE",
"796 279 CURVE",
"792 268 OFFCURVE",
"788 260 OFFCURVE",
"781 253 CURVE",
"773 244 OFFCURVE",
"761 239 OFFCURVE",
"747 236 CURVE SMOOTH",
"742 235 OFFCURVE",
"737 234 OFFCURVE",
"731 234 CURVE"
);
}
);
width = 930;
},
{
layerId = "CBA2E3C4-6E62-469B-BD2C-D62FAD87CF88";
paths = (
{
closed = 1;
nodes = (
"384 0 LINE",
"384 237 LINE",
"392 237 LINE SMOOTH",
"414 237 OFFCURVE",
"432 249 OFFCURVE",
"442 277 CURVE SMOOTH",
"448 293 OFFCURVE",
"451 315 OFFCURVE",
"451 330 CURVE SMOOTH",
"451 352 OFFCURVE",
"445 380 OFFCURVE",
"437 391 CURVE SMOOTH",
"425 408 OFFCURVE",
"410 418 OFFCURVE",
"393 418 CURVE SMOOTH",
"384 418 LINE",
"384 483 LINE SMOOTH",
"384 584 OFFCURVE",
"384 584 OFFCURVE",
"330 584 CURVE SMOOTH",
"271 584 LINE",
"271 800 LINE",
"223 800 LINE",
"223 666 LINE",
"181 666 LINE",
"181 584 LINE",
"223 584 LINE",
"223 504 LINE",
"304 504 LINE SMOOTH",
"335 504 OFFCURVE",
"335 504 OFFCURVE",
"335 306 CURVE SMOOTH",
"335 0 LINE"
);
},
{
closed = 1;
nodes = (
"210 -193 LINE",
"210 -1 LINE",
"261 -1 LINE",
"262 87 LINE",
"130 86 LINE SMOOTH",
"98 86 OFFCURVE",
"82 87 OFFCURVE",
"82 233 CURVE SMOOTH",
"82 343 OFFCURVE",
"83 526 OFFCURVE",
"83 584 CURVE",
"37 584 LINE",
"37 147 LINE SMOOTH",
"37 43 OFFCURVE",
"58 0 OFFCURVE",
"85 0 CURVE SMOOTH",
"168 0 LINE",
"168 -193 LINE"
);
},
{
closed = 1;
nodes = (
"384 397 LINE",
"396 396 OFFCURVE",
"403 391 OFFCURVE",
"409 379 CURVE SMOOTH",
"416 365 OFFCURVE",
"418 348 OFFCURVE",
"418 326 CURVE SMOOTH",
"418 321 OFFCURVE",
"419 315 OFFCURVE",
"417 307 CURVE",
"414 285 OFFCURVE",
"413 289 OFFCURVE",
"410 278 CURVE",
"407 271 OFFCURVE",
"399 263 OFFCURVE",
"392 260 CURVE",
"390 259 OFFCURVE",
"385 257 OFFCURVE",
"384 257 CURVE"
);
}
);
width = 488;
}
);
},
{
glyphname = "ru_xwi-ethiopic.liga";
lastChange = "2019-03-13 21:31:41 +0000";
layers = (
{
layerId = "994FE389-9D54-4FAA-B055-C46A67020E78";
paths = (
{
closed = 1;
nodes = (
"721 0 LINE",
"721 273 LINE",
"763 273 LINE",
"763 229 LINE",
"924 229 LINE",
"924 276 LINE",
"811 276 LINE",
"811 391 LINE",
"769 391 LINE",
"769 323 LINE",
"721 323 LINE",
"721 439 LINE SMOOTH",
"721 531 OFFCURVE",
"721 531 OFFCURVE",
"617 531 CURVE SMOOTH",
"506 531 LINE",
"506 727 LINE",
"416 727 LINE",
"416 605 LINE",
"334 605 LINE",
"334 531 LINE",
"416 531 LINE",
"416 458 LINE",
"572 458 LINE SMOOTH",
"630 458 OFFCURVE",
"630 458 OFFCURVE",
"630 278 CURVE SMOOTH",
"630 0 LINE"
);
},
{
closed = 1;
nodes = (
"400 -175 LINE",
"400 -1 LINE",
"497 -1 LINE",
"498 79 LINE",
"249 78 LINE SMOOTH",
"173 78 OFFCURVE",
"156 85 OFFCURVE",
"156 212 CURVE SMOOTH",
"156 312 OFFCURVE",
"159 478 OFFCURVE",
"159 531 CURVE",
"70 531 LINE",
"70 134 LINE SMOOTH",
"70 39 OFFCURVE",
"111 0 OFFCURVE",
"163 0 CURVE SMOOTH",
"321 0 LINE",
"321 -175 LINE"
);
}
);
width = 994;
},
{
layerId = "CBA2E3C4-6E62-469B-BD2C-D62FAD87CF88";
paths = (
{
closed = 1;
nodes = (
"378 0 LINE",
"378 300 LINE",
"400 300 LINE",
"400 252 LINE",
"484 252 LINE",
"484 304 LINE",
"425 304 LINE",
"425 430 LINE",
"402 430 LINE",
"402 355 LINE",
"378 355 LINE",
"378 483 LINE SMOOTH",
"378 584 OFFCURVE",
"378 584 OFFCURVE",
"324 584 CURVE SMOOTH",
"265 584 LINE",
"265 800 LINE",
"218 800 LINE",
"218 666 LINE",
"176 666 LINE",
"176 584 LINE",
"218 584 LINE",
"218 504 LINE",
"299 504 LINE SMOOTH",
"330 504 OFFCURVE",
"330 504 OFFCURVE",
"330 306 CURVE SMOOTH",
"330 0 LINE"
);
},
{
closed = 1;
nodes = (
"210 -193 LINE",
"210 -1 LINE",
"261 -1 LINE",
"262 87 LINE",
"130 86 LINE SMOOTH",
"97 86 OFFCURVE",
"82 87 OFFCURVE",
"82 233 CURVE SMOOTH",
"82 343 OFFCURVE",
"83 526 OFFCURVE",
"83 584 CURVE",
"37 584 LINE",
"37 147 LINE SMOOTH",
"37 43 OFFCURVE",
"59 0 OFFCURVE",
"86 0 CURVE SMOOTH",
"169 0 LINE",
"169 -193 LINE"
);
}
);
width = 521;
}
);
},
{
glyphname = "ru_xwaa-ethiopic.liga";
lastChange = "2019-03-13 21:31:41 +0000";
layers = (
{
layerId = "994FE389-9D54-4FAA-B055-C46A67020E78";
paths = (
{
closed = 1;
nodes = (
"988 -182 LINE",
"988 0 LINE",
"843 0 LINE",
"843 439 LINE SMOOTH",
"843 531 OFFCURVE",
"843 531 OFFCURVE",
"739 531 CURVE SMOOTH",
"510 531 LINE",
"510 727 LINE",
"419 727 LINE",
"419 649 LINE",
"302 649 LINE",
"302 555 LINE",
"419 555 LINE",
"419 505 LINE SMOOTH",
"419 477 OFFCURVE",
"437 458 OFFCURVE",
"466 458 CURVE SMOOTH",
"694 458 LINE SMOOTH",
"752 458 OFFCURVE",
"752 458 OFFCURVE",
"752 278 CURVE SMOOTH",
"752 0 LINE",
"631 0 LINE",
"631 -56 LINE",
"891 -56 LINE",
"891 -182 LINE"
);
},
{
closed = 1;
nodes = (
"400 -175 LINE",
"400 -1 LINE",
"498 -1 LINE",
"498 79 LINE",
"249 78 LINE SMOOTH",
"173 78 OFFCURVE",
"157 85 OFFCURVE",
"157 212 CURVE SMOOTH",
"157 312 OFFCURVE",
"159 478 OFFCURVE",
"159 531 CURVE",
"70 531 LINE",
"70 134 LINE SMOOTH",
"70 39 OFFCURVE",
"111 0 OFFCURVE",
"163 0 CURVE SMOOTH",
"321 0 LINE",
"321 -175 LINE"
);
}
);
width = 1058;
},
{
layerId = "CBA2E3C4-6E62-469B-BD2C-D62FAD87CF88";
paths = (
{
closed = 1;
nodes = (
"518 -200 LINE",
"518 0 LINE",
"442 0 LINE",
"442 483 LINE SMOOTH",
"442 584 OFFCURVE",
"442 584 OFFCURVE",
"387 584 CURVE SMOOTH",
"267 584 LINE",
"267 800 LINE",
"219 800 LINE",
"219 714 LINE",
"158 714 LINE",
"158 611 LINE",
"219 611 LINE",
"219 556 LINE SMOOTH",
"219 526 OFFCURVE",
"229 504 OFFCURVE",
"244 504 CURVE SMOOTH",
"364 504 LINE SMOOTH",
"393 504 OFFCURVE",
"393 504 OFFCURVE",
"393 306 CURVE SMOOTH",
"393 0 LINE",
"331 0 LINE",
"331 -62 LINE",
"467 -62 LINE",
"467 -200 LINE"
);
},
{
closed = 1;
nodes = (
"210 -193 LINE",
"210 -1 LINE",
"262 -1 LINE",
"262 87 LINE",
"130 86 LINE SMOOTH",
"91 86 OFFCURVE",
"83 93 OFFCURVE",
"83 233 CURVE SMOOTH",
"83 584 LINE",
"37 584 LINE",
"37 147 LINE SMOOTH",
"37 43 OFFCURVE",
"59 0 OFFCURVE",
"86 0 CURVE SMOOTH",
"169 0 LINE",
"169 -193 LINE"
);
}
);
width = 555;
}
);
},
{
glyphname = "ru_xwee-ethiopic.liga";
lastChange = "2019-03-13 21:31:41 +0000";
layers = (
{
layerId = "994FE389-9D54-4FAA-B055-C46A67020E78";
paths = (
{
closed = 1;
nodes = (
"928 -1 LINE",
"928 6 LINE",
"936 3 OFFCURVE",
"944 0 OFFCURVE",
"953 0 CURVE SMOOTH",
"1008 0 OFFCURVE",
"1050 45 OFFCURVE",
"1050 96 CURVE SMOOTH",
"1050 151 OFFCURVE",
"1009 196 OFFCURVE",
"953 196 CURVE SMOOTH",
"944 196 OFFCURVE",
"936 195 OFFCURVE",
"928 192 CURVE",
"928 439 LINE SMOOTH",
"928 531 OFFCURVE",
"928 531 OFFCURVE",
"824 531 CURVE SMOOTH",
"595 531 LINE",
"595 727 LINE",
"504 727 LINE",
"504 649 LINE",
"387 649 LINE",
"387 555 LINE",
"504 555 LINE",
"504 505 LINE SMOOTH",
"504 477 OFFCURVE",
"521 458 OFFCURVE",
"550 458 CURVE SMOOTH",
"779 458 LINE SMOOTH",
"837 458 OFFCURVE",
"837 458 OFFCURVE",
"837 278 CURVE SMOOTH",
"837 56 LINE",
"685 56 LINE",
"685 -1 LINE"
);
},
{
closed = 1;
nodes = (
"400 -175 LINE",
"400 -1 LINE",
"497 -1 LINE",
"498 79 LINE",
"249 78 LINE SMOOTH",
"172 78 OFFCURVE",
"156 85 OFFCURVE",
"156 212 CURVE SMOOTH",
"156 312 OFFCURVE",
"159 478 OFFCURVE",
"159 531 CURVE",
"70 531 LINE",
"70 134 LINE SMOOTH",
"70 39 OFFCURVE",
"110 0 OFFCURVE",
"162 0 CURVE SMOOTH",
"320 0 LINE",
"320 -175 LINE"
);
},
{
closed = 1;
nodes = (
"943 54 OFFCURVE",
"935 56 OFFCURVE",
"928 62 CURVE",
"928 134 LINE",
"935 139 OFFCURVE",
"943 142 OFFCURVE",
"953 142 CURVE SMOOTH",
"978 142 OFFCURVE",
"998 122 OFFCURVE",
"998 99 CURVE SMOOTH",
"998 73 OFFCURVE",
"978 54 OFFCURVE",
"953 54 CURVE SMOOTH"
);
}
);
width = 1120;
},
{
layerId = "CBA2E3C4-6E62-469B-BD2C-D62FAD87CF88";
paths = (
{
closed = 1;
nodes = (
"487 -1 LINE",
"487 7 LINE",
"490 3 OFFCURVE",
"495 0 OFFCURVE",
"499 0 CURVE SMOOTH",
"527 0 OFFCURVE",
"550 50 OFFCURVE",
"550 106 CURVE SMOOTH",
"550 166 OFFCURVE",
"528 216 OFFCURVE",
"499 216 CURVE SMOOTH",
"495 216 OFFCURVE",
"489 214 OFFCURVE",
"487 211 CURVE",
"487 483 LINE SMOOTH",
"487 584 OFFCURVE",
"487 584 OFFCURVE",
"432 584 CURVE SMOOTH",
"311 584 LINE",
"311 800 LINE",
"265 800 LINE",
"265 714 LINE",
"203 714 LINE",
"203 611 LINE",
"265 611 LINE",
"265 556 LINE SMOOTH",
"265 524 OFFCURVE",
"274 504 OFFCURVE",
"288 504 CURVE SMOOTH",
"408 504 LINE SMOOTH",
"439 504 OFFCURVE",
"439 504 OFFCURVE",
"439 306 CURVE SMOOTH",
"439 62 LINE",
"360 62 LINE",
"360 -1 LINE"
);
},
{
closed = 1;
nodes = (
"210 -193 LINE",
"210 -1 LINE",
"261 -1 LINE",
"262 87 LINE",
"130 86 LINE SMOOTH",
"98 86 OFFCURVE",
"82 87 OFFCURVE",
"82 233 CURVE SMOOTH",
"82 343 OFFCURVE",
"83 526 OFFCURVE",
"83 584 CURVE",
"37 584 LINE",
"37 147 LINE SMOOTH",
"37 43 OFFCURVE",
"58 0 OFFCURVE",
"85 0 CURVE SMOOTH",
"168 0 LINE",
"168 -193 LINE"
);
},
{
closed = 1;
nodes = (
"496 59 OFFCURVE",
"490 60 OFFCURVE",
"487 68 CURVE",
"487 147 LINE",
"489 153 OFFCURVE",
"496 156 OFFCURVE",
"499 156 CURVE SMOOTH",
"511 156 OFFCURVE",
"523 134 OFFCURVE",
"523 109 CURVE SMOOTH",
"523 80 OFFCURVE",
"511 59 OFFCURVE",
"499 59 CURVE SMOOTH"
);
}
);
width = 587;
}
);
},
{
glyphname = "ru_xwe-ethiopic.liga";
lastChange = "2019-03-13 21:31:41 +0000";
layers = (
{
layerId = "994FE389-9D54-4FAA-B055-C46A67020E78";
paths = (
{
closed = 1;
nodes = (
"1028 -182 LINE",
"1028 0 LINE",
"883 0 LINE",
"883 273 LINE",
"960 273 LINE",
"960 229 LINE",
"1121 229 LINE",
"1121 276 LINE",
"1008 276 LINE",
"1008 391 LINE",
"966 391 LINE",
"966 323 LINE",
"883 323 LINE",
"883 439 LINE SMOOTH",
"883 531 OFFCURVE",
"883 531 OFFCURVE",
"779 531 CURVE SMOOTH",
"550 531 LINE",
"550 727 LINE",
"459 727 LINE",
"459 649 LINE",
"342 649 LINE",
"342 555 LINE",
"459 555 LINE",
"459 505 LINE SMOOTH",
"459 477 OFFCURVE",
"476 458 OFFCURVE",
"505 458 CURVE SMOOTH",
"734 458 LINE SMOOTH",
"792 458 OFFCURVE",
"792 458 OFFCURVE",
"792 278 CURVE SMOOTH",
"792 0 LINE",
"671 0 LINE",
"671 -56 LINE",
"931 -56 LINE",
"931 -182 LINE"
);
},
{
closed = 1;
nodes = (
"400 -175 LINE",
"400 -1 LINE",
"497 -1 LINE",
"498 79 LINE",
"249 78 LINE SMOOTH",
"173 78 OFFCURVE",
"156 85 OFFCURVE",
"156 212 CURVE SMOOTH",
"156 312 OFFCURVE",
"159 478 OFFCURVE",
"159 531 CURVE",
"70 531 LINE",
"70 134 LINE SMOOTH",
"70 39 OFFCURVE",
"111 0 OFFCURVE",
"163 0 CURVE SMOOTH",
"321 0 LINE",
"321 -175 LINE"
);
}
);
width = 1191;
},
{
layerId = "CBA2E3C4-6E62-469B-BD2C-D62FAD87CF88";
paths = (
{
closed = 1;
nodes = (
"539 -200 LINE",
"539 0 LINE",
"462 0 LINE",
"462 300 LINE",
"503 300 LINE",
"503 252 LINE",
"588 252 LINE",
"588 304 LINE",
"529 304 LINE",
"529 430 LINE",
"506 430 LINE",
"506 355 LINE",
"462 355 LINE",
"462 483 LINE SMOOTH",
"462 584 OFFCURVE",
"462 584 OFFCURVE",
"408 584 CURVE SMOOTH",
"288 584 LINE",
"288 800 LINE",
"240 800 LINE",
"240 714 LINE",
"179 714 LINE",
"179 611 LINE",
"240 611 LINE",
"240 556 LINE SMOOTH",
"240 528 OFFCURVE",
"249 504 OFFCURVE",
"266 504 CURVE SMOOTH",
"385 504 LINE SMOOTH",
"414 504 OFFCURVE",
"414 504 OFFCURVE",
"414 306 CURVE SMOOTH",
"414 0 LINE",
"352 0 LINE",
"352 -62 LINE",
"488 -62 LINE",
"488 -200 LINE"
);
},
{
closed = 1;
nodes = (
"210 -193 LINE",
"210 -1 LINE",
"261 -1 LINE",
"262 87 LINE",
"130 86 LINE SMOOTH",
"97 86 OFFCURVE",
"82 87 OFFCURVE",
"82 233 CURVE SMOOTH",
"82 343 OFFCURVE",
"83 526 OFFCURVE",
"83 584 CURVE",
"37 584 LINE",
"37 147 LINE SMOOTH",
"37 43 OFFCURVE",
"59 0 OFFCURVE",
"86 0 CURVE SMOOTH",
"169 0 LINE",
"169 -193 LINE"
);
}
);
width = 625;
}
);
},
{
glyphname = "ru_na-ethiopic.liga";
lastChange = "2019-03-13 21:31:41 +0000";
layers = (
{
layerId = "994FE389-9D54-4FAA-B055-C46A67020E78";
paths = (
{
closed = 1;
nodes = (
"720 0 LINE",
"720 439 LINE SMOOTH",
"720 531 OFFCURVE",
"720 531 OFFCURVE",
"617 531 CURVE SMOOTH",
"388 531 LINE",
"388 727 LINE",
"297 727 LINE",
"297 505 LINE SMOOTH",
"297 477 OFFCURVE",
"314 458 OFFCURVE",
"343 458 CURVE SMOOTH",
"571 458 LINE SMOOTH",
"630 458 OFFCURVE",
"630 458 OFFCURVE",
"630 278 CURVE SMOOTH",
"630 0 LINE"
);
},
{
closed = 1;
nodes = (
"400 -175 LINE",
"400 -1 LINE",
"497 -1 LINE",
"498 79 LINE",
"249 78 LINE SMOOTH",
"172 78 OFFCURVE",
"156 85 OFFCURVE",
"156 212 CURVE SMOOTH",
"156 312 OFFCURVE",
"159 478 OFFCURVE",
"159 531 CURVE",
"70 531 LINE",
"70 134 LINE SMOOTH",
"70 39 OFFCURVE",
"110 0 OFFCURVE",
"162 0 CURVE SMOOTH",
"320 0 LINE",
"320 -175 LINE"
);
}
);
width = 790;
},
{
layerId = "CBA2E3C4-6E62-469B-BD2C-D62FAD87CF88";
paths = (
{
closed = 1;
nodes = (
"377 0 LINE",
"377 483 LINE SMOOTH",
"377 584 OFFCURVE",
"377 584 OFFCURVE",
"324 584 CURVE SMOOTH",
"204 584 LINE",
"204 800 LINE",
"156 800 LINE",
"156 556 LINE SMOOTH",
"156 525 OFFCURVE",
"165 504 OFFCURVE",
"180 504 CURVE SMOOTH",
"300 504 LINE SMOOTH",
"330 504 OFFCURVE",
"330 504 OFFCURVE",
"330 306 CURVE SMOOTH",
"330 0 LINE"
);
},
{
closed = 1;
nodes = (
"210 -193 LINE",
"210 -1 LINE",
"261 -1 LINE",
"262 87 LINE",
"130 86 LINE SMOOTH",
"98 86 OFFCURVE",
"82 87 OFFCURVE",
"82 233 CURVE SMOOTH",
"82 343 OFFCURVE",
"83 526 OFFCURVE",
"83 584 CURVE",
"37 584 LINE",
"37 147 LINE SMOOTH",
"37 43 OFFCURVE",
"58 0 OFFCURVE",
"85 0 CURVE SMOOTH",
"168 0 LINE",
"168 -193 LINE"
);
}
);
width = 414;
}
);
},
{
glyphname = "ru_nu-ethiopic.liga";
lastChange = "2019-03-13 21:31:41 +0000";
layers = (
{
layerId = "994FE389-9D54-4FAA-B055-C46A67020E78";
paths = (
{
closed = 1;
nodes = (
"721 0 LINE",
"721 244 LINE",
"825 244 LINE",
"825 348 LINE",
"721 348 LINE",
"721 439 LINE SMOOTH",
"721 531 OFFCURVE",
"721 531 OFFCURVE",
"617 531 CURVE SMOOTH",
"388 531 LINE",
"388 727 LINE",
"297 727 LINE",
"297 505 LINE SMOOTH",
"297 477 OFFCURVE",
"314 458 OFFCURVE",
"343 458 CURVE SMOOTH",
"571 458 LINE SMOOTH",
"630 458 OFFCURVE",
"630 458 OFFCURVE",
"630 278 CURVE SMOOTH",
"630 0 LINE"
);
},
{
closed = 1;
nodes = (
"400 -175 LINE",
"400 -1 LINE",
"497 -1 LINE",
"498 79 LINE",
"249 78 LINE SMOOTH",
"172 78 OFFCURVE",
"156 85 OFFCURVE",
"156 212 CURVE SMOOTH",
"156 312 OFFCURVE",
"159 478 OFFCURVE",
"159 531 CURVE",
"70 531 LINE",
"70 134 LINE SMOOTH",
"70 39 OFFCURVE",
"111 0 OFFCURVE",
"162 0 CURVE SMOOTH",
"321 0 LINE",
"321 -175 LINE"
);
}
);
width = 895;
},
{
layerId = "CBA2E3C4-6E62-469B-BD2C-D62FAD87CF88";
paths = (
{
closed = 1;
nodes = (
"378 0 LINE",
"378 268 LINE",
"433 268 LINE",
"433 383 LINE",
"378 383 LINE",
"378 483 LINE SMOOTH",
"378 584 OFFCURVE",
"378 584 OFFCURVE",
"324 584 CURVE SMOOTH",
"204 584 LINE",
"204 800 LINE",
"156 800 LINE",
"156 556 LINE SMOOTH",
"156 525 OFFCURVE",
"165 504 OFFCURVE",
"180 504 CURVE SMOOTH",
"300 504 LINE SMOOTH",
"330 504 OFFCURVE",
"330 504 OFFCURVE",
"330 306 CURVE SMOOTH",
"330 0 LINE"
);
},
{
closed = 1;
nodes = (
"210 -193 LINE",
"210 -1 LINE",
"261 -1 LINE",
"262 87 LINE",
"130 86 LINE SMOOTH",
"98 86 OFFCURVE",
"82 87 OFFCURVE",
"82 233 CURVE SMOOTH",
"82 343 OFFCURVE",
"83 526 OFFCURVE",
"83 584 CURVE",
"37 584 LINE",
"37 147 LINE SMOOTH",
"37 43 OFFCURVE",
"59 0 OFFCURVE",
"85 0 CURVE SMOOTH",
"169 0 LINE",
"169 -193 LINE"
);
}
);
width = 470;
}
);
},
